# dr-16 | final single-asset pipeline | blocks +Y up -Z front
mtllib dr-16.mtl
v -0.085192796072 0.509533875572 -0.311019728140
v 0.051257971603 0.556517642737 -0.311019728140
v -0.000586185269 0.707084007068 -0.311019728140
v -0.137036952944 0.660100239903 -0.311019728140
v -0.085192796072 0.509533875572 -0.131872364731
v 0.051257971603 0.556517642737 -0.131872364731
v -0.000586185269 0.707084007068 -0.131872364731
v -0.137036952944 0.660100239903 -0.131872364731
v -0.024641787898 0.463629209471 -0.273697360763
v 0.076756666070 0.438347735451 -0.273697360763
v 0.108057538666 0.563888678460 -0.273697360763
v 0.006659084697 0.589170152480 -0.273697360763
v -0.024641787898 0.463629209471 -0.129384206906
v 0.076756666070 0.438347735451 -0.129384206906
v 0.108057538666 0.563888678460 -0.129384206906
v 0.006659084697 0.589170152480 -0.129384206906
v -0.032045991976 0.660855733399 -0.261256571638
v 0.094510859582 0.687756222622 -0.261256571638
v 0.069679638761 0.804577931753 -0.261256571638
v -0.056877212797 0.777677442530 -0.261256571638
v -0.032045991976 0.660855733399 -0.102014470830
v 0.094510859582 0.687756222622 -0.102014470830
v 0.069679638761 0.804577931753 -0.102014470830
v -0.056877212797 0.777677442530 -0.102014470830
v -0.152368434976 0.404279999660 -0.082109208229
v 0.146210504039 0.404279999660 -0.082109208229
v 0.146210504039 0.752622095177 -0.082109208229
v -0.152368434976 0.752622095177 -0.082109208229
v -0.152368434976 0.404279999660 0.166706574283
v 0.146210504039 0.404279999660 0.166706574283
v 0.146210504039 0.752622095177 0.166706574283
v -0.152368434976 0.752622095177 0.166706574283
v -0.605768038115 0.044878063745 -0.520024985450
v -0.240265539963 0.000000000000 -0.520024985450
v -0.196600396861 0.355624052256 -0.520024985450
v -0.562102895013 0.400502116001 -0.520024985450
v -0.605768038115 0.044878063745 -0.201540783835
v -0.240265539963 0.000000000000 -0.201540783835
v -0.196600396861 0.355624052256 -0.201540783835
v -0.562102895013 0.400502116001 -0.201540783835
v -0.341084763221 0.301651631265 -0.510470459402
v -0.230677853688 0.305507125503 -0.510470459402
v -0.232970309722 0.371154477117 -0.510470459402
v -0.343377219255 0.367298982879 -0.510470459402
v -0.341084763221 0.301651631265 -0.389446462788
v -0.230677853688 0.305507125503 -0.389446462788
v -0.232970309722 0.371154477117 -0.389446462788
v -0.343377219255 0.367298982879 -0.389446462788
v -0.146555059967 0.020658950345 -0.589693404554
v 0.161224942950 0.042181024728 -0.589693404554
v 0.140397129030 0.340032640454 -0.589693404554
v -0.167382873887 0.318510566070 -0.589693404554
v -0.146555059967 0.020658950345 -0.231398677736
v 0.161224942950 0.042181024728 -0.231398677736
v 0.140397129030 0.340032640454 -0.231398677736
v -0.167382873887 0.318510566070 -0.231398677736
v 0.243217804053 0.002063890679 -0.510072354150
v 0.575390100720 0.066631644392 -0.510072354150
v 0.507024243847 0.418343487922 -0.510072354150
v 0.174851947180 0.353775734209 -0.510072354150
v 0.243217804053 0.002063890679 -0.151777627332
v 0.575390100720 0.066631644392 -0.151777627332
v 0.507024243847 0.418343487922 -0.151777627332
v 0.174851947180 0.353775734209 -0.151777627332
v -0.581516807598 0.376886666129 -0.450356566347
v -0.276783772892 0.425151637280 -0.450356566347
v -0.320377940383 0.700394378304 -0.450356566347
v -0.625110975088 0.652129407154 -0.450356566347
v -0.581516807598 0.376886666129 -0.111967102130
v -0.276783772892 0.425151637280 -0.111967102130
v -0.320377940383 0.700394378304 -0.111967102130
v -0.625110975088 0.652129407154 -0.111967102130
v -0.389167974962 0.598999095461 -0.440204882420
v -0.301138686833 0.627601545020 -0.440204882420
v -0.321437199423 0.690073943047 -0.440204882420
v -0.409466487552 0.661471493488 -0.440204882420
v -0.389167974962 0.598999095461 -0.311616886018
v -0.301138686833 0.627601545020 -0.311616886018
v -0.321437199423 0.690073943047 -0.311616886018
v -0.409466487552 0.661471493488 -0.311616886018
v 0.162729739940 0.453815905522 -0.569788141953
v 0.503459724904 0.381391511460 -0.569788141953
v 0.567607045359 0.683180926714 -0.569788141953
v 0.226877060395 0.755605320776 -0.569788141953
v 0.162729739940 0.453815905522 -0.271209202938
v 0.503459724904 0.381391511460 -0.271209202938
v 0.567607045359 0.683180926714 -0.271209202938
v 0.226877060395 0.755605320776 -0.271209202938
v -0.476611147047 0.751350635391 -0.495143407199
v -0.082380227974 0.806756177823 -0.495143407199
v -0.126704661919 1.122140913081 -0.495143407199
v -0.520935580992 1.066735370649 -0.495143407199
v -0.476611147047 0.751350635391 -0.186611836884
v -0.082380227974 0.806756177823 -0.186611836884
v -0.126704661919 1.122140913081 -0.186611836884
v -0.520935580992 1.066735370649 -0.186611836884
v -0.225749204566 1.008901993636 -0.485887460090
v -0.111536220802 1.043820406994 -0.485887460090
v -0.130741348148 1.106637548064 -0.485887460090
v -0.244954331912 1.071719134706 -0.485887460090
v -0.225749204566 1.008901993636 -0.368645463370
v -0.111536220802 1.043820406994 -0.368645463370
v -0.130741348148 1.106637548064 -0.368645463370
v -0.244954331912 1.071719134706 -0.368645463370
v -0.077884009172 0.862807192845 -0.510072354150
v 0.298244161133 0.823274529143 -0.510072354150
v 0.330494492047 1.130115931233 -0.510072354150
v -0.045633678257 1.169648594935 -0.510072354150
v -0.077884009172 0.862807192845 -0.231398677736
v 0.298244161133 0.823274529143 -0.231398677736
v 0.330494492047 1.130115931233 -0.231398677736
v -0.045633678257 1.169648594935 -0.231398677736
v 0.343842027901 0.757937954260 -0.395617094194
v 0.586280678027 0.813909326874 -0.395617094194
v 0.525831595604 1.075743069010 -0.395617094194
v 0.283392945479 1.019771696396 -0.395617094194
v 0.343842027901 0.757937954260 -0.087085523879
v 0.586280678027 0.813909326874 -0.087085523879
v 0.525831595604 1.075743069010 -0.087085523879
v 0.283392945479 1.019771696396 -0.087085523879
v 0.489668468199 0.974521171004 -0.386361147085
v 0.558877861091 1.002483580807 -0.386361147085
v 0.534270940464 1.063387846552 -0.386361147085
v 0.465061547572 1.035425436749 -0.386361147085
v 0.489668468199 0.974521171004 -0.269119150365
v 0.558877861091 1.002483580807 -0.269119150365
v 0.534270940464 1.063387846552 -0.269119150365
v 0.465061547572 1.035425436749 -0.269119150365
v -0.627065494017 0.066895473509 -0.151777627332
v -0.282113439828 0.018415623881 -0.151777627332
v -0.235018728761 0.353511905093 -0.151777627332
v -0.579970782950 0.401991754721 -0.151777627332
v -0.627065494017 0.066895473509 0.166706574283
v -0.282113439828 0.018415623881 0.166706574283
v -0.235018728761 0.353511905093 0.166706574283
v -0.579970782950 0.401991754721 0.166706574283
v 0.308999885793 0.086566779239 -0.126896049081
v 0.596045068393 0.116736443643 -0.126896049081
v 0.560673737713 0.453272174968 -0.126896049081
v 0.273628555112 0.423102510564 -0.126896049081
v 0.308999885793 0.086566779239 0.201540783835
v 0.596045068393 0.116736443643 0.201540783835
v 0.560673737713 0.453272174968 0.201540783835
v 0.273628555112 0.423102510564 0.201540783835
v -0.626939564869 0.495086359175 -0.131872364731
v -0.319159561953 0.473564284791 -0.131872364731
v -0.294860445713 0.821057836471 -0.131872364731
v -0.602640448629 0.842579910854 -0.131872364731
v -0.626939564869 0.495086359175 0.186611836884
v -0.319159561953 0.473564284791 0.186611836884
v -0.294860445713 0.821057836471 0.186611836884
v -0.602640448629 0.842579910854 0.186611836884
v -0.408496330063 0.753689846232 -0.122317838683
v -0.316289075700 0.761756935684 -0.122317838683
v -0.322014106924 0.827194342006 -0.122317838683
v -0.414221361286 0.819127252554 -0.122317838683
v -0.408496330063 0.753689846232 -0.001293842069
v -0.316289075700 0.761756935684 -0.001293842069
v -0.322014106924 0.827194342006 -0.001293842069
v -0.414221361286 0.819127252554 -0.001293842069
v 0.333064418152 0.459759127171 -0.097038155180
v 0.636908700647 0.513335072109 -0.097038155180
v 0.576419730556 0.856385068474 -0.097038155180
v 0.272575448061 0.802809123536 -0.097038155180
v 0.333064418152 0.459759127171 0.191588152534
v 0.636908700647 0.513335072109 0.191588152534
v 0.576419730556 0.856385068474 0.191588152534
v 0.272575448061 0.802809123536 0.191588152534
v -0.574901351128 0.837320567638 -0.097038155180
v -0.242729054460 0.772752813925 -0.097038155180
v -0.187656558646 1.056076243435 -0.097038155180
v -0.519828855313 1.120643997148 -0.097038155180
v -0.574901351128 0.837320567638 0.251303940337
v -0.242729054460 0.772752813925 0.251303940337
v -0.187656558646 1.056076243435 0.251303940337
v -0.519828855313 1.120643997148 0.251303940337
v -0.328251947971 1.025324169959 -0.086587892314
v -0.226796950022 1.021781283362 -0.086587892314
v -0.224504493988 1.087428634976 -0.086587892314
v -0.325959491938 1.090971521574 -0.086587892314
v -0.328251947971 1.025324169959 0.045782103982
v -0.226796950022 1.021781283362 0.045782103982
v -0.224504493988 1.087428634976 0.045782103982
v -0.325959491938 1.090971521574 0.045782103982
v -0.130524112046 0.810193853737 -0.116943417781
v 0.226897826825 0.835187230441 -0.116943417781
v 0.203987231513 1.162824007740 -0.116943417781
v -0.153434707358 1.137830631036 -0.116943417781
v -0.130524112046 0.810193853737 0.251303940337
v 0.226897826825 0.835187230441 0.251303940337
v 0.203987231513 1.162824007740 0.251303940337
v -0.153434707358 1.137830631036 0.251303940337
v -0.503989338798 0.019205051485 0.191588152534
v -0.168893057585 0.066299762552 0.191588152534
v -0.218758045774 0.421107589718 0.191588152534
v -0.553854326986 0.374012878651 0.191588152534
v -0.503989338798 0.019205051485 0.520024985450
v -0.168893057585 0.066299762552 0.520024985450
v -0.218758045774 0.421107589718 0.520024985450
v -0.553854326986 0.374012878651 0.520024985450
v -0.145226611657 0.062186022249 0.231398677736
v 0.211704695553 0.030958579210 0.231398677736
v 0.238594993725 0.338316093752 0.231398677736
v -0.118336313485 0.369543536790 0.231398677736
v -0.145226611657 0.062186022249 0.559835510652
v 0.211704695553 0.030958579210 0.559835510652
v 0.238594993725 0.338316093752 0.559835510652
v -0.118336313485 0.369543536790 0.559835510652
v 0.274821172826 0.054633483064 0.201540783835
v 0.569724109638 0.101341519661 0.201540783835
v 0.515231400275 0.445394945941 0.201540783835
v 0.220328463463 0.398686909344 0.201540783835
v 0.274821172826 0.054633483064 0.510072354150
v 0.569724109638 0.101341519661 0.510072354150
v 0.515231400275 0.445394945941 0.510072354150
v 0.220328463463 0.398686909344 0.510072354150
v 0.455140197104 0.337308116838 0.210796730944
v 0.540329830777 0.364987906733 0.210796730944
v 0.520031318187 0.427460304760 0.210796730944
v 0.434841684514 0.399780514865 0.210796730944
v 0.455140197104 0.337308116838 0.328038727664
v 0.540329830777 0.364987906733 0.328038727664
v 0.520031318187 0.427460304760 0.328038727664
v 0.434841684514 0.399780514865 0.328038727664
v -0.566246674190 0.476537148788 0.216469730786
v -0.249507162355 0.443246484618 0.216469730786
v -0.216216498185 0.759985996453 0.216469730786
v -0.532956010020 0.793276660623 0.216469730786
v -0.566246674190 0.476537148788 0.515048669800
v -0.249507162355 0.443246484618 0.515048669800
v -0.216216498185 0.759985996453 0.515048669800
v -0.532956010020 0.793276660623 0.515048669800
v -0.143722742257 0.424682021022 0.256280255987
v 0.190500586130 0.477617795832 0.256280255987
v 0.137564811320 0.811841124219 0.256280255987
v -0.196658517067 0.758905349409 0.256280255987
v -0.143722742257 0.424682021022 0.554859195002
v 0.190500586130 0.477617795832 0.554859195002
v 0.137564811320 0.811841124219 0.554859195002
v -0.196658517067 0.758905349409 0.554859195002
v 0.063696898985 0.699928155735 0.265237624158
v 0.160245150482 0.731298584283 0.265237624158
v 0.139946637892 0.793770982311 0.265237624158
v 0.043398386395 0.762400553762 0.265237624158
v 0.063696898985 0.699928155735 0.378697620983
v 0.160245150482 0.731298584283 0.378697620983
v 0.139946637892 0.793770982311 0.378697620983
v 0.043398386395 0.762400553762 0.378697620983
v 0.193487568356 0.523137442687 0.206517099485
v 0.515890091591 0.460468740553 0.206517099485
v 0.576659742145 0.773101490358 0.206517099485
v 0.254257218909 0.835770192491 0.206517099485
v 0.193487568356 0.523137442687 0.505096038500
v 0.515890091591 0.460468740553 0.505096038500
v 0.576659742145 0.773101490358 0.505096038500
v 0.254257218909 0.835770192491 0.505096038500
v -0.441922224981 0.783286237133 0.201540783835
v -0.077258624838 0.834536363883 0.201540783835
v -0.121583058784 1.149921099142 0.201540783835
v -0.486246658926 1.098670972392 0.201540783835
v -0.441922224981 0.783286237133 0.490167091549
v -0.077258624838 0.834536363883 0.490167091549
v -0.121583058784 1.149921099142 0.490167091549
v -0.486246658926 1.098670972392 0.490167091549
v -0.051873629633 0.855037337441 0.221446046436
v 0.322645743487 0.802402072130 0.221446046436
v 0.364199900311 1.098075261435 0.221446046436
v -0.010319472808 1.150710526746 0.221446046436
v -0.051873629633 0.855037337441 0.510072354150
v 0.322645743487 0.802402072130 0.510072354150
v 0.364199900311 1.098075261435 0.510072354150
v -0.010319472808 1.150710526746 0.510072354150
v 0.217256975209 1.056187540235 0.230104835667
v 0.330699691528 1.058167690213 0.230104835667
v 0.329553288908 1.123845052293 0.230104835667
v 0.216110572590 1.121864902314 0.230104835667
v 0.217256975209 1.056187540235 0.339782832599
v 0.330699691528 1.058167690213 0.339782832599
v 0.329553288908 1.123845052293 0.339782832599
v 0.216110572590 1.121864902314 0.339782832599
v -0.130385045087 0.561101855595 -0.385663498670
v -0.105049818587 0.515973483392 -0.385663498670
v 0.178600173477 0.675215584200 -0.388649288060
v 0.153264946977 0.720343956403 -0.388649288060
v -0.130018632261 0.561307561041 -0.339883323136
v -0.104683405761 0.516179188838 -0.339883323136
v 0.178966586302 0.675421289646 -0.342869112526
v 0.153631359803 0.720549661849 -0.342869112526
v -0.650000000000 0.357005000983 -0.395617094194
v -0.550473686995 0.357005000983 -0.395617094194
v -0.550473686995 0.461507629638 -0.395617094194
v -0.650000000000 0.461507629638 -0.395617094194
v -0.650000000000 0.357005000983 -0.286138149889
v -0.550473686995 0.357005000983 -0.286138149889
v -0.550473686995 0.461507629638 -0.286138149889
v -0.650000000000 0.461507629638 -0.286138149889
v 0.532370027866 0.707847461354 -0.385664462894
v 0.650000000000 0.748350708910 -0.385664462894
v 0.615977272053 0.847159885503 -0.385664462894
v 0.498347299919 0.806656637946 -0.385664462894
v 0.532370027866 0.707847461354 -0.276185518588
v 0.650000000000 0.748350708910 -0.276185518588
v 0.615977272053 0.847159885503 -0.276185518588
v 0.498347299919 0.806656637946 -0.276185518588
v -0.507755311683 1.004270756514 0.171682889933
v -0.429327506769 1.065545273212 0.171682889933
v -0.493665749302 1.147894468372 0.171682889933
v -0.572093554217 1.086619951674 0.171682889933
v -0.507755311683 1.004270756514 0.281161834239
v -0.429327506769 1.065545273212 0.281161834239
v -0.493665749302 1.147894468372 0.281161834239
v -0.572093554217 1.086619951674 0.281161834239
v 0.484590279497 0.049955915075 0.390640778544
v 0.552347673339 0.154293151892 0.390640778544
v 0.464704394413 0.211209362719 0.390640778544
v 0.396947000571 0.106872125902 0.390640778544
v 0.484590279497 0.049955915075 0.500119722849
v 0.552347673339 0.154293151892 0.500119722849
v 0.464704394413 0.211209362719 0.500119722849
v 0.396947000571 0.106872125902 0.500119722849
v -0.262997474651 0.019893767304 0.480214460248
v -0.238919880347 0.116463723465 0.480214460248
v -0.340318334315 0.141745197484 0.480214460248
v -0.364395928619 0.045175241324 0.480214460248
v -0.262997474651 0.019893767304 0.589693404554
v -0.238919880347 0.116463723465 0.589693404554
v -0.340318334315 0.141745197484 0.589693404554
v -0.364395928619 0.045175241324 0.589693404554
v 0.293258099128 1.108243055422 0.052251314328
v 0.282415236961 1.232177537092 0.052251314328
v 0.178310272359 1.223069532872 0.052251314328
v 0.189153134525 1.099135051202 0.052251314328
v 0.293258099128 1.108243055422 0.161730258633
v 0.282415236961 1.232177537092 0.161730258633
v 0.178310272359 1.223069532872 0.161730258633
v 0.189153134525 1.099135051202 0.161730258633
vt 0.015625000000 0.984375000000
vt 0.075340787803 0.984375000000
vt 0.075340787803 0.930257567304
vt 0.015625000000 0.930257567304
vt 0.312500000000 0.984375000000
vt 0.366617432696 0.984375000000
vt 0.366617432696 0.924659212197
vt 0.312500000000 0.924659212197
vt 0.312500000000 0.984375000000
vt 0.379680261278 0.984375000000
vt 0.379680261278 0.924659212197
vt 0.312500000000 0.924659212197
vt 0.312500000000 0.984375000000
vt 0.372215787803 0.984375000000
vt 0.372215787803 0.917194738722
vt 0.312500000000 0.917194738722
vt 0.015625000000 0.984375000000
vt 0.082805261278 0.984375000000
vt 0.082805261278 0.930257567304
vt 0.015625000000 0.930257567304
vt 0.312500000000 0.984375000000
vt 0.366617432696 0.984375000000
vt 0.366617432696 0.917194738722
vt 0.312500000000 0.917194738722
vt 0.015625000000 0.984375000000
vt 0.064144077590 0.984375000000
vt 0.064144077590 0.945186514254
vt 0.015625000000 0.945186514254
vt 0.312500000000 0.984375000000
vt 0.351688485746 0.984375000000
vt 0.351688485746 0.935855922410
vt 0.312500000000 0.935855922410
vt 0.312500000000 0.984375000000
vt 0.366617432696 0.984375000000
vt 0.366617432696 0.935855922410
vt 0.312500000000 0.935855922410
vt 0.312500000000 0.984375000000
vt 0.361019077590 0.984375000000
vt 0.361019077590 0.930257567304
vt 0.312500000000 0.930257567304
vt 0.312500000000 0.984375000000
vt 0.366617432696 0.984375000000
vt 0.366617432696 0.945186514254
vt 0.312500000000 0.945186514254
vt 0.312500000000 0.984375000000
vt 0.351688485746 0.984375000000
vt 0.351688485746 0.930257567304
vt 0.312500000000 0.930257567304
vt 0.015625000000 0.984375000000
vt 0.060411840852 0.984375000000
vt 0.060411840852 0.935855922410
vt 0.015625000000 0.935855922410
vt 0.312500000000 0.984375000000
vt 0.361019077590 0.984375000000
vt 0.361019077590 0.939588159148
vt 0.312500000000 0.939588159148
vt 0.312500000000 0.984375000000
vt 0.372215787803 0.984375000000
vt 0.372215787803 0.939588159148
vt 0.312500000000 0.939588159148
vt 0.312500000000 0.984375000000
vt 0.357286840852 0.984375000000
vt 0.357286840852 0.924659212197
vt 0.312500000000 0.924659212197
vt 0.312500000000 0.984375000000
vt 0.372215787803 0.984375000000
vt 0.372215787803 0.935855922410
vt 0.312500000000 0.935855922410
vt 0.312500000000 0.984375000000
vt 0.361019077590 0.984375000000
vt 0.361019077590 0.924659212197
vt 0.312500000000 0.924659212197
vt 0.312500000000 0.984375000000
vt 0.443128285819 0.984375000000
vt 0.443128285819 0.872407897870
vt 0.312500000000 0.872407897870
vt 0.312500000000 0.984375000000
vt 0.424467102130 0.984375000000
vt 0.424467102130 0.853746714181
vt 0.312500000000 0.853746714181
vt 0.312500000000 0.984375000000
vt 0.405805918442 0.984375000000
vt 0.405805918442 0.853746714181
vt 0.312500000000 0.853746714181
vt 0.312500000000 0.984375000000
vt 0.443128285819 0.984375000000
vt 0.443128285819 0.891069081558
vt 0.312500000000 0.891069081558
vt 0.312500000000 0.984375000000
vt 0.405805918442 0.984375000000
vt 0.405805918442 0.872407897870
vt 0.312500000000 0.872407897870
vt 0.312500000000 0.984375000000
vt 0.424467102130 0.984375000000
vt 0.424467102130 0.891069081558
vt 0.312500000000 0.891069081558
vt 0.484375000000 0.984375000000
vt 0.618735522557 0.984375000000
vt 0.618735522557 0.846282240706
vt 0.484375000000 0.846282240706
vt 0.484375000000 0.984375000000
vt 0.622467759294 0.984375000000
vt 0.622467759294 0.850014477443
vt 0.484375000000 0.850014477443
vt 0.484375000000 0.984375000000
vt 0.603806575606 0.984375000000
vt 0.603806575606 0.850014477443
vt 0.484375000000 0.850014477443
vt 0.484375000000 0.984375000000
vt 0.618735522557 0.984375000000
vt 0.618735522557 0.864943424394
vt 0.484375000000 0.864943424394
vt 0.484375000000 0.984375000000
vt 0.603806575606 0.984375000000
vt 0.603806575606 0.846282240706
vt 0.484375000000 0.846282240706
vt 0.484375000000 0.984375000000
vt 0.622467759294 0.984375000000
vt 0.622467759294 0.864943424394
vt 0.484375000000 0.864943424394
vt 0.656250000000 0.984375000000
vt 0.680882762469 0.984375000000
vt 0.680882762469 0.942947172212
vt 0.656250000000 0.942947172212
vt 0.656250000000 0.984375000000
vt 0.697677827788 0.984375000000
vt 0.697677827788 0.959742237531
vt 0.656250000000 0.959742237531
vt 0.656250000000 0.984375000000
vt 0.701633998730 0.984375000000
vt 0.701633998730 0.959742237531
vt 0.656250000000 0.959742237531
vt 0.656250000000 0.984375000000
vt 0.680882762469 0.984375000000
vt 0.680882762469 0.938991001270
vt 0.656250000000 0.938991001270
vt 0.656250000000 0.984375000000
vt 0.701633998730 0.984375000000
vt 0.701633998730 0.942947172212
vt 0.656250000000 0.942947172212
vt 0.656250000000 0.984375000000
vt 0.697677827788 0.984375000000
vt 0.697677827788 0.938991001270
vt 0.656250000000 0.938991001270
vt 0.125000000000 0.984375000000
vt 0.236967102130 0.984375000000
vt 0.236967102130 0.868675661132
vt 0.125000000000 0.868675661132
vt 0.125000000000 0.984375000000
vt 0.240699338868 0.984375000000
vt 0.240699338868 0.872407897870
vt 0.125000000000 0.872407897870
vt 0.125000000000 0.984375000000
vt 0.259360522557 0.984375000000
vt 0.259360522557 0.872407897870
vt 0.125000000000 0.872407897870
vt 0.125000000000 0.984375000000
vt 0.236967102130 0.984375000000
vt 0.236967102130 0.850014477443
vt 0.125000000000 0.850014477443
vt 0.125000000000 0.984375000000
vt 0.259360522557 0.984375000000
vt 0.259360522557 0.868675661132
vt 0.125000000000 0.868675661132
vt 0.125000000000 0.984375000000
vt 0.240699338868 0.984375000000
vt 0.240699338868 0.850014477443
vt 0.125000000000 0.850014477443
vt 0.125000000000 0.984375000000
vt 0.259360522557 0.984375000000
vt 0.259360522557 0.857478950919
vt 0.125000000000 0.857478950919
vt 0.125000000000 0.984375000000
vt 0.251896049081 0.984375000000
vt 0.251896049081 0.850014477443
vt 0.125000000000 0.850014477443
vt 0.125000000000 0.984375000000
vt 0.259360522557 0.984375000000
vt 0.259360522557 0.850014477443
vt 0.125000000000 0.850014477443
vt 0.125000000000 0.984375000000
vt 0.259360522557 0.984375000000
vt 0.259360522557 0.850014477443
vt 0.125000000000 0.850014477443
vt 0.125000000000 0.984375000000
vt 0.259360522557 0.984375000000
vt 0.259360522557 0.857478950919
vt 0.125000000000 0.857478950919
vt 0.125000000000 0.984375000000
vt 0.251896049081 0.984375000000
vt 0.251896049081 0.850014477443
vt 0.125000000000 0.850014477443
vt 0.125000000000 0.984375000000
vt 0.229502628655 0.984375000000
vt 0.229502628655 0.868675661132
vt 0.125000000000 0.868675661132
vt 0.125000000000 0.984375000000
vt 0.240699338868 0.984375000000
vt 0.240699338868 0.879872371345
vt 0.125000000000 0.879872371345
vt 0.125000000000 0.984375000000
vt 0.251896049081 0.984375000000
vt 0.251896049081 0.879872371345
vt 0.125000000000 0.879872371345
vt 0.125000000000 0.984375000000
vt 0.229502628655 0.984375000000
vt 0.229502628655 0.857478950919
vt 0.125000000000 0.857478950919
vt 0.125000000000 0.984375000000
vt 0.251896049081 0.984375000000
vt 0.251896049081 0.868675661132
vt 0.125000000000 0.868675661132
vt 0.125000000000 0.984375000000
vt 0.240699338868 0.984375000000
vt 0.240699338868 0.857478950919
vt 0.125000000000 0.857478950919
vt 0.656250000000 0.984375000000
vt 0.680882762469 0.984375000000
vt 0.680882762469 0.949665198340
vt 0.656250000000 0.949665198340
vt 0.656250000000 0.984375000000
vt 0.690959801660 0.984375000000
vt 0.690959801660 0.959742237531
vt 0.656250000000 0.959742237531
vt 0.656250000000 0.984375000000
vt 0.704470498651 0.984375000000
vt 0.704470498651 0.959742237531
vt 0.656250000000 0.959742237531
vt 0.656250000000 0.984375000000
vt 0.680882762469 0.984375000000
vt 0.680882762469 0.936154501349
vt 0.656250000000 0.936154501349
vt 0.656250000000 0.984375000000
vt 0.704470498651 0.984375000000
vt 0.704470498651 0.949665198340
vt 0.656250000000 0.949665198340
vt 0.656250000000 0.984375000000
vt 0.690959801660 0.984375000000
vt 0.690959801660 0.936154501349
vt 0.656250000000 0.936154501349
vt 0.484375000000 0.984375000000
vt 0.600074338868 0.984375000000
vt 0.600074338868 0.853746714181
vt 0.484375000000 0.853746714181
vt 0.484375000000 0.984375000000
vt 0.615003285819 0.984375000000
vt 0.615003285819 0.868675661132
vt 0.484375000000 0.868675661132
vt 0.484375000000 0.984375000000
vt 0.596342102130 0.984375000000
vt 0.596342102130 0.868675661132
vt 0.484375000000 0.868675661132
vt 0.484375000000 0.984375000000
vt 0.600074338868 0.984375000000
vt 0.600074338868 0.872407897870
vt 0.484375000000 0.872407897870
vt 0.484375000000 0.984375000000
vt 0.596342102130 0.984375000000
vt 0.596342102130 0.853746714181
vt 0.484375000000 0.853746714181
vt 0.484375000000 0.984375000000
vt 0.615003285819 0.984375000000
vt 0.615003285819 0.872407897870
vt 0.484375000000 0.872407897870
vt 0.125000000000 0.984375000000
vt 0.244431575606 0.984375000000
vt 0.244431575606 0.835085530493
vt 0.125000000000 0.835085530493
vt 0.125000000000 0.984375000000
vt 0.274289469507 0.984375000000
vt 0.274289469507 0.864943424394
vt 0.125000000000 0.864943424394
vt 0.125000000000 0.984375000000
vt 0.240699338868 0.984375000000
vt 0.240699338868 0.864943424394
vt 0.125000000000 0.864943424394
vt 0.125000000000 0.984375000000
vt 0.244431575606 0.984375000000
vt 0.244431575606 0.868675661132
vt 0.125000000000 0.868675661132
vt 0.125000000000 0.984375000000
vt 0.240699338868 0.984375000000
vt 0.240699338868 0.835085530493
vt 0.125000000000 0.835085530493
vt 0.125000000000 0.984375000000
vt 0.274289469507 0.984375000000
vt 0.274289469507 0.868675661132
vt 0.125000000000 0.868675661132
vt 0.656250000000 0.984375000000
vt 0.680882762469 0.984375000000
vt 0.680882762469 0.939588159148
vt 0.656250000000 0.939588159148
vt 0.656250000000 0.984375000000
vt 0.701036840852 0.984375000000
vt 0.701036840852 0.959742237531
vt 0.656250000000 0.959742237531
vt 0.656250000000 0.984375000000
vt 0.700215748770 0.984375000000
vt 0.700215748770 0.959742237531
vt 0.656250000000 0.959742237531
vt 0.656250000000 0.984375000000
vt 0.680882762469 0.984375000000
vt 0.680882762469 0.940409251230
vt 0.656250000000 0.940409251230
vt 0.656250000000 0.984375000000
vt 0.700215748770 0.984375000000
vt 0.700215748770 0.939588159148
vt 0.656250000000 0.939588159148
vt 0.656250000000 0.984375000000
vt 0.701036840852 0.984375000000
vt 0.701036840852 0.940409251230
vt 0.656250000000 0.940409251230
vt 0.125000000000 0.984375000000
vt 0.240699338868 0.984375000000
vt 0.240699338868 0.842550003968
vt 0.125000000000 0.842550003968
vt 0.125000000000 0.984375000000
vt 0.266824996032 0.984375000000
vt 0.266824996032 0.868675661132
vt 0.125000000000 0.868675661132
vt 0.125000000000 0.984375000000
vt 0.229502628655 0.984375000000
vt 0.229502628655 0.868675661132
vt 0.125000000000 0.868675661132
vt 0.125000000000 0.984375000000
vt 0.240699338868 0.984375000000
vt 0.240699338868 0.879872371345
vt 0.125000000000 0.879872371345
vt 0.125000000000 0.984375000000
vt 0.229502628655 0.984375000000
vt 0.229502628655 0.842550003968
vt 0.125000000000 0.842550003968
vt 0.125000000000 0.984375000000
vt 0.266824996032 0.984375000000
vt 0.266824996032 0.879872371345
vt 0.125000000000 0.879872371345
vt 0.125000000000 0.984375000000
vt 0.225770391917 0.984375000000
vt 0.225770391917 0.891069081558
vt 0.125000000000 0.891069081558
vt 0.125000000000 0.984375000000
vt 0.218305918442 0.984375000000
vt 0.218305918442 0.883604608083
vt 0.125000000000 0.883604608083
vt 0.125000000000 0.984375000000
vt 0.240699338868 0.984375000000
vt 0.240699338868 0.883604608083
vt 0.125000000000 0.883604608083
vt 0.125000000000 0.984375000000
vt 0.225770391917 0.984375000000
vt 0.225770391917 0.868675661132
vt 0.125000000000 0.868675661132
vt 0.125000000000 0.984375000000
vt 0.240699338868 0.984375000000
vt 0.240699338868 0.891069081558
vt 0.125000000000 0.891069081558
vt 0.125000000000 0.984375000000
vt 0.218305918442 0.984375000000
vt 0.218305918442 0.868675661132
vt 0.125000000000 0.868675661132
vt 0.656250000000 0.984375000000
vt 0.680882762469 0.984375000000
vt 0.680882762469 0.956383224467
vt 0.656250000000 0.956383224467
vt 0.656250000000 0.984375000000
vt 0.684241775533 0.984375000000
vt 0.684241775533 0.959742237531
vt 0.656250000000 0.959742237531
vt 0.656250000000 0.984375000000
vt 0.700215748770 0.984375000000
vt 0.700215748770 0.959742237531
vt 0.656250000000 0.959742237531
vt 0.656250000000 0.984375000000
vt 0.680882762469 0.984375000000
vt 0.680882762469 0.940409251230
vt 0.656250000000 0.940409251230
vt 0.656250000000 0.984375000000
vt 0.700215748770 0.984375000000
vt 0.700215748770 0.956383224467
vt 0.656250000000 0.956383224467
vt 0.656250000000 0.984375000000
vt 0.684241775533 0.984375000000
vt 0.684241775533 0.940409251230
vt 0.656250000000 0.940409251230
vt 0.484375000000 0.984375000000
vt 0.611271049081 0.984375000000
vt 0.611271049081 0.853746714181
vt 0.484375000000 0.853746714181
vt 0.484375000000 0.984375000000
vt 0.615003285819 0.984375000000
vt 0.615003285819 0.857478950919
vt 0.484375000000 0.857478950919
vt 0.484375000000 0.984375000000
vt 0.603806575606 0.984375000000
vt 0.603806575606 0.857478950919
vt 0.484375000000 0.857478950919
vt 0.484375000000 0.984375000000
vt 0.611271049081 0.984375000000
vt 0.611271049081 0.864943424394
vt 0.484375000000 0.864943424394
vt 0.484375000000 0.984375000000
vt 0.603806575606 0.984375000000
vt 0.603806575606 0.853746714181
vt 0.484375000000 0.853746714181
vt 0.484375000000 0.984375000000
vt 0.615003285819 0.984375000000
vt 0.615003285819 0.864943424394
vt 0.484375000000 0.864943424394
vt 0.125000000000 0.984375000000
vt 0.251896049081 0.984375000000
vt 0.251896049081 0.876140134607
vt 0.125000000000 0.876140134607
vt 0.125000000000 0.984375000000
vt 0.233234865393 0.984375000000
vt 0.233234865393 0.857478950919
vt 0.125000000000 0.857478950919
vt 0.125000000000 0.984375000000
vt 0.248163812343 0.984375000000
vt 0.248163812343 0.857478950919
vt 0.125000000000 0.857478950919
vt 0.125000000000 0.984375000000
vt 0.251896049081 0.984375000000
vt 0.251896049081 0.861211187657
vt 0.125000000000 0.861211187657
vt 0.125000000000 0.984375000000
vt 0.248163812343 0.984375000000
vt 0.248163812343 0.876140134607
vt 0.125000000000 0.876140134607
vt 0.125000000000 0.984375000000
vt 0.233234865393 0.984375000000
vt 0.233234865393 0.861211187657
vt 0.125000000000 0.861211187657
vt 0.125000000000 0.984375000000
vt 0.255628285819 0.984375000000
vt 0.255628285819 0.868675661132
vt 0.125000000000 0.868675661132
vt 0.125000000000 0.984375000000
vt 0.240699338868 0.984375000000
vt 0.240699338868 0.853746714181
vt 0.125000000000 0.853746714181
vt 0.125000000000 0.984375000000
vt 0.244431575606 0.984375000000
vt 0.244431575606 0.853746714181
vt 0.125000000000 0.853746714181
vt 0.125000000000 0.984375000000
vt 0.255628285819 0.984375000000
vt 0.255628285819 0.864943424394
vt 0.125000000000 0.864943424394
vt 0.125000000000 0.984375000000
vt 0.244431575606 0.984375000000
vt 0.244431575606 0.868675661132
vt 0.125000000000 0.868675661132
vt 0.125000000000 0.984375000000
vt 0.240699338868 0.984375000000
vt 0.240699338868 0.864943424394
vt 0.125000000000 0.864943424394
vt 0.656250000000 0.984375000000
vt 0.680882762469 0.984375000000
vt 0.680882762469 0.949665198340
vt 0.656250000000 0.949665198340
vt 0.656250000000 0.984375000000
vt 0.690959801660 0.984375000000
vt 0.690959801660 0.959742237531
vt 0.656250000000 0.959742237531
vt 0.656250000000 0.984375000000
vt 0.701633998730 0.984375000000
vt 0.701633998730 0.959742237531
vt 0.656250000000 0.959742237531
vt 0.656250000000 0.984375000000
vt 0.680882762469 0.984375000000
vt 0.680882762469 0.938991001270
vt 0.656250000000 0.938991001270
vt 0.656250000000 0.984375000000
vt 0.701633998730 0.984375000000
vt 0.701633998730 0.949665198340
vt 0.656250000000 0.949665198340
vt 0.656250000000 0.984375000000
vt 0.690959801660 0.984375000000
vt 0.690959801660 0.938991001270
vt 0.656250000000 0.938991001270
vt 0.125000000000 0.984375000000
vt 0.255628285819 0.984375000000
vt 0.255628285819 0.868675661132
vt 0.125000000000 0.868675661132
vt 0.125000000000 0.984375000000
vt 0.240699338868 0.984375000000
vt 0.240699338868 0.853746714181
vt 0.125000000000 0.853746714181
vt 0.125000000000 0.984375000000
vt 0.233234865393 0.984375000000
vt 0.233234865393 0.853746714181
vt 0.125000000000 0.853746714181
vt 0.125000000000 0.984375000000
vt 0.255628285819 0.984375000000
vt 0.255628285819 0.876140134607
vt 0.125000000000 0.876140134607
vt 0.125000000000 0.984375000000
vt 0.233234865393 0.984375000000
vt 0.233234865393 0.868675661132
vt 0.125000000000 0.868675661132
vt 0.125000000000 0.984375000000
vt 0.240699338868 0.984375000000
vt 0.240699338868 0.876140134607
vt 0.125000000000 0.876140134607
vt 0.484375000000 0.984375000000
vt 0.592609865393 0.984375000000
vt 0.592609865393 0.857478950919
vt 0.484375000000 0.857478950919
vt 0.484375000000 0.984375000000
vt 0.611271049081 0.984375000000
vt 0.611271049081 0.876140134607
vt 0.484375000000 0.876140134607
vt 0.484375000000 0.984375000000
vt 0.615003285819 0.984375000000
vt 0.615003285819 0.876140134607
vt 0.484375000000 0.876140134607
vt 0.484375000000 0.984375000000
vt 0.592609865393 0.984375000000
vt 0.592609865393 0.853746714181
vt 0.484375000000 0.853746714181
vt 0.484375000000 0.984375000000
vt 0.615003285819 0.984375000000
vt 0.615003285819 0.857478950919
vt 0.484375000000 0.857478950919
vt 0.484375000000 0.984375000000
vt 0.611271049081 0.984375000000
vt 0.611271049081 0.853746714181
vt 0.484375000000 0.853746714181
vt 0.656250000000 0.984375000000
vt 0.680882762469 0.984375000000
vt 0.680882762469 0.946306185276
vt 0.656250000000 0.946306185276
vt 0.656250000000 0.984375000000
vt 0.694318814724 0.984375000000
vt 0.694318814724 0.959742237531
vt 0.656250000000 0.959742237531
vt 0.656250000000 0.984375000000
vt 0.705888748611 0.984375000000
vt 0.705888748611 0.959742237531
vt 0.656250000000 0.959742237531
vt 0.656250000000 0.984375000000
vt 0.680882762469 0.984375000000
vt 0.680882762469 0.934736251389
vt 0.656250000000 0.934736251389
vt 0.656250000000 0.984375000000
vt 0.705888748611 0.984375000000
vt 0.705888748611 0.946306185276
vt 0.656250000000 0.946306185276
vt 0.656250000000 0.984375000000
vt 0.694318814724 0.984375000000
vt 0.694318814724 0.934736251389
vt 0.656250000000 0.934736251389
vt 0.125000000000 0.984375000000
vt 0.248163812343 0.984375000000
vt 0.248163812343 0.850014477443
vt 0.125000000000 0.850014477443
vt 0.125000000000 0.984375000000
vt 0.259360522557 0.984375000000
vt 0.259360522557 0.861211187657
vt 0.125000000000 0.861211187657
vt 0.125000000000 0.984375000000
vt 0.263092759294 0.984375000000
vt 0.263092759294 0.861211187657
vt 0.125000000000 0.861211187657
vt 0.125000000000 0.984375000000
vt 0.248163812343 0.984375000000
vt 0.248163812343 0.846282240706
vt 0.125000000000 0.846282240706
vt 0.125000000000 0.984375000000
vt 0.263092759294 0.984375000000
vt 0.263092759294 0.850014477443
vt 0.125000000000 0.850014477443
vt 0.125000000000 0.984375000000
vt 0.259360522557 0.984375000000
vt 0.259360522557 0.846282240706
vt 0.125000000000 0.846282240706
vt 0.125000000000 0.984375000000
vt 0.259360522557 0.984375000000
vt 0.259360522557 0.857478950919
vt 0.125000000000 0.857478950919
vt 0.125000000000 0.984375000000
vt 0.251896049081 0.984375000000
vt 0.251896049081 0.850014477443
vt 0.125000000000 0.850014477443
vt 0.125000000000 0.984375000000
vt 0.248163812343 0.984375000000
vt 0.248163812343 0.850014477443
vt 0.125000000000 0.850014477443
vt 0.125000000000 0.984375000000
vt 0.259360522557 0.984375000000
vt 0.259360522557 0.861211187657
vt 0.125000000000 0.861211187657
vt 0.125000000000 0.984375000000
vt 0.248163812343 0.984375000000
vt 0.248163812343 0.857478950919
vt 0.125000000000 0.857478950919
vt 0.125000000000 0.984375000000
vt 0.251896049081 0.984375000000
vt 0.251896049081 0.861211187657
vt 0.125000000000 0.861211187657
vt 0.125000000000 0.984375000000
vt 0.240699338868 0.984375000000
vt 0.240699338868 0.850014477443
vt 0.125000000000 0.850014477443
vt 0.125000000000 0.984375000000
vt 0.259360522557 0.984375000000
vt 0.259360522557 0.868675661132
vt 0.125000000000 0.868675661132
vt 0.125000000000 0.984375000000
vt 0.248163812343 0.984375000000
vt 0.248163812343 0.868675661132
vt 0.125000000000 0.868675661132
vt 0.125000000000 0.984375000000
vt 0.240699338868 0.984375000000
vt 0.240699338868 0.861211187657
vt 0.125000000000 0.861211187657
vt 0.125000000000 0.984375000000
vt 0.248163812343 0.984375000000
vt 0.248163812343 0.850014477443
vt 0.125000000000 0.850014477443
vt 0.125000000000 0.984375000000
vt 0.259360522557 0.984375000000
vt 0.259360522557 0.861211187657
vt 0.125000000000 0.861211187657
vt 0.484375000000 0.984375000000
vt 0.615003285819 0.984375000000
vt 0.615003285819 0.872407897870
vt 0.484375000000 0.872407897870
vt 0.484375000000 0.984375000000
vt 0.596342102130 0.984375000000
vt 0.596342102130 0.853746714181
vt 0.484375000000 0.853746714181
vt 0.484375000000 0.984375000000
vt 0.600074338868 0.984375000000
vt 0.600074338868 0.853746714181
vt 0.484375000000 0.853746714181
vt 0.484375000000 0.984375000000
vt 0.615003285819 0.984375000000
vt 0.615003285819 0.868675661132
vt 0.484375000000 0.868675661132
vt 0.484375000000 0.984375000000
vt 0.600074338868 0.984375000000
vt 0.600074338868 0.872407897870
vt 0.484375000000 0.872407897870
vt 0.484375000000 0.984375000000
vt 0.596342102130 0.984375000000
vt 0.596342102130 0.868675661132
vt 0.484375000000 0.868675661132
vt 0.656250000000 0.984375000000
vt 0.680882762469 0.984375000000
vt 0.680882762469 0.950784869361
vt 0.656250000000 0.950784869361
vt 0.656250000000 0.984375000000
vt 0.689840130639 0.984375000000
vt 0.689840130639 0.959742237531
vt 0.656250000000 0.959742237531
vt 0.656250000000 0.984375000000
vt 0.700215748770 0.984375000000
vt 0.700215748770 0.959742237531
vt 0.656250000000 0.959742237531
vt 0.656250000000 0.984375000000
vt 0.680882762469 0.984375000000
vt 0.680882762469 0.940409251230
vt 0.656250000000 0.940409251230
vt 0.656250000000 0.984375000000
vt 0.700215748770 0.984375000000
vt 0.700215748770 0.950784869361
vt 0.656250000000 0.950784869361
vt 0.656250000000 0.984375000000
vt 0.689840130639 0.984375000000
vt 0.689840130639 0.940409251230
vt 0.656250000000 0.940409251230
vt 0.125000000000 0.984375000000
vt 0.244431575606 0.984375000000
vt 0.244431575606 0.864943424394
vt 0.125000000000 0.864943424394
vt 0.125000000000 0.984375000000
vt 0.244431575606 0.984375000000
vt 0.244431575606 0.864943424394
vt 0.125000000000 0.864943424394
vt 0.125000000000 0.984375000000
vt 0.236967102130 0.984375000000
vt 0.236967102130 0.864943424394
vt 0.125000000000 0.864943424394
vt 0.125000000000 0.984375000000
vt 0.244431575606 0.984375000000
vt 0.244431575606 0.872407897870
vt 0.125000000000 0.872407897870
vt 0.125000000000 0.984375000000
vt 0.236967102130 0.984375000000
vt 0.236967102130 0.864943424394
vt 0.125000000000 0.864943424394
vt 0.125000000000 0.984375000000
vt 0.244431575606 0.984375000000
vt 0.244431575606 0.872407897870
vt 0.125000000000 0.872407897870
vt 0.125000000000 0.984375000000
vt 0.251896049081 0.984375000000
vt 0.251896049081 0.857478950919
vt 0.125000000000 0.857478950919
vt 0.125000000000 0.984375000000
vt 0.251896049081 0.984375000000
vt 0.251896049081 0.857478950919
vt 0.125000000000 0.857478950919
vt 0.125000000000 0.984375000000
vt 0.236967102130 0.984375000000
vt 0.236967102130 0.857478950919
vt 0.125000000000 0.857478950919
vt 0.125000000000 0.984375000000
vt 0.251896049081 0.984375000000
vt 0.251896049081 0.872407897870
vt 0.125000000000 0.872407897870
vt 0.125000000000 0.984375000000
vt 0.236967102130 0.984375000000
vt 0.236967102130 0.857478950919
vt 0.125000000000 0.857478950919
vt 0.125000000000 0.984375000000
vt 0.251896049081 0.984375000000
vt 0.251896049081 0.872407897870
vt 0.125000000000 0.872407897870
vt 0.656250000000 0.984375000000
vt 0.680882762469 0.984375000000
vt 0.680882762469 0.946306185276
vt 0.656250000000 0.946306185276
vt 0.656250000000 0.984375000000
vt 0.694318814724 0.984375000000
vt 0.694318814724 0.959742237531
vt 0.656250000000 0.959742237531
vt 0.656250000000 0.984375000000
vt 0.698797498810 0.984375000000
vt 0.698797498810 0.959742237531
vt 0.656250000000 0.959742237531
vt 0.656250000000 0.984375000000
vt 0.680882762469 0.984375000000
vt 0.680882762469 0.941827501190
vt 0.656250000000 0.941827501190
vt 0.656250000000 0.984375000000
vt 0.698797498810 0.984375000000
vt 0.698797498810 0.946306185276
vt 0.656250000000 0.946306185276
vt 0.656250000000 0.984375000000
vt 0.694318814724 0.984375000000
vt 0.694318814724 0.941827501190
vt 0.656250000000 0.941827501190
vt 0.125000000000 0.984375000000
vt 0.244431575606 0.984375000000
vt 0.244431575606 0.861211187657
vt 0.125000000000 0.861211187657
vt 0.125000000000 0.984375000000
vt 0.248163812343 0.984375000000
vt 0.248163812343 0.864943424394
vt 0.125000000000 0.864943424394
vt 0.125000000000 0.984375000000
vt 0.236967102130 0.984375000000
vt 0.236967102130 0.864943424394
vt 0.125000000000 0.864943424394
vt 0.125000000000 0.984375000000
vt 0.244431575606 0.984375000000
vt 0.244431575606 0.872407897870
vt 0.125000000000 0.872407897870
vt 0.125000000000 0.984375000000
vt 0.236967102130 0.984375000000
vt 0.236967102130 0.861211187657
vt 0.125000000000 0.861211187657
vt 0.125000000000 0.984375000000
vt 0.248163812343 0.984375000000
vt 0.248163812343 0.872407897870
vt 0.125000000000 0.872407897870
vt 0.484375000000 0.984375000000
vt 0.603806575606 0.984375000000
vt 0.603806575606 0.846282240706
vt 0.484375000000 0.846282240706
vt 0.484375000000 0.984375000000
vt 0.622467759294 0.984375000000
vt 0.622467759294 0.864943424394
vt 0.484375000000 0.864943424394
vt 0.484375000000 0.984375000000
vt 0.592609865393 0.984375000000
vt 0.592609865393 0.864943424394
vt 0.484375000000 0.864943424394
vt 0.484375000000 0.984375000000
vt 0.603806575606 0.984375000000
vt 0.603806575606 0.876140134607
vt 0.484375000000 0.876140134607
vt 0.484375000000 0.984375000000
vt 0.592609865393 0.984375000000
vt 0.592609865393 0.846282240706
vt 0.484375000000 0.846282240706
vt 0.484375000000 0.984375000000
vt 0.622467759294 0.984375000000
vt 0.622467759294 0.876140134607
vt 0.484375000000 0.876140134607
vt 0.125000000000 0.984375000000
vt 0.236967102130 0.984375000000
vt 0.236967102130 0.842550003968
vt 0.125000000000 0.842550003968
vt 0.125000000000 0.984375000000
vt 0.266824996032 0.984375000000
vt 0.266824996032 0.872407897870
vt 0.125000000000 0.872407897870
vt 0.125000000000 0.984375000000
vt 0.233234865393 0.984375000000
vt 0.233234865393 0.872407897870
vt 0.125000000000 0.872407897870
vt 0.125000000000 0.984375000000
vt 0.236967102130 0.984375000000
vt 0.236967102130 0.876140134607
vt 0.125000000000 0.876140134607
vt 0.125000000000 0.984375000000
vt 0.233234865393 0.984375000000
vt 0.233234865393 0.842550003968
vt 0.125000000000 0.842550003968
vt 0.125000000000 0.984375000000
vt 0.266824996032 0.984375000000
vt 0.266824996032 0.876140134607
vt 0.125000000000 0.876140134607
vt 0.656250000000 0.984375000000
vt 0.680882762469 0.984375000000
vt 0.680882762469 0.941827501190
vt 0.656250000000 0.941827501190
vt 0.656250000000 0.984375000000
vt 0.698797498810 0.984375000000
vt 0.698797498810 0.959742237531
vt 0.656250000000 0.959742237531
vt 0.656250000000 0.984375000000
vt 0.697379248849 0.984375000000
vt 0.697379248849 0.959742237531
vt 0.656250000000 0.959742237531
vt 0.656250000000 0.984375000000
vt 0.680882762469 0.984375000000
vt 0.680882762469 0.943245751151
vt 0.656250000000 0.943245751151
vt 0.656250000000 0.984375000000
vt 0.697379248849 0.984375000000
vt 0.697379248849 0.941827501190
vt 0.656250000000 0.941827501190
vt 0.656250000000 0.984375000000
vt 0.698797498810 0.984375000000
vt 0.698797498810 0.943245751151
vt 0.656250000000 0.943245751151
vt 0.125000000000 0.984375000000
vt 0.246989914827 0.984375000000
vt 0.246989914827 0.964967368964
vt 0.125000000000 0.964967368964
vt 0.125000000000 0.984375000000
vt 0.144407631036 0.984375000000
vt 0.144407631036 0.862385085173
vt 0.125000000000 0.862385085173
vt 0.125000000000 0.984375000000
vt 0.142168288993 0.984375000000
vt 0.142168288993 0.862385085173
vt 0.125000000000 0.862385085173
vt 0.125000000000 0.984375000000
vt 0.246989914827 0.984375000000
vt 0.246989914827 0.967206711007
vt 0.125000000000 0.967206711007
vt 0.125000000000 0.984375000000
vt 0.142168288993 0.984375000000
vt 0.142168288993 0.964967368964
vt 0.125000000000 0.964967368964
vt 0.125000000000 0.984375000000
vt 0.144407631036 0.984375000000
vt 0.144407631036 0.967206711007
vt 0.125000000000 0.967206711007
vt 0.484375000000 0.984375000000
vt 0.523563485746 0.984375000000
vt 0.523563485746 0.947052632623
vt 0.484375000000 0.947052632623
vt 0.484375000000 0.984375000000
vt 0.521697367377 0.984375000000
vt 0.521697367377 0.945186514254
vt 0.484375000000 0.945186514254
vt 0.484375000000 0.984375000000
vt 0.525429604114 0.984375000000
vt 0.525429604114 0.945186514254
vt 0.484375000000 0.945186514254
vt 0.484375000000 0.984375000000
vt 0.523563485746 0.984375000000
vt 0.523563485746 0.943320395886
vt 0.484375000000 0.943320395886
vt 0.484375000000 0.984375000000
vt 0.525429604114 0.984375000000
vt 0.525429604114 0.947052632623
vt 0.484375000000 0.947052632623
vt 0.484375000000 0.984375000000
vt 0.521697367377 0.984375000000
vt 0.521697367377 0.943320395886
vt 0.484375000000 0.943320395886
vt 0.656250000000 0.984375000000
vt 0.695438485746 0.984375000000
vt 0.695438485746 0.937722040779
vt 0.656250000000 0.937722040779
vt 0.656250000000 0.984375000000
vt 0.702902959221 0.984375000000
vt 0.702902959221 0.945186514254
vt 0.656250000000 0.945186514254
vt 0.656250000000 0.984375000000
vt 0.697304604114 0.984375000000
vt 0.697304604114 0.945186514254
vt 0.656250000000 0.945186514254
vt 0.656250000000 0.984375000000
vt 0.695438485746 0.984375000000
vt 0.695438485746 0.943320395886
vt 0.656250000000 0.943320395886
vt 0.656250000000 0.984375000000
vt 0.697304604114 0.984375000000
vt 0.697304604114 0.937722040779
vt 0.656250000000 0.937722040779
vt 0.656250000000 0.984375000000
vt 0.702902959221 0.984375000000
vt 0.702902959221 0.943320395886
vt 0.656250000000 0.943320395886
vt 0.484375000000 0.984375000000
vt 0.523563485746 0.984375000000
vt 0.523563485746 0.947052632623
vt 0.484375000000 0.947052632623
vt 0.484375000000 0.984375000000
vt 0.521697367377 0.984375000000
vt 0.521697367377 0.945186514254
vt 0.484375000000 0.945186514254
vt 0.484375000000 0.984375000000
vt 0.525429604114 0.984375000000
vt 0.525429604114 0.945186514254
vt 0.484375000000 0.945186514254
vt 0.484375000000 0.984375000000
vt 0.523563485746 0.984375000000
vt 0.523563485746 0.943320395886
vt 0.484375000000 0.943320395886
vt 0.484375000000 0.984375000000
vt 0.525429604114 0.984375000000
vt 0.525429604114 0.947052632623
vt 0.484375000000 0.947052632623
vt 0.484375000000 0.984375000000
vt 0.521697367377 0.984375000000
vt 0.521697367377 0.943320395886
vt 0.484375000000 0.943320395886
vt 0.656250000000 0.984375000000
vt 0.695438485746 0.984375000000
vt 0.695438485746 0.937722040779
vt 0.656250000000 0.937722040779
vt 0.656250000000 0.984375000000
vt 0.702902959221 0.984375000000
vt 0.702902959221 0.945186514254
vt 0.656250000000 0.945186514254
vt 0.656250000000 0.984375000000
vt 0.697304604114 0.984375000000
vt 0.697304604114 0.945186514254
vt 0.656250000000 0.945186514254
vt 0.656250000000 0.984375000000
vt 0.695438485746 0.984375000000
vt 0.695438485746 0.943320395886
vt 0.656250000000 0.943320395886
vt 0.656250000000 0.984375000000
vt 0.697304604114 0.984375000000
vt 0.697304604114 0.937722040779
vt 0.656250000000 0.937722040779
vt 0.656250000000 0.984375000000
vt 0.702902959221 0.984375000000
vt 0.702902959221 0.943320395886
vt 0.656250000000 0.943320395886
vt 0.484375000000 0.984375000000
vt 0.523563485746 0.984375000000
vt 0.523563485746 0.947052632623
vt 0.484375000000 0.947052632623
vt 0.484375000000 0.984375000000
vt 0.521697367377 0.984375000000
vt 0.521697367377 0.945186514254
vt 0.484375000000 0.945186514254
vt 0.484375000000 0.984375000000
vt 0.525429604114 0.984375000000
vt 0.525429604114 0.945186514254
vt 0.484375000000 0.945186514254
vt 0.484375000000 0.984375000000
vt 0.523563485746 0.984375000000
vt 0.523563485746 0.943320395886
vt 0.484375000000 0.943320395886
vt 0.484375000000 0.984375000000
vt 0.525429604114 0.984375000000
vt 0.525429604114 0.947052632623
vt 0.484375000000 0.947052632623
vt 0.484375000000 0.984375000000
vt 0.521697367377 0.984375000000
vt 0.521697367377 0.943320395886
vt 0.484375000000 0.943320395886
vt 0.656250000000 0.984375000000
vt 0.695438485746 0.984375000000
vt 0.695438485746 0.937722040779
vt 0.656250000000 0.937722040779
vt 0.656250000000 0.984375000000
vt 0.702902959221 0.984375000000
vt 0.702902959221 0.945186514254
vt 0.656250000000 0.945186514254
vt 0.656250000000 0.984375000000
vt 0.697304604114 0.984375000000
vt 0.697304604114 0.945186514254
vt 0.656250000000 0.945186514254
vt 0.656250000000 0.984375000000
vt 0.695438485746 0.984375000000
vt 0.695438485746 0.943320395886
vt 0.656250000000 0.943320395886
vt 0.656250000000 0.984375000000
vt 0.697304604114 0.984375000000
vt 0.697304604114 0.937722040779
vt 0.656250000000 0.937722040779
vt 0.656250000000 0.984375000000
vt 0.702902959221 0.984375000000
vt 0.702902959221 0.943320395886
vt 0.656250000000 0.943320395886
usemtl atlas
s off
g root
g body
g core
f 5/5 6/6 7/7
f 5/5 7/7 8/8
f 1/9 5/10 8/11
f 1/9 8/11 4/12
f 2/13 3/14 7/15
f 2/13 7/15 6/16
f 1/21 2/22 6/23
f 1/21 6/23 5/24
f 13/29 14/30 15/31
f 13/29 15/31 16/32
f 9/33 13/34 16/35
f 9/33 16/35 12/36
f 10/37 11/38 15/39
f 10/37 15/39 14/40
f 12/41 16/42 15/43
f 12/41 15/43 11/44
f 9/45 10/46 14/47
f 9/45 14/47 13/48
f 21/53 22/54 23/55
f 21/53 23/55 24/56
f 17/57 21/58 24/59
f 17/57 24/59 20/60
f 18/61 19/62 23/63
f 18/61 23/63 22/64
f 20/65 24/66 23/67
f 20/65 23/67 19/68
f 17/69 18/70 22/71
f 17/69 22/71 21/72
f 25/73 28/74 27/75
f 25/73 27/75 26/76
f 29/77 30/78 31/79
f 29/77 31/79 32/80
f 25/81 29/82 32/83
f 25/81 32/83 28/84
f 26/85 27/86 31/87
f 26/85 31/87 30/88
f 28/89 32/90 31/91
f 28/89 31/91 27/92
f 25/93 26/94 30/95
f 25/93 30/95 29/96
g clast_1
f 33/97 36/98 35/99
f 33/97 35/99 34/100
f 37/101 38/102 39/103
f 37/101 39/103 40/104
f 33/105 37/106 40/107
f 33/105 40/107 36/108
f 34/109 35/110 39/111
f 34/109 39/111 38/112
f 36/113 40/114 39/115
f 36/113 39/115 35/116
f 33/117 34/118 38/119
f 33/117 38/119 37/120
f 41/121 44/122 43/123
f 41/121 43/123 42/124
f 45/125 46/126 47/127
f 45/125 47/127 48/128
f 41/129 45/130 48/131
f 41/129 48/131 44/132
f 42/133 43/134 47/135
f 42/133 47/135 46/136
f 44/137 48/138 47/139
f 44/137 47/139 43/140
f 41/141 42/142 46/143
f 41/141 46/143 45/144
g clast_2
f 49/145 52/146 51/147
f 49/145 51/147 50/148
f 53/149 54/150 55/151
f 53/149 55/151 56/152
f 49/153 53/154 56/155
f 49/153 56/155 52/156
f 50/157 51/158 55/159
f 50/157 55/159 54/160
f 52/161 56/162 55/163
f 52/161 55/163 51/164
f 49/165 50/166 54/167
f 49/165 54/167 53/168
g clast_3
f 57/169 60/170 59/171
f 57/169 59/171 58/172
f 61/173 62/174 63/175
f 61/173 63/175 64/176
f 57/177 61/178 64/179
f 57/177 64/179 60/180
f 58/181 59/182 63/183
f 58/181 63/183 62/184
f 60/185 64/186 63/187
f 60/185 63/187 59/188
f 57/189 58/190 62/191
f 57/189 62/191 61/192
g clast_4
f 65/193 68/194 67/195
f 65/193 67/195 66/196
f 69/197 70/198 71/199
f 69/197 71/199 72/200
f 65/201 69/202 72/203
f 65/201 72/203 68/204
f 66/205 67/206 71/207
f 66/205 71/207 70/208
f 68/209 72/210 71/211
f 68/209 71/211 67/212
f 65/213 66/214 70/215
f 65/213 70/215 69/216
f 73/217 76/218 75/219
f 73/217 75/219 74/220
f 77/221 78/222 79/223
f 77/221 79/223 80/224
f 73/225 77/226 80/227
f 73/225 80/227 76/228
f 74/229 75/230 79/231
f 74/229 79/231 78/232
f 76/233 80/234 79/235
f 76/233 79/235 75/236
f 73/237 74/238 78/239
f 73/237 78/239 77/240
g clast_5
f 81/241 84/242 83/243
f 81/241 83/243 82/244
f 85/245 86/246 87/247
f 85/245 87/247 88/248
f 81/249 85/250 88/251
f 81/249 88/251 84/252
f 82/253 83/254 87/255
f 82/253 87/255 86/256
f 84/257 88/258 87/259
f 84/257 87/259 83/260
f 81/261 82/262 86/263
f 81/261 86/263 85/264
f 281/841 284/842 283/843
f 281/841 283/843 282/844
f 285/845 286/846 287/847
f 285/845 287/847 288/848
f 281/849 285/850 288/851
f 281/849 288/851 284/852
f 282/853 283/854 287/855
f 282/853 287/855 286/856
f 284/857 288/858 287/859
f 284/857 287/859 283/860
f 281/861 282/862 286/863
f 281/861 286/863 285/864
g clast_6
f 89/265 92/266 91/267
f 89/265 91/267 90/268
f 93/269 94/270 95/271
f 93/269 95/271 96/272
f 89/273 93/274 96/275
f 89/273 96/275 92/276
f 90/277 91/278 95/279
f 90/277 95/279 94/280
f 92/281 96/282 95/283
f 92/281 95/283 91/284
f 89/285 90/286 94/287
f 89/285 94/287 93/288
f 97/289 100/290 99/291
f 97/289 99/291 98/292
f 101/293 102/294 103/295
f 101/293 103/295 104/296
f 97/297 101/298 104/299
f 97/297 104/299 100/300
f 98/301 99/302 103/303
f 98/301 103/303 102/304
f 100/305 104/306 103/307
f 100/305 103/307 99/308
f 97/309 98/310 102/311
f 97/309 102/311 101/312
g clast_7
f 105/313 108/314 107/315
f 105/313 107/315 106/316
f 109/317 110/318 111/319
f 109/317 111/319 112/320
f 105/321 109/322 112/323
f 105/321 112/323 108/324
f 106/325 107/326 111/327
f 106/325 111/327 110/328
f 108/329 112/330 111/331
f 108/329 111/331 107/332
f 105/333 106/334 110/335
f 105/333 110/335 109/336
g clast_8
f 113/337 116/338 115/339
f 113/337 115/339 114/340
f 117/341 118/342 119/343
f 117/341 119/343 120/344
f 113/345 117/346 120/347
f 113/345 120/347 116/348
f 114/349 115/350 119/351
f 114/349 119/351 118/352
f 116/353 120/354 119/355
f 116/353 119/355 115/356
f 113/357 114/358 118/359
f 113/357 118/359 117/360
f 121/361 124/362 123/363
f 121/361 123/363 122/364
f 125/365 126/366 127/367
f 125/365 127/367 128/368
f 121/369 125/370 128/371
f 121/369 128/371 124/372
f 122/373 123/374 127/375
f 122/373 127/375 126/376
f 124/377 128/378 127/379
f 124/377 127/379 123/380
f 121/381 122/382 126/383
f 121/381 126/383 125/384
g clast_9
f 129/385 132/386 131/387
f 129/385 131/387 130/388
f 133/389 134/390 135/391
f 133/389 135/391 136/392
f 129/393 133/394 136/395
f 129/393 136/395 132/396
f 130/397 131/398 135/399
f 130/397 135/399 134/400
f 132/401 136/402 135/403
f 132/401 135/403 131/404
f 129/405 130/406 134/407
f 129/405 134/407 133/408
g clast_10
f 137/409 140/410 139/411
f 137/409 139/411 138/412
f 141/413 142/414 143/415
f 141/413 143/415 144/416
f 137/417 141/418 144/419
f 137/417 144/419 140/420
f 138/421 139/422 143/423
f 138/421 143/423 142/424
f 140/425 144/426 143/427
f 140/425 143/427 139/428
f 137/429 138/430 142/431
f 137/429 142/431 141/432
g clast_11
f 145/433 148/434 147/435
f 145/433 147/435 146/436
f 149/437 150/438 151/439
f 149/437 151/439 152/440
f 145/441 149/442 152/443
f 145/441 152/443 148/444
f 146/445 147/446 151/447
f 146/445 151/447 150/448
f 148/449 152/450 151/451
f 148/449 151/451 147/452
f 145/453 146/454 150/455
f 145/453 150/455 149/456
f 153/457 156/458 155/459
f 153/457 155/459 154/460
f 157/461 158/462 159/463
f 157/461 159/463 160/464
f 153/465 157/466 160/467
f 153/465 160/467 156/468
f 154/469 155/470 159/471
f 154/469 159/471 158/472
f 156/473 160/474 159/475
f 156/473 159/475 155/476
f 153/477 154/478 158/479
f 153/477 158/479 157/480
g clast_12
f 161/481 164/482 163/483
f 161/481 163/483 162/484
f 165/485 166/486 167/487
f 165/485 167/487 168/488
f 161/489 165/490 168/491
f 161/489 168/491 164/492
f 162/493 163/494 167/495
f 162/493 167/495 166/496
f 164/497 168/498 167/499
f 164/497 167/499 163/500
f 161/501 162/502 166/503
f 161/501 166/503 165/504
g clast_13
f 169/505 172/506 171/507
f 169/505 171/507 170/508
f 173/509 174/510 175/511
f 173/509 175/511 176/512
f 169/513 173/514 176/515
f 169/513 176/515 172/516
f 170/517 171/518 175/519
f 170/517 175/519 174/520
f 172/521 176/522 175/523
f 172/521 175/523 171/524
f 169/525 170/526 174/527
f 169/525 174/527 173/528
f 177/529 180/530 179/531
f 177/529 179/531 178/532
f 181/533 182/534 183/535
f 181/533 183/535 184/536
f 177/537 181/538 184/539
f 177/537 184/539 180/540
f 178/541 179/542 183/543
f 178/541 183/543 182/544
f 180/545 184/546 183/547
f 180/545 183/547 179/548
f 177/549 178/550 182/551
f 177/549 182/551 181/552
g clast_14
f 185/553 188/554 187/555
f 185/553 187/555 186/556
f 189/557 190/558 191/559
f 189/557 191/559 192/560
f 185/561 189/562 192/563
f 185/561 192/563 188/564
f 186/565 187/566 191/567
f 186/565 191/567 190/568
f 188/569 192/570 191/571
f 188/569 191/571 187/572
f 185/573 186/574 190/575
f 185/573 190/575 189/576
g clast_15
f 193/577 196/578 195/579
f 193/577 195/579 194/580
f 197/581 198/582 199/583
f 197/581 199/583 200/584
f 193/585 197/586 200/587
f 193/585 200/587 196/588
f 194/589 195/590 199/591
f 194/589 199/591 198/592
f 196/593 200/594 199/595
f 196/593 199/595 195/596
f 193/597 194/598 198/599
f 193/597 198/599 197/600
g clast_16
f 201/601 204/602 203/603
f 201/601 203/603 202/604
f 205/605 206/606 207/607
f 205/605 207/607 208/608
f 201/609 205/610 208/611
f 201/609 208/611 204/612
f 202/613 203/614 207/615
f 202/613 207/615 206/616
f 204/617 208/618 207/619
f 204/617 207/619 203/620
f 201/621 202/622 206/623
f 201/621 206/623 205/624
g clast_17
f 209/625 212/626 211/627
f 209/625 211/627 210/628
f 213/629 214/630 215/631
f 213/629 215/631 216/632
f 209/633 213/634 216/635
f 209/633 216/635 212/636
f 210/637 211/638 215/639
f 210/637 215/639 214/640
f 212/641 216/642 215/643
f 212/641 215/643 211/644
f 209/645 210/646 214/647
f 209/645 214/647 213/648
f 217/649 220/650 219/651
f 217/649 219/651 218/652
f 221/653 222/654 223/655
f 221/653 223/655 224/656
f 217/657 221/658 224/659
f 217/657 224/659 220/660
f 218/661 219/662 223/663
f 218/661 223/663 222/664
f 220/665 224/666 223/667
f 220/665 223/667 219/668
f 217/669 218/670 222/671
f 217/669 222/671 221/672
g clast_18
f 225/673 228/674 227/675
f 225/673 227/675 226/676
f 229/677 230/678 231/679
f 229/677 231/679 232/680
f 225/681 229/682 232/683
f 225/681 232/683 228/684
f 226/685 227/686 231/687
f 226/685 231/687 230/688
f 228/689 232/690 231/691
f 228/689 231/691 227/692
f 225/693 226/694 230/695
f 225/693 230/695 229/696
g clast_19
f 233/697 236/698 235/699
f 233/697 235/699 234/700
f 237/701 238/702 239/703
f 237/701 239/703 240/704
f 233/705 237/706 240/707
f 233/705 240/707 236/708
f 234/709 235/710 239/711
f 234/709 239/711 238/712
f 236/713 240/714 239/715
f 236/713 239/715 235/716
f 233/717 234/718 238/719
f 233/717 238/719 237/720
f 241/721 244/722 243/723
f 241/721 243/723 242/724
f 245/725 246/726 247/727
f 245/725 247/727 248/728
f 241/729 245/730 248/731
f 241/729 248/731 244/732
f 242/733 243/734 247/735
f 242/733 247/735 246/736
f 244/737 248/738 247/739
f 244/737 247/739 243/740
f 241/741 242/742 246/743
f 241/741 246/743 245/744
g clast_20
f 249/745 252/746 251/747
f 249/745 251/747 250/748
f 253/749 254/750 255/751
f 253/749 255/751 256/752
f 249/753 253/754 256/755
f 249/753 256/755 252/756
f 250/757 251/758 255/759
f 250/757 255/759 254/760
f 252/761 256/762 255/763
f 252/761 255/763 251/764
f 249/765 250/766 254/767
f 249/765 254/767 253/768
g clast_21
f 257/769 260/770 259/771
f 257/769 259/771 258/772
f 261/773 262/774 263/775
f 261/773 263/775 264/776
f 257/777 261/778 264/779
f 257/777 264/779 260/780
f 258/781 259/782 263/783
f 258/781 263/783 262/784
f 260/785 264/786 263/787
f 260/785 263/787 259/788
f 257/789 258/790 262/791
f 257/789 262/791 261/792
g clast_22
f 265/793 268/794 267/795
f 265/793 267/795 266/796
f 269/797 270/798 271/799
f 269/797 271/799 272/800
f 265/801 269/802 272/803
f 265/801 272/803 268/804
f 266/805 267/806 271/807
f 266/805 271/807 270/808
f 268/809 272/810 271/811
f 268/809 271/811 267/812
f 265/813 266/814 270/815
f 265/813 270/815 269/816
f 273/817 276/818 275/819
f 273/817 275/819 274/820
f 277/821 278/822 279/823
f 277/821 279/823 280/824
f 273/825 277/826 280/827
f 273/825 280/827 276/828
f 274/829 275/830 279/831
f 274/829 279/831 278/832
f 276/833 280/834 279/835
f 276/833 279/835 275/836
f 273/837 274/838 278/839
f 273/837 278/839 277/840
g loose_1
f 289/865 292/866 291/867
f 289/865 291/867 290/868
f 293/869 294/870 295/871
f 293/869 295/871 296/872
f 289/873 293/874 296/875
f 289/873 296/875 292/876
f 290/877 291/878 295/879
f 290/877 295/879 294/880
f 292/881 296/882 295/883
f 292/881 295/883 291/884
f 289/885 290/886 294/887
f 289/885 294/887 293/888
g loose_2
f 297/889 300/890 299/891
f 297/889 299/891 298/892
f 301/893 302/894 303/895
f 301/893 303/895 304/896
f 297/897 301/898 304/899
f 297/897 304/899 300/900
f 298/901 299/902 303/903
f 298/901 303/903 302/904
f 300/905 304/906 303/907
f 300/905 303/907 299/908
f 297/909 298/910 302/911
f 297/909 302/911 301/912
g loose_3
f 305/913 308/914 307/915
f 305/913 307/915 306/916
f 309/917 310/918 311/919
f 309/917 311/919 312/920
f 305/921 309/922 312/923
f 305/921 312/923 308/924
f 306/925 307/926 311/927
f 306/925 311/927 310/928
f 308/929 312/930 311/931
f 308/929 311/931 307/932
f 305/933 306/934 310/935
f 305/933 310/935 309/936
g loose_4
f 313/937 316/938 315/939
f 313/937 315/939 314/940
f 317/941 318/942 319/943
f 317/941 319/943 320/944
f 313/945 317/946 320/947
f 313/945 320/947 316/948
f 314/949 315/950 319/951
f 314/949 319/951 318/952
f 316/953 320/954 319/955
f 316/953 319/955 315/956
f 313/957 314/958 318/959
f 313/957 318/959 317/960
g loose_5
f 321/961 324/962 323/963
f 321/961 323/963 322/964
f 325/965 326/966 327/967
f 325/965 327/967 328/968
f 321/969 325/970 328/971
f 321/969 328/971 324/972
f 322/973 323/974 327/975
f 322/973 327/975 326/976
f 324/977 328/978 327/979
f 324/977 327/979 323/980
f 321/981 322/982 326/983
f 321/981 326/983 325/984
g loose_6
f 329/985 332/986 331/987
f 329/985 331/987 330/988
f 333/989 334/990 335/991
f 333/989 335/991 336/992
f 329/993 333/994 336/995
f 329/993 336/995 332/996
f 330/997 331/998 335/999
f 330/997 335/999 334/1000
f 332/1001 336/1002 335/1003
f 332/1001 335/1003 331/1004
f 329/1005 330/1006 334/1007
f 329/1005 334/1007 333/1008
g core__glow
f 1/1 4/2 3/3
f 1/1 3/3 2/4
f 4/17 8/18 7/19
f 4/17 7/19 3/20
f 9/25 12/26 11/27
f 9/25 11/27 10/28
f 17/49 20/50 19/51
f 17/49 19/51 18/52
