# GTO authored projectile: bullet_he - HE bullet (brass marking band, fuze spike)
# Generated by plan/model/authored/gen_bullet_he.py + plan/model/lib/model_lib
# Convention: Y-up, 1 unit = 1 block, long axis Z, nose toward +Z, lowest vertex y=0, X centered
# Pose: ProjectileObjRenderer yaw(Y)+pitch(X), NOSE_YAW_OFFSET_DEG=0, renderAll
# Groups: projectile (single static group, same as superseded legacy OBJ)
# 组: projectile
mtllib bullet_he.mtl
o bullet_he
usemtl bullet_he
g projectile
v 0.022961 0.049889 -0.300000
v 0.055433 0.082361 -0.300000
v 0.097007 0.065141 -0.260000
v 0.040182 0.008315 -0.260000
vt 0.312500 0.968750
vt 0.343750 0.968750
vt 0.343750 1.000000
vt 0.312500 1.000000
vn 0.490258 -0.490258 -0.720621
f 1/1/1 2/2/1 3/3/1
f 1/1/1 3/3/1 4/4/1
v 0.055433 0.128283 -0.300000
v 0.097007 0.145504 -0.260000
vt 0.312500 0.968750
vt 0.343750 0.968750
vt 0.343750 1.000000
vt 0.312500 1.000000
vn 0.693329 -0.000000 -0.720621
f 2/5/2 5/6/2 6/7/2
f 2/5/2 6/7/2 3/8/2
v 0.022961 0.160755 -0.300000
v 0.040182 0.202330 -0.260000
vt 0.312500 0.968750
vt 0.343750 0.968750
vt 0.343750 1.000000
vt 0.312500 1.000000
vn 0.490258 0.490258 -0.720621
f 5/9/3 7/10/3 8/11/3
f 5/9/3 8/11/3 6/12/3
v -0.022961 0.160755 -0.300000
v -0.040182 0.202330 -0.260000
vt 0.312500 0.968750
vt 0.343750 0.968750
vt 0.343750 1.000000
vt 0.312500 1.000000
vn -0.000000 0.693329 -0.720621
f 7/13/4 9/14/4 10/15/4
f 7/13/4 10/15/4 8/16/4
v -0.055433 0.128283 -0.300000
v -0.097007 0.145504 -0.260000
vt 0.312500 0.968750
vt 0.343750 0.968750
vt 0.343750 1.000000
vt 0.312500 1.000000
vn -0.490258 0.490258 -0.720621
f 9/17/5 11/18/5 12/19/5
f 9/17/5 12/19/5 10/20/5
v -0.055433 0.082361 -0.300000
v -0.097007 0.065141 -0.260000
vt 0.312500 0.968750
vt 0.343750 0.968750
vt 0.343750 1.000000
vt 0.312500 1.000000
vn -0.693329 0.000000 -0.720621
f 11/21/6 13/22/6 14/23/6
f 11/21/6 14/23/6 12/24/6
v -0.022961 0.049889 -0.300000
v -0.040182 0.008315 -0.260000
vt 0.312500 0.968750
vt 0.343750 0.968750
vt 0.343750 1.000000
vt 0.312500 1.000000
vn -0.490258 -0.490258 -0.720621
f 13/25/7 15/26/7 16/27/7
f 13/25/7 16/27/7 14/28/7
vt 0.312500 0.968750
vt 0.343750 0.968750
vt 0.343750 1.000000
vt 0.312500 1.000000
vn 0.000000 -0.693329 -0.720621
f 15/29/8 1/30/8 4/31/8
f 15/29/8 4/31/8 16/32/8
v 0.000000 0.105322 -0.300000
vt 0.406250 1.000000
vt 0.437500 1.000000
vt 0.437500 0.968750
vn 0.000000 -0.000000 -1.000000
f 17/33/9 2/34/9 1/35/9
vt 0.406250 1.000000
vt 0.437500 1.000000
vt 0.437500 0.968750
vn 0.000000 -0.000000 -1.000000
f 17/36/10 5/37/10 2/38/10
vt 0.406250 1.000000
vt 0.437500 1.000000
vt 0.437500 0.968750
vn 0.000000 -0.000000 -1.000000
f 17/39/11 7/40/11 5/41/11
vt 0.406250 1.000000
vt 0.437500 1.000000
vt 0.437500 0.968750
vn 0.000000 -0.000000 -1.000000
f 17/42/12 9/43/12 7/44/12
vt 0.406250 1.000000
vt 0.437500 1.000000
vt 0.437500 0.968750
vn 0.000000 -0.000000 -1.000000
f 17/45/13 11/46/13 9/47/13
vt 0.406250 1.000000
vt 0.437500 1.000000
vt 0.437500 0.968750
vn 0.000000 -0.000000 -1.000000
f 17/48/14 13/49/14 11/50/14
vt 0.406250 1.000000
vt 0.437500 1.000000
vt 0.437500 0.968750
vn 0.000000 -0.000000 -1.000000
f 17/51/15 15/52/15 13/53/15
vt 0.406250 1.000000
vt 0.437500 1.000000
vt 0.437500 0.968750
vn 0.000000 -0.000000 -1.000000
f 17/54/16 1/55/16 15/56/16
v 0.097007 0.065141 0.100000
v 0.040182 0.008315 0.100000
vt 0.000000 0.781250
vt 0.062500 0.781250
vt 0.062500 1.000000
vt 0.000000 1.000000
vn 0.707107 -0.707107 0.000000
f 4/57/17 3/58/17 18/59/17
f 4/57/17 18/59/17 19/60/17
v 0.097007 0.145504 0.100000
vt 0.000000 0.781250
vt 0.062500 0.781250
vt 0.062500 1.000000
vt 0.000000 1.000000
vn 1.000000 0.000000 0.000000
f 3/61/18 6/62/18 20/63/18
f 3/61/18 20/63/18 18/64/18
v 0.040182 0.202330 0.100000
vt 0.000000 0.781250
vt 0.062500 0.781250
vt 0.062500 1.000000
vt 0.000000 1.000000
vn 0.707107 0.707107 -0.000000
f 6/65/19 8/66/19 21/67/19
f 6/65/19 21/67/19 20/68/19
v -0.040182 0.202330 0.100000
vt 0.000000 0.781250
vt 0.062500 0.781250
vt 0.062500 1.000000
vt 0.000000 1.000000
vn 0.000000 1.000000 -0.000000
f 8/69/20 10/70/20 22/71/20
f 8/69/20 22/71/20 21/72/20
v -0.097007 0.145504 0.100000
vt 0.000000 0.781250
vt 0.062500 0.781250
vt 0.062500 1.000000
vt 0.000000 1.000000
vn -0.707107 0.707107 -0.000000
f 10/73/21 12/74/21 23/75/21
f 10/73/21 23/75/21 22/76/21
v -0.097007 0.065141 0.100000
vt 0.000000 0.781250
vt 0.062500 0.781250
vt 0.062500 1.000000
vt 0.000000 1.000000
vn -1.000000 0.000000 -0.000000
f 12/77/22 14/78/22 24/79/22
f 12/77/22 24/79/22 23/80/22
v -0.040182 0.008315 0.100000
vt 0.000000 0.781250
vt 0.062500 0.781250
vt 0.062500 1.000000
vt 0.000000 1.000000
vn -0.707107 -0.707107 0.000000
f 14/81/23 16/82/23 25/83/23
f 14/81/23 25/83/23 24/84/23
vt 0.000000 0.781250
vt 0.062500 0.781250
vt 0.062500 1.000000
vt 0.000000 1.000000
vn -0.000000 -1.000000 0.000000
f 16/85/24 4/86/24 19/87/24
f 16/85/24 19/87/24 25/88/24
v 0.043626 0.000000 -0.075000
v 0.105322 0.061696 -0.075000
v 0.105322 0.061696 -0.025000
v 0.043626 0.000000 -0.025000
vt 0.187500 0.968750
vt 0.250000 0.968750
vt 0.250000 1.000000
vt 0.187500 1.000000
vn 0.707107 -0.707107 0.000000
f 26/89/25 27/90/25 28/91/25
f 26/89/25 28/91/25 29/92/25
v 0.105322 0.148948 -0.075000
v 0.105322 0.148948 -0.025000
vt 0.187500 0.968750
vt 0.250000 0.968750
vt 0.250000 1.000000
vt 0.187500 1.000000
vn 1.000000 0.000000 0.000000
f 27/93/26 30/94/26 31/95/26
f 27/93/26 31/95/26 28/96/26
v 0.043626 0.210645 -0.075000
v 0.043626 0.210645 -0.025000
vt 0.187500 0.968750
vt 0.250000 0.968750
vt 0.250000 1.000000
vt 0.187500 1.000000
vn 0.707107 0.707107 -0.000000
f 30/97/27 32/98/27 33/99/27
f 30/97/27 33/99/27 31/100/27
v -0.043626 0.210645 -0.075000
v -0.043626 0.210645 -0.025000
vt 0.187500 0.968750
vt 0.250000 0.968750
vt 0.250000 1.000000
vt 0.187500 1.000000
vn 0.000000 1.000000 -0.000000
f 32/101/28 34/102/28 35/103/28
f 32/101/28 35/103/28 33/104/28
v -0.105322 0.148948 -0.075000
v -0.105322 0.148948 -0.025000
vt 0.187500 0.968750
vt 0.250000 0.968750
vt 0.250000 1.000000
vt 0.187500 1.000000
vn -0.707107 0.707107 -0.000000
f 34/105/29 36/106/29 37/107/29
f 34/105/29 37/107/29 35/108/29
v -0.105322 0.061696 -0.075000
v -0.105322 0.061696 -0.025000
vt 0.187500 0.968750
vt 0.250000 0.968750
vt 0.250000 1.000000
vt 0.187500 1.000000
vn -1.000000 0.000000 -0.000000
f 36/109/30 38/110/30 39/111/30
f 36/109/30 39/111/30 37/112/30
v -0.043626 0.000000 -0.075000
v -0.043626 0.000000 -0.025000
vt 0.187500 0.968750
vt 0.250000 0.968750
vt 0.250000 1.000000
vt 0.187500 1.000000
vn -0.707107 -0.707107 0.000000
f 38/113/31 40/114/31 41/115/31
f 38/113/31 41/115/31 39/116/31
vt 0.187500 0.968750
vt 0.250000 0.968750
vt 0.250000 1.000000
vt 0.187500 1.000000
vn -0.000000 -1.000000 0.000000
f 40/117/32 26/118/32 29/119/32
f 40/117/32 29/119/32 41/120/32
v 0.000000 0.105322 -0.025000
vt 0.062500 1.000000
vt 0.125000 1.000000
vt 0.125000 0.937500
vn 0.000000 0.000000 1.000000
f 42/121/33 29/122/33 28/123/33
vt 0.062500 1.000000
vt 0.125000 1.000000
vt 0.125000 0.937500
vn 0.000000 0.000000 1.000000
f 42/124/34 28/125/34 31/126/34
vt 0.062500 1.000000
vt 0.125000 1.000000
vt 0.125000 0.937500
vn 0.000000 0.000000 1.000000
f 42/127/35 31/128/35 33/129/35
vt 0.062500 1.000000
vt 0.125000 1.000000
vt 0.125000 0.937500
vn 0.000000 0.000000 1.000000
f 42/130/36 33/131/36 35/132/36
vt 0.062500 1.000000
vt 0.125000 1.000000
vt 0.125000 0.937500
vn 0.000000 0.000000 1.000000
f 42/133/37 35/134/37 37/135/37
vt 0.062500 1.000000
vt 0.125000 1.000000
vt 0.125000 0.937500
vn 0.000000 0.000000 1.000000
f 42/136/38 37/137/38 39/138/38
vt 0.062500 1.000000
vt 0.125000 1.000000
vt 0.125000 0.937500
vn 0.000000 0.000000 1.000000
f 42/139/39 39/140/39 41/141/39
vt 0.062500 1.000000
vt 0.125000 1.000000
vt 0.125000 0.937500
vn 0.000000 0.000000 1.000000
f 42/142/40 41/143/40 29/144/40
v 0.000000 0.105322 -0.075000
vt 0.062500 1.000000
vt 0.125000 1.000000
vt 0.125000 0.937500
vn 0.000000 -0.000000 -1.000000
f 43/145/41 27/146/41 26/147/41
vt 0.062500 1.000000
vt 0.125000 1.000000
vt 0.125000 0.937500
vn 0.000000 -0.000000 -1.000000
f 43/148/42 30/149/42 27/150/42
vt 0.062500 1.000000
vt 0.125000 1.000000
vt 0.125000 0.937500
vn 0.000000 -0.000000 -1.000000
f 43/151/43 32/152/43 30/153/43
vt 0.062500 1.000000
vt 0.125000 1.000000
vt 0.125000 0.937500
vn 0.000000 -0.000000 -1.000000
f 43/154/44 34/155/44 32/156/44
vt 0.062500 1.000000
vt 0.125000 1.000000
vt 0.125000 0.937500
vn 0.000000 -0.000000 -1.000000
f 43/157/45 36/158/45 34/159/45
vt 0.062500 1.000000
vt 0.125000 1.000000
vt 0.125000 0.937500
vn 0.000000 -0.000000 -1.000000
f 43/160/46 38/161/46 36/162/46
vt 0.062500 1.000000
vt 0.125000 1.000000
vt 0.125000 0.937500
vn 0.000000 -0.000000 -1.000000
f 43/163/47 40/164/47 38/165/47
vt 0.062500 1.000000
vt 0.125000 1.000000
vt 0.125000 0.937500
vn 0.000000 -0.000000 -1.000000
f 43/166/48 26/167/48 40/168/48
v 0.043243 0.000924 0.100000
v 0.104398 0.062079 0.100000
v 0.104398 0.062079 0.130000
v 0.043243 0.000924 0.130000
vt 0.187500 0.968750
vt 0.250000 0.968750
vt 0.250000 1.000000
vt 0.187500 1.000000
vn 0.707107 -0.707107 0.000000
f 44/169/49 45/170/49 46/171/49
f 44/169/49 46/171/49 47/172/49
v 0.104398 0.148565 0.100000
v 0.104398 0.148565 0.130000
vt 0.187500 0.968750
vt 0.250000 0.968750
vt 0.250000 1.000000
vt 0.187500 1.000000
vn 1.000000 0.000000 0.000000
f 45/173/50 48/174/50 49/175/50
f 45/173/50 49/175/50 46/176/50
v 0.043243 0.209721 0.100000
v 0.043243 0.209721 0.130000
vt 0.187500 0.968750
vt 0.250000 0.968750
vt 0.250000 1.000000
vt 0.187500 1.000000
vn 0.707107 0.707107 -0.000000
f 48/177/51 50/178/51 51/179/51
f 48/177/51 51/179/51 49/180/51
v -0.043243 0.209721 0.100000
v -0.043243 0.209721 0.130000
vt 0.187500 0.968750
vt 0.250000 0.968750
vt 0.250000 1.000000
vt 0.187500 1.000000
vn 0.000000 1.000000 -0.000000
f 50/181/52 52/182/52 53/183/52
f 50/181/52 53/183/52 51/184/52
v -0.104398 0.148565 0.100000
v -0.104398 0.148565 0.130000
vt 0.187500 0.968750
vt 0.250000 0.968750
vt 0.250000 1.000000
vt 0.187500 1.000000
vn -0.707107 0.707107 -0.000000
f 52/185/53 54/186/53 55/187/53
f 52/185/53 55/187/53 53/188/53
v -0.104398 0.062079 0.100000
v -0.104398 0.062079 0.130000
vt 0.187500 0.968750
vt 0.250000 0.968750
vt 0.250000 1.000000
vt 0.187500 1.000000
vn -1.000000 0.000000 -0.000000
f 54/189/54 56/190/54 57/191/54
f 54/189/54 57/191/54 55/192/54
v -0.043243 0.000924 0.100000
v -0.043243 0.000924 0.130000
vt 0.187500 0.968750
vt 0.250000 0.968750
vt 0.250000 1.000000
vt 0.187500 1.000000
vn -0.707107 -0.707107 0.000000
f 56/193/55 58/194/55 59/195/55
f 56/193/55 59/195/55 57/196/55
vt 0.187500 0.968750
vt 0.250000 0.968750
vt 0.250000 1.000000
vt 0.187500 1.000000
vn -0.000000 -1.000000 0.000000
f 58/197/56 44/198/56 47/199/56
f 58/197/56 47/199/56 59/200/56
v 0.000000 0.105322 0.130000
vt 0.062500 1.000000
vt 0.125000 1.000000
vt 0.125000 0.937500
vn 0.000000 0.000000 1.000000
f 60/201/57 47/202/57 46/203/57
vt 0.062500 1.000000
vt 0.125000 1.000000
vt 0.125000 0.937500
vn 0.000000 0.000000 1.000000
f 60/204/58 46/205/58 49/206/58
vt 0.062500 1.000000
vt 0.125000 1.000000
vt 0.125000 0.937500
vn 0.000000 0.000000 1.000000
f 60/207/59 49/208/59 51/209/59
vt 0.062500 1.000000
vt 0.125000 1.000000
vt 0.125000 0.937500
vn 0.000000 0.000000 1.000000
f 60/210/60 51/211/60 53/212/60
vt 0.062500 1.000000
vt 0.125000 1.000000
vt 0.125000 0.937500
vn 0.000000 0.000000 1.000000
f 60/213/61 53/214/61 55/215/61
vt 0.062500 1.000000
vt 0.125000 1.000000
vt 0.125000 0.937500
vn 0.000000 0.000000 1.000000
f 60/216/62 55/217/62 57/218/62
vt 0.062500 1.000000
vt 0.125000 1.000000
vt 0.125000 0.937500
vn 0.000000 0.000000 1.000000
f 60/219/63 57/220/63 59/221/63
vt 0.062500 1.000000
vt 0.125000 1.000000
vt 0.125000 0.937500
vn 0.000000 0.000000 1.000000
f 60/222/64 59/223/64 47/224/64
v 0.000000 0.105322 0.100000
vt 0.062500 1.000000
vt 0.125000 1.000000
vt 0.125000 0.937500
vn 0.000000 -0.000000 -1.000000
f 61/225/65 45/226/65 44/227/65
vt 0.062500 1.000000
vt 0.125000 1.000000
vt 0.125000 0.937500
vn 0.000000 -0.000000 -1.000000
f 61/228/66 48/229/66 45/230/66
vt 0.062500 1.000000
vt 0.125000 1.000000
vt 0.125000 0.937500
vn 0.000000 -0.000000 -1.000000
f 61/231/67 50/232/67 48/233/67
vt 0.062500 1.000000
vt 0.125000 1.000000
vt 0.125000 0.937500
vn 0.000000 -0.000000 -1.000000
f 61/234/68 52/235/68 50/236/68
vt 0.062500 1.000000
vt 0.125000 1.000000
vt 0.125000 0.937500
vn 0.000000 -0.000000 -1.000000
f 61/237/69 54/238/69 52/239/69
vt 0.062500 1.000000
vt 0.125000 1.000000
vt 0.125000 0.937500
vn 0.000000 -0.000000 -1.000000
f 61/240/70 56/241/70 54/242/70
vt 0.062500 1.000000
vt 0.125000 1.000000
vt 0.125000 0.937500
vn 0.000000 -0.000000 -1.000000
f 61/243/71 58/244/71 56/245/71
vt 0.062500 1.000000
vt 0.125000 1.000000
vt 0.125000 0.937500
vn 0.000000 -0.000000 -1.000000
f 61/246/72 44/247/72 58/248/72
v 0.083149 0.070881 0.185000
v 0.034442 0.022173 0.185000
vt 0.125000 0.937500
vt 0.187500 0.937500
vt 0.187500 1.000000
vt 0.125000 1.000000
vn 0.697892 -0.697892 0.160913
f 19/249/73 18/250/73 62/251/73
f 19/249/73 62/251/73 63/252/73
v 0.083149 0.139764 0.185000
vt 0.125000 0.937500
vt 0.187500 0.937500
vt 0.187500 1.000000
vt 0.125000 1.000000
vn 0.986969 0.000000 0.160913
f 18/253/74 20/254/74 64/255/74
f 18/253/74 64/255/74 62/256/74
v 0.034442 0.188471 0.185000
vt 0.125000 0.937500
vt 0.187500 0.937500
vt 0.187500 1.000000
vt 0.125000 1.000000
vn 0.697892 0.697892 0.160913
f 20/257/75 21/258/75 65/259/75
f 20/257/75 65/259/75 64/260/75
v -0.034442 0.188471 0.185000
vt 0.125000 0.937500
vt 0.187500 0.937500
vt 0.187500 1.000000
vt 0.125000 1.000000
vn 0.000000 0.986969 0.160913
f 21/261/76 22/262/76 66/263/76
f 21/261/76 66/263/76 65/264/76
v -0.083149 0.139764 0.185000
vt 0.125000 0.937500
vt 0.187500 0.937500
vt 0.187500 1.000000
vt 0.125000 1.000000
vn -0.697892 0.697892 0.160913
f 22/265/77 23/266/77 67/267/77
f 22/265/77 67/267/77 66/268/77
v -0.083149 0.070881 0.185000
vt 0.125000 0.937500
vt 0.187500 0.937500
vt 0.187500 1.000000
vt 0.125000 1.000000
vn -0.986969 0.000000 0.160913
f 23/269/78 24/270/78 68/271/78
f 23/269/78 68/271/78 67/272/78
v -0.034442 0.022173 0.185000
vt 0.125000 0.937500
vt 0.187500 0.937500
vt 0.187500 1.000000
vt 0.125000 1.000000
vn -0.697892 -0.697892 0.160913
f 24/273/79 25/274/79 69/275/79
f 24/273/79 69/275/79 68/276/79
vt 0.125000 0.937500
vt 0.187500 0.937500
vt 0.187500 1.000000
vt 0.125000 1.000000
vn 0.000000 -0.986969 0.160913
f 25/277/80 19/278/80 63/279/80
f 25/277/80 63/279/80 69/280/80
v 0.057281 0.081596 0.235000
v 0.023726 0.048042 0.235000
vt 0.250000 0.968750
vt 0.312500 0.968750
vt 0.312500 1.000000
vt 0.250000 1.000000
vn 0.628031 -0.628031 0.459515
f 63/281/81 62/282/81 70/283/81
f 63/281/81 70/283/81 71/284/81
v 0.057281 0.129049 0.235000
vt 0.250000 0.968750
vt 0.312500 0.968750
vt 0.312500 1.000000
vt 0.250000 1.000000
vn 0.888170 0.000000 0.459515
f 62/285/82 64/286/82 72/287/82
f 62/285/82 72/287/82 70/288/82
v 0.023726 0.162603 0.235000
vt 0.250000 0.968750
vt 0.312500 0.968750
vt 0.312500 1.000000
vt 0.250000 1.000000
vn 0.628031 0.628031 0.459515
f 64/289/83 65/290/83 73/291/83
f 64/289/83 73/291/83 72/292/83
v -0.023726 0.162603 0.235000
vt 0.250000 0.968750
vt 0.312500 0.968750
vt 0.312500 1.000000
vt 0.250000 1.000000
vn 0.000000 0.888170 0.459515
f 65/293/84 66/294/84 74/295/84
f 65/293/84 74/295/84 73/296/84
v -0.057281 0.129049 0.235000
vt 0.250000 0.968750
vt 0.312500 0.968750
vt 0.312500 1.000000
vt 0.250000 1.000000
vn -0.628031 0.628031 0.459515
f 66/297/85 67/298/85 75/299/85
f 66/297/85 75/299/85 74/300/85
v -0.057281 0.081596 0.235000
vt 0.250000 0.968750
vt 0.312500 0.968750
vt 0.312500 1.000000
vt 0.250000 1.000000
vn -0.888170 0.000000 0.459515
f 67/301/86 68/302/86 76/303/86
f 67/301/86 76/303/86 75/304/86
v -0.023726 0.048042 0.235000
vt 0.250000 0.968750
vt 0.312500 0.968750
vt 0.312500 1.000000
vt 0.250000 1.000000
vn -0.628031 -0.628031 0.459515
f 68/305/87 69/306/87 77/307/87
f 68/305/87 77/307/87 76/308/87
vt 0.250000 0.968750
vt 0.312500 0.968750
vt 0.312500 1.000000
vt 0.250000 1.000000
vn 0.000000 -0.888170 0.459515
f 69/309/88 63/310/88 71/311/88
f 69/309/88 71/311/88 77/312/88
v 0.031412 0.092311 0.245000
v 0.013011 0.073910 0.245000
vt 0.343750 0.968750
vt 0.375000 0.968750
vt 0.375000 1.000000
vt 0.343750 1.000000
vn 0.254958 -0.254958 0.932734
f 71/313/89 70/314/89 78/315/89
f 71/313/89 78/315/89 79/316/89
v 0.031412 0.118334 0.245000
vt 0.343750 0.968750
vt 0.375000 0.968750
vt 0.375000 1.000000
vt 0.343750 1.000000
vn 0.360566 0.000000 0.932734
f 70/317/90 72/318/90 80/319/90
f 70/317/90 80/319/90 78/320/90
v 0.013011 0.136734 0.245000
vt 0.343750 0.968750
vt 0.375000 0.968750
vt 0.375000 1.000000
vt 0.343750 1.000000
vn 0.254958 0.254958 0.932734
f 72/321/91 73/322/91 81/323/91
f 72/321/91 81/323/91 80/324/91
v -0.013011 0.136734 0.245000
vt 0.343750 0.968750
vt 0.375000 0.968750
vt 0.375000 1.000000
vt 0.343750 1.000000
vn 0.000000 0.360566 0.932734
f 73/325/92 74/326/92 82/327/92
f 73/325/92 82/327/92 81/328/92
v -0.031412 0.118334 0.245000
vt 0.343750 0.968750
vt 0.375000 0.968750
vt 0.375000 1.000000
vt 0.343750 1.000000
vn -0.254958 0.254958 0.932734
f 74/329/93 75/330/93 83/331/93
f 74/329/93 83/331/93 82/332/93
v -0.031412 0.092311 0.245000
vt 0.343750 0.968750
vt 0.375000 0.968750
vt 0.375000 1.000000
vt 0.343750 1.000000
vn -0.360566 0.000000 0.932734
f 75/333/94 76/334/94 84/335/94
f 75/333/94 84/335/94 83/336/94
v -0.013011 0.073910 0.245000
vt 0.343750 0.968750
vt 0.375000 0.968750
vt 0.375000 1.000000
vt 0.343750 1.000000
vn -0.254958 -0.254958 0.932734
f 76/337/95 77/338/95 85/339/95
f 76/337/95 85/339/95 84/340/95
vt 0.343750 0.968750
vt 0.375000 0.968750
vt 0.375000 1.000000
vt 0.343750 1.000000
vn -0.000000 -0.360566 0.932734
f 77/341/96 71/342/96 79/343/96
f 77/341/96 79/343/96 85/344/96
v 0.031412 0.092311 0.280000
v 0.013011 0.073910 0.280000
vt 0.312500 0.968750
vt 0.343750 0.968750
vt 0.343750 1.000000
vt 0.312500 1.000000
vn 0.707107 -0.707107 0.000000
f 79/345/97 78/346/97 86/347/97
f 79/345/97 86/347/97 87/348/97
v 0.031412 0.118334 0.280000
vt 0.312500 0.968750
vt 0.343750 0.968750
vt 0.343750 1.000000
vt 0.312500 1.000000
vn 1.000000 0.000000 0.000000
f 78/349/98 80/350/98 88/351/98
f 78/349/98 88/351/98 86/352/98
v 0.013011 0.136734 0.280000
vt 0.312500 0.968750
vt 0.343750 0.968750
vt 0.343750 1.000000
vt 0.312500 1.000000
vn 0.707107 0.707107 -0.000000
f 80/353/99 81/354/99 89/355/99
f 80/353/99 89/355/99 88/356/99
v -0.013011 0.136734 0.280000
vt 0.312500 0.968750
vt 0.343750 0.968750
vt 0.343750 1.000000
vt 0.312500 1.000000
vn 0.000000 1.000000 -0.000000
f 81/357/100 82/358/100 90/359/100
f 81/357/100 90/359/100 89/360/100
v -0.031412 0.118334 0.280000
vt 0.312500 0.968750
vt 0.343750 0.968750
vt 0.343750 1.000000
vt 0.312500 1.000000
vn -0.707107 0.707107 -0.000000
f 82/361/101 83/362/101 91/363/101
f 82/361/101 91/363/101 90/364/101
v -0.031412 0.092311 0.280000
vt 0.312500 0.968750
vt 0.343750 0.968750
vt 0.343750 1.000000
vt 0.312500 1.000000
vn -1.000000 0.000000 -0.000000
f 83/365/102 84/366/102 92/367/102
f 83/365/102 92/367/102 91/368/102
v -0.013011 0.073910 0.280000
vt 0.312500 0.968750
vt 0.343750 0.968750
vt 0.343750 1.000000
vt 0.312500 1.000000
vn -0.707107 -0.707107 0.000000
f 84/369/103 85/370/103 93/371/103
f 84/369/103 93/371/103 92/372/103
vt 0.312500 0.968750
vt 0.343750 0.968750
vt 0.343750 1.000000
vt 0.312500 1.000000
vn 0.000000 -1.000000 0.000000
f 85/373/104 79/374/104 87/375/104
f 85/373/104 87/375/104 93/376/104
v 0.000000 0.105322 0.280000
vt 0.375000 1.000000
vt 0.406250 1.000000
vt 0.406250 0.968750
vn 0.000000 0.000000 1.000000
f 94/377/105 87/378/105 86/379/105
vt 0.375000 1.000000
vt 0.406250 1.000000
vt 0.406250 0.968750
vn 0.000000 0.000000 1.000000
f 94/380/106 86/381/106 88/382/106
vt 0.375000 1.000000
vt 0.406250 1.000000
vt 0.406250 0.968750
vn 0.000000 0.000000 1.000000
f 94/383/107 88/384/107 89/385/107
vt 0.375000 1.000000
vt 0.406250 1.000000
vt 0.406250 0.968750
vn 0.000000 0.000000 1.000000
f 94/386/108 89/387/108 90/388/108
vt 0.375000 1.000000
vt 0.406250 1.000000
vt 0.406250 0.968750
vn 0.000000 0.000000 1.000000
f 94/389/109 90/390/109 91/391/109
vt 0.375000 1.000000
vt 0.406250 1.000000
vt 0.406250 0.968750
vn 0.000000 0.000000 1.000000
f 94/392/110 91/393/110 92/394/110
vt 0.375000 1.000000
vt 0.406250 1.000000
vt 0.406250 0.968750
vn 0.000000 0.000000 1.000000
f 94/395/111 92/396/111 93/397/111
vt 0.375000 1.000000
vt 0.406250 1.000000
vt 0.406250 0.968750
vn 0.000000 0.000000 1.000000
f 94/398/112 93/399/112 87/400/112
