# GTO authored projectile: casing - brass cartridge casing (flared mouth rim)
# Generated by plan/model/authored/gen_casing.py + plan/model/lib/model_lib
# Convention: Y-up, 1 unit = 1 block, long axis Z, mouth toward +Z (tail toward -Z),
#   lowest vertex y=0, X centered
# Size: length 0.12, dia 0.0528 (v0.2 was 0.10/0.044, scaled x1.2 per acceptance feedback)
# Pose: ProjectileObjRenderer yaw(Y)+pitch(X), NOSE_YAW_OFFSET_DEG=0, renderAll
# Groups: projectile (single static group, same as gen_bullet family)
# 组: projectile
mtllib casing.mtl
o casing
usemtl casing
g projectile
v 0.010103 0.003049 -0.060000
v 0.024390 0.017336 -0.060000
v 0.024390 0.017336 0.048000
v 0.010103 0.003049 0.048000
vt 0.000000 0.562500
vt 0.093750 0.562500
vt 0.093750 1.000000
vt 0.000000 1.000000
vn 0.707107 -0.707107 0.000000
f 1/1/1 2/2/1 3/3/1
f 1/1/1 3/3/1 4/4/1
v 0.024390 0.037542 -0.060000
v 0.024390 0.037542 0.048000
vt 0.000000 0.562500
vt 0.093750 0.562500
vt 0.093750 1.000000
vt 0.000000 1.000000
vn 1.000000 0.000000 0.000000
f 2/5/2 5/6/2 6/7/2
f 2/5/2 6/7/2 3/8/2
v 0.010103 0.051830 -0.060000
v 0.010103 0.051830 0.048000
vt 0.000000 0.562500
vt 0.093750 0.562500
vt 0.093750 1.000000
vt 0.000000 1.000000
vn 0.707107 0.707107 -0.000000
f 5/9/3 7/10/3 8/11/3
f 5/9/3 8/11/3 6/12/3
v -0.010103 0.051830 -0.060000
v -0.010103 0.051830 0.048000
vt 0.000000 0.562500
vt 0.093750 0.562500
vt 0.093750 1.000000
vt 0.000000 1.000000
vn 0.000000 1.000000 -0.000000
f 7/13/4 9/14/4 10/15/4
f 7/13/4 10/15/4 8/16/4
v -0.024390 0.037542 -0.060000
v -0.024390 0.037542 0.048000
vt 0.000000 0.562500
vt 0.093750 0.562500
vt 0.093750 1.000000
vt 0.000000 1.000000
vn -0.707107 0.707107 -0.000000
f 9/17/5 11/18/5 12/19/5
f 9/17/5 12/19/5 10/20/5
v -0.024390 0.017336 -0.060000
v -0.024390 0.017336 0.048000
vt 0.000000 0.562500
vt 0.093750 0.562500
vt 0.093750 1.000000
vt 0.000000 1.000000
vn -1.000000 0.000000 -0.000000
f 11/21/6 13/22/6 14/23/6
f 11/21/6 14/23/6 12/24/6
v -0.010103 0.003049 -0.060000
v -0.010103 0.003049 0.048000
vt 0.000000 0.562500
vt 0.093750 0.562500
vt 0.093750 1.000000
vt 0.000000 1.000000
vn -0.707107 -0.707107 0.000000
f 13/25/7 15/26/7 16/27/7
f 13/25/7 16/27/7 14/28/7
vt 0.000000 0.562500
vt 0.093750 0.562500
vt 0.093750 1.000000
vt 0.000000 1.000000
vn 0.000000 -1.000000 0.000000
f 15/29/8 1/30/8 4/31/8
f 15/29/8 4/31/8 16/32/8
v 0.000000 0.027439 -0.060000
vt 0.093750 1.000000
vt 0.218750 1.000000
vt 0.218750 0.875000
vn 0.000000 -0.000000 -1.000000
f 17/33/9 2/34/9 1/35/9
vt 0.093750 1.000000
vt 0.218750 1.000000
vt 0.218750 0.875000
vn 0.000000 -0.000000 -1.000000
f 17/36/10 5/37/10 2/38/10
vt 0.093750 1.000000
vt 0.218750 1.000000
vt 0.218750 0.875000
vn 0.000000 -0.000000 -1.000000
f 17/39/11 7/40/11 5/41/11
vt 0.093750 1.000000
vt 0.218750 1.000000
vt 0.218750 0.875000
vn 0.000000 -0.000000 -1.000000
f 17/42/12 9/43/12 7/44/12
vt 0.093750 1.000000
vt 0.218750 1.000000
vt 0.218750 0.875000
vn 0.000000 -0.000000 -1.000000
f 17/45/13 11/46/13 9/47/13
vt 0.093750 1.000000
vt 0.218750 1.000000
vt 0.218750 0.875000
vn 0.000000 -0.000000 -1.000000
f 17/48/14 13/49/14 11/50/14
vt 0.093750 1.000000
vt 0.218750 1.000000
vt 0.218750 0.875000
vn 0.000000 -0.000000 -1.000000
f 17/51/15 15/52/15 13/53/15
vt 0.093750 1.000000
vt 0.218750 1.000000
vt 0.218750 0.875000
vn 0.000000 -0.000000 -1.000000
f 17/54/16 1/55/16 15/56/16
v 0.027439 0.016074 0.060000
v 0.011366 0.000000 0.060000
vt 0.218750 0.937500
vt 0.312500 0.937500
vt 0.312500 1.000000
vt 0.218750 1.000000
vn 0.685334 -0.685334 -0.246244
f 4/57/17 3/58/17 18/59/17
f 4/57/17 18/59/17 19/60/17
v 0.027439 0.038805 0.060000
vt 0.218750 0.937500
vt 0.312500 0.937500
vt 0.312500 1.000000
vt 0.218750 1.000000
vn 0.969208 -0.000000 -0.246244
f 3/61/18 6/62/18 20/63/18
f 3/61/18 20/63/18 18/64/18
v 0.011366 0.054878 0.060000
vt 0.218750 0.937500
vt 0.312500 0.937500
vt 0.312500 1.000000
vt 0.218750 1.000000
vn 0.685334 0.685334 -0.246244
f 6/65/19 8/66/19 21/67/19
f 6/65/19 21/67/19 20/68/19
v -0.011366 0.054878 0.060000
vt 0.218750 0.937500
vt 0.312500 0.937500
vt 0.312500 1.000000
vt 0.218750 1.000000
vn 0.000000 0.969208 -0.246244
f 8/69/20 10/70/20 22/71/20
f 8/69/20 22/71/20 21/72/20
v -0.027439 0.038805 0.060000
vt 0.218750 0.937500
vt 0.312500 0.937500
vt 0.312500 1.000000
vt 0.218750 1.000000
vn -0.685334 0.685334 -0.246244
f 10/73/21 12/74/21 23/75/21
f 10/73/21 23/75/21 22/76/21
v -0.027439 0.016074 0.060000
vt 0.218750 0.937500
vt 0.312500 0.937500
vt 0.312500 1.000000
vt 0.218750 1.000000
vn -0.969208 0.000000 -0.246244
f 12/77/22 14/78/22 24/79/22
f 12/77/22 24/79/22 23/80/22
v -0.011366 0.000000 0.060000
vt 0.218750 0.937500
vt 0.312500 0.937500
vt 0.312500 1.000000
vt 0.218750 1.000000
vn -0.685334 -0.685334 -0.246244
f 14/81/23 16/82/23 25/83/23
f 14/81/23 25/83/23 24/84/23
vt 0.218750 0.937500
vt 0.312500 0.937500
vt 0.312500 1.000000
vt 0.218750 1.000000
vn 0.000000 -0.969208 -0.246244
f 16/85/24 4/86/24 19/87/24
f 16/85/24 19/87/24 25/88/24
v 0.000000 0.027439 0.060000
vt 0.093750 1.000000
vt 0.218750 1.000000
vt 0.218750 0.875000
vn 0.000000 0.000000 1.000000
f 26/89/25 19/90/25 18/91/25
vt 0.093750 1.000000
vt 0.218750 1.000000
vt 0.218750 0.875000
vn 0.000000 0.000000 1.000000
f 26/92/26 18/93/26 20/94/26
vt 0.093750 1.000000
vt 0.218750 1.000000
vt 0.218750 0.875000
vn 0.000000 0.000000 1.000000
f 26/95/27 20/96/27 21/97/27
vt 0.093750 1.000000
vt 0.218750 1.000000
vt 0.218750 0.875000
vn 0.000000 0.000000 1.000000
f 26/98/28 21/99/28 22/100/28
vt 0.093750 1.000000
vt 0.218750 1.000000
vt 0.218750 0.875000
vn 0.000000 0.000000 1.000000
f 26/101/29 22/102/29 23/103/29
vt 0.093750 1.000000
vt 0.218750 1.000000
vt 0.218750 0.875000
vn 0.000000 0.000000 1.000000
f 26/104/30 23/105/30 24/106/30
vt 0.093750 1.000000
vt 0.218750 1.000000
vt 0.218750 0.875000
vn 0.000000 0.000000 1.000000
f 26/107/31 24/108/31 25/109/31
vt 0.093750 1.000000
vt 0.218750 1.000000
vt 0.218750 0.875000
vn 0.000000 0.000000 1.000000
f 26/110/32 25/111/32 19/112/32
