# di-15 | final single-asset pipeline | blocks +Y up -Z front
mtllib di-15.mtl
v -0.340000000000 3.115000000000 -0.269825000000
v 0.340000000000 3.115000000000 -0.269825000000
v 0.340000000000 3.765000000000 -0.269825000000
v -0.340000000000 3.765000000000 -0.269825000000
v -0.340000000000 3.115000000000 0.280175000000
v 0.340000000000 3.115000000000 0.280175000000
v 0.340000000000 3.765000000000 0.280175000000
v -0.340000000000 3.765000000000 0.280175000000
v -0.344080000000 3.118500000000 -0.273125000000
v 0.344080000000 3.118500000000 -0.273125000000
v 0.344080000000 3.143500000000 -0.273125000000
v -0.344080000000 3.143500000000 -0.273125000000
v -0.344080000000 3.118500000000 0.283475000000
v 0.344080000000 3.118500000000 0.283475000000
v 0.344080000000 3.143500000000 0.283475000000
v -0.344080000000 3.143500000000 0.283475000000
v -0.344080000000 3.736500000000 -0.273125000000
v 0.344080000000 3.736500000000 -0.273125000000
v 0.344080000000 3.761500000000 -0.273125000000
v -0.344080000000 3.761500000000 -0.273125000000
v -0.344080000000 3.736500000000 0.283475000000
v 0.344080000000 3.736500000000 0.283475000000
v 0.344080000000 3.761500000000 0.283475000000
v -0.344080000000 3.761500000000 0.283475000000
v -0.201600000000 3.182750000000 -0.283475000000
v -0.165600000000 3.182750000000 -0.283475000000
v -0.165600000000 3.657250000000 -0.283475000000
v -0.201600000000 3.657250000000 -0.283475000000
v -0.201600000000 3.182750000000 -0.259475000000
v -0.165600000000 3.182750000000 -0.259475000000
v -0.165600000000 3.657250000000 -0.259475000000
v -0.201600000000 3.657250000000 -0.259475000000
v 0.165600000000 3.222750000000 -0.283475000000
v 0.201600000000 3.222750000000 -0.283475000000
v 0.201600000000 3.697250000000 -0.283475000000
v 0.165600000000 3.697250000000 -0.283475000000
v 0.165600000000 3.222750000000 -0.259475000000
v 0.201600000000 3.222750000000 -0.259475000000
v 0.201600000000 3.697250000000 -0.259475000000
v 0.165600000000 3.697250000000 -0.259475000000
v -0.540000000000 2.200000000000 -0.259825000000
v 0.540000000000 2.200000000000 -0.259825000000
v 0.540000000000 3.000000000000 -0.259825000000
v -0.540000000000 3.000000000000 -0.259825000000
v -0.540000000000 2.200000000000 0.270175000000
v 0.540000000000 2.200000000000 0.270175000000
v 0.540000000000 3.000000000000 0.270175000000
v -0.540000000000 3.000000000000 0.270175000000
v -0.546480000000 2.203500000000 -0.263005000000
v 0.546480000000 2.203500000000 -0.263005000000
v 0.546480000000 2.228500000000 -0.263005000000
v -0.546480000000 2.228500000000 -0.263005000000
v -0.546480000000 2.203500000000 0.273355000000
v 0.546480000000 2.203500000000 0.273355000000
v 0.546480000000 2.228500000000 0.273355000000
v -0.546480000000 2.228500000000 0.273355000000
v -0.546480000000 2.971500000000 -0.263005000000
v 0.546480000000 2.971500000000 -0.263005000000
v 0.546480000000 2.996500000000 -0.263005000000
v -0.546480000000 2.996500000000 -0.263005000000
v -0.546480000000 2.971500000000 0.273355000000
v 0.546480000000 2.971500000000 0.273355000000
v 0.546480000000 2.996500000000 0.273355000000
v -0.546480000000 2.996500000000 0.273355000000
v -0.309600000000 2.288000000000 -0.273415000000
v -0.273600000000 2.288000000000 -0.273415000000
v -0.273600000000 2.872000000000 -0.273415000000
v -0.309600000000 2.872000000000 -0.273415000000
v -0.309600000000 2.288000000000 -0.249415000000
v -0.273600000000 2.288000000000 -0.249415000000
v -0.273600000000 2.872000000000 -0.249415000000
v -0.309600000000 2.872000000000 -0.249415000000
v 0.273600000000 2.328000000000 -0.273415000000
v 0.309600000000 2.328000000000 -0.273415000000
v 0.309600000000 2.912000000000 -0.273415000000
v 0.273600000000 2.912000000000 -0.273415000000
v 0.273600000000 2.328000000000 -0.249415000000
v 0.309600000000 2.328000000000 -0.249415000000
v 0.309600000000 2.912000000000 -0.249415000000
v 0.273600000000 2.912000000000 -0.249415000000
v -0.400000000000 1.700000000000 -0.209825000000
v 0.400000000000 1.700000000000 -0.209825000000
v 0.400000000000 2.100000000000 -0.209825000000
v -0.400000000000 2.100000000000 -0.209825000000
v -0.400000000000 1.700000000000 0.270175000000
v 0.400000000000 1.700000000000 0.270175000000
v 0.400000000000 2.100000000000 0.270175000000
v -0.400000000000 2.100000000000 0.270175000000
v -0.404800000000 1.703500000000 -0.212705000000
v 0.404800000000 1.703500000000 -0.212705000000
v 0.404800000000 1.728500000000 -0.212705000000
v -0.404800000000 1.728500000000 -0.212705000000
v -0.404800000000 1.703500000000 0.273055000000
v 0.404800000000 1.703500000000 0.273055000000
v 0.404800000000 1.728500000000 0.273055000000
v -0.404800000000 1.728500000000 0.273055000000
v -0.404800000000 2.071500000000 -0.212705000000
v 0.404800000000 2.071500000000 -0.212705000000
v 0.404800000000 2.096500000000 -0.212705000000
v -0.404800000000 2.096500000000 -0.212705000000
v -0.404800000000 2.071500000000 0.273055000000
v 0.404800000000 2.071500000000 0.273055000000
v 0.404800000000 2.096500000000 0.273055000000
v -0.404800000000 2.096500000000 0.273055000000
v -0.234000000000 1.734000000000 -0.223265000000
v -0.198000000000 1.734000000000 -0.223265000000
v -0.198000000000 2.026000000000 -0.223265000000
v -0.234000000000 2.026000000000 -0.223265000000
v -0.234000000000 1.734000000000 -0.199265000000
v -0.198000000000 1.734000000000 -0.199265000000
v -0.198000000000 2.026000000000 -0.199265000000
v -0.234000000000 2.026000000000 -0.199265000000
v 0.198000000000 1.774000000000 -0.223265000000
v 0.234000000000 1.774000000000 -0.223265000000
v 0.234000000000 2.066000000000 -0.223265000000
v 0.198000000000 2.066000000000 -0.223265000000
v 0.198000000000 1.774000000000 -0.199265000000
v 0.234000000000 1.774000000000 -0.199265000000
v 0.234000000000 2.066000000000 -0.199265000000
v 0.198000000000 2.066000000000 -0.199265000000
v -0.970000000000 1.405000000000 -0.164825000000
v -0.650000000000 1.405000000000 -0.164825000000
v -0.650000000000 2.955000000000 -0.164825000000
v -0.970000000000 2.955000000000 -0.164825000000
v -0.970000000000 1.405000000000 0.175175000000
v -0.650000000000 1.405000000000 0.175175000000
v -0.650000000000 2.955000000000 0.175175000000
v -0.970000000000 2.955000000000 0.175175000000
v -0.971920000000 1.408500000000 -0.166865000000
v -0.648080000000 1.408500000000 -0.166865000000
v -0.648080000000 1.433500000000 -0.166865000000
v -0.971920000000 1.433500000000 -0.166865000000
v -0.971920000000 1.408500000000 0.177215000000
v -0.648080000000 1.408500000000 0.177215000000
v -0.648080000000 1.433500000000 0.177215000000
v -0.971920000000 1.433500000000 0.177215000000
v -0.971920000000 2.926500000000 -0.166865000000
v -0.648080000000 2.926500000000 -0.166865000000
v -0.648080000000 2.951500000000 -0.166865000000
v -0.971920000000 2.951500000000 -0.166865000000
v -0.971920000000 2.926500000000 0.177215000000
v -0.648080000000 2.926500000000 0.177215000000
v -0.648080000000 2.951500000000 0.177215000000
v -0.971920000000 2.951500000000 0.177215000000
v -0.914400000000 1.594250000000 -0.177845000000
v -0.878400000000 1.594250000000 -0.177845000000
v -0.878400000000 2.725750000000 -0.177845000000
v -0.914400000000 2.725750000000 -0.177845000000
v -0.914400000000 1.594250000000 -0.153845000000
v -0.878400000000 1.594250000000 -0.153845000000
v -0.878400000000 2.725750000000 -0.153845000000
v -0.914400000000 2.725750000000 -0.153845000000
v -0.741600000000 1.634250000000 -0.177845000000
v -0.705600000000 1.634250000000 -0.177845000000
v -0.705600000000 2.765750000000 -0.177845000000
v -0.741600000000 2.765750000000 -0.177845000000
v -0.741600000000 1.634250000000 -0.153845000000
v -0.705600000000 1.634250000000 -0.153845000000
v -0.705600000000 2.765750000000 -0.153845000000
v -0.741600000000 2.765750000000 -0.153845000000
v 0.650000000000 1.405000000000 -0.164825000000
v 0.970000000000 1.405000000000 -0.164825000000
v 0.970000000000 2.955000000000 -0.164825000000
v 0.650000000000 2.955000000000 -0.164825000000
v 0.650000000000 1.405000000000 0.175175000000
v 0.970000000000 1.405000000000 0.175175000000
v 0.970000000000 2.955000000000 0.175175000000
v 0.650000000000 2.955000000000 0.175175000000
v 0.648080000000 1.408500000000 -0.166865000000
v 0.971920000000 1.408500000000 -0.166865000000
v 0.971920000000 1.433500000000 -0.166865000000
v 0.648080000000 1.433500000000 -0.166865000000
v 0.648080000000 1.408500000000 0.177215000000
v 0.971920000000 1.408500000000 0.177215000000
v 0.971920000000 1.433500000000 0.177215000000
v 0.648080000000 1.433500000000 0.177215000000
v 0.648080000000 2.926500000000 -0.166865000000
v 0.971920000000 2.926500000000 -0.166865000000
v 0.971920000000 2.951500000000 -0.166865000000
v 0.648080000000 2.951500000000 -0.166865000000
v 0.648080000000 2.926500000000 0.177215000000
v 0.971920000000 2.926500000000 0.177215000000
v 0.971920000000 2.951500000000 0.177215000000
v 0.648080000000 2.951500000000 0.177215000000
v 0.705600000000 1.594250000000 -0.177845000000
v 0.741600000000 1.594250000000 -0.177845000000
v 0.741600000000 2.725750000000 -0.177845000000
v 0.705600000000 2.725750000000 -0.177845000000
v 0.705600000000 1.594250000000 -0.153845000000
v 0.741600000000 1.594250000000 -0.153845000000
v 0.741600000000 2.725750000000 -0.153845000000
v 0.705600000000 2.725750000000 -0.153845000000
v 0.878400000000 1.634250000000 -0.177845000000
v 0.914400000000 1.634250000000 -0.177845000000
v 0.914400000000 2.765750000000 -0.177845000000
v 0.878400000000 2.765750000000 -0.177845000000
v 0.878400000000 1.634250000000 -0.153845000000
v 0.914400000000 1.634250000000 -0.153845000000
v 0.914400000000 2.765750000000 -0.153845000000
v 0.878400000000 2.765750000000 -0.153845000000
v -0.420000000000 0.000000000000 -0.159825000000
v -0.070000000000 0.000000000000 -0.159825000000
v -0.070000000000 1.600000000000 -0.159825000000
v -0.420000000000 1.600000000000 -0.159825000000
v -0.420000000000 0.000000000000 0.220175000000
v -0.070000000000 0.000000000000 0.220175000000
v -0.070000000000 1.600000000000 0.220175000000
v -0.420000000000 1.600000000000 0.220175000000
v -0.422100000000 0.003500000000 -0.162105000000
v -0.067900000000 0.003500000000 -0.162105000000
v -0.067900000000 0.028500000000 -0.162105000000
v -0.422100000000 0.028500000000 -0.162105000000
v -0.422100000000 0.003500000000 0.222455000000
v -0.067900000000 0.003500000000 0.222455000000
v -0.067900000000 0.028500000000 0.222455000000
v -0.422100000000 0.028500000000 0.222455000000
v -0.422100000000 1.571500000000 -0.162105000000
v -0.067900000000 1.571500000000 -0.162105000000
v -0.067900000000 1.596500000000 -0.162105000000
v -0.422100000000 1.596500000000 -0.162105000000
v -0.422100000000 1.571500000000 0.222455000000
v -0.067900000000 1.571500000000 0.222455000000
v -0.067900000000 1.596500000000 0.222455000000
v -0.422100000000 1.596500000000 0.222455000000
v -0.357500000000 0.196000000000 -0.172965000000
v -0.321500000000 0.196000000000 -0.172965000000
v -0.321500000000 1.364000000000 -0.172965000000
v -0.357500000000 1.364000000000 -0.172965000000
v -0.357500000000 0.196000000000 -0.148965000000
v -0.321500000000 0.196000000000 -0.148965000000
v -0.321500000000 1.364000000000 -0.148965000000
v -0.357500000000 1.364000000000 -0.148965000000
v -0.168500000000 0.236000000000 -0.172965000000
v -0.132500000000 0.236000000000 -0.172965000000
v -0.132500000000 1.404000000000 -0.172965000000
v -0.168500000000 1.404000000000 -0.172965000000
v -0.168500000000 0.236000000000 -0.148965000000
v -0.132500000000 0.236000000000 -0.148965000000
v -0.132500000000 1.404000000000 -0.148965000000
v -0.168500000000 1.404000000000 -0.148965000000
v 0.070000000000 0.000000000000 -0.159825000000
v 0.420000000000 0.000000000000 -0.159825000000
v 0.420000000000 1.600000000000 -0.159825000000
v 0.070000000000 1.600000000000 -0.159825000000
v 0.070000000000 0.000000000000 0.220175000000
v 0.420000000000 0.000000000000 0.220175000000
v 0.420000000000 1.600000000000 0.220175000000
v 0.070000000000 1.600000000000 0.220175000000
v 0.067900000000 0.003500000000 -0.162105000000
v 0.422100000000 0.003500000000 -0.162105000000
v 0.422100000000 0.028500000000 -0.162105000000
v 0.067900000000 0.028500000000 -0.162105000000
v 0.067900000000 0.003500000000 0.222455000000
v 0.422100000000 0.003500000000 0.222455000000
v 0.422100000000 0.028500000000 0.222455000000
v 0.067900000000 0.028500000000 0.222455000000
v 0.067900000000 1.571500000000 -0.162105000000
v 0.422100000000 1.571500000000 -0.162105000000
v 0.422100000000 1.596500000000 -0.162105000000
v 0.067900000000 1.596500000000 -0.162105000000
v 0.067900000000 1.571500000000 0.222455000000
v 0.422100000000 1.571500000000 0.222455000000
v 0.422100000000 1.596500000000 0.222455000000
v 0.067900000000 1.596500000000 0.222455000000
v 0.132500000000 0.196000000000 -0.172965000000
v 0.168500000000 0.196000000000 -0.172965000000
v 0.168500000000 1.364000000000 -0.172965000000
v 0.132500000000 1.364000000000 -0.172965000000
v 0.132500000000 0.196000000000 -0.148965000000
v 0.168500000000 0.196000000000 -0.148965000000
v 0.168500000000 1.364000000000 -0.148965000000
v 0.132500000000 1.364000000000 -0.148965000000
v 0.321500000000 0.236000000000 -0.172965000000
v 0.357500000000 0.236000000000 -0.172965000000
v 0.357500000000 1.404000000000 -0.172965000000
v 0.321500000000 1.404000000000 -0.172965000000
v 0.321500000000 0.236000000000 -0.148965000000
v 0.357500000000 0.236000000000 -0.148965000000
v 0.357500000000 1.404000000000 -0.148965000000
v 0.321500000000 1.404000000000 -0.148965000000
v -0.135000000000 3.014500000000 -0.114825000000
v 0.135000000000 3.014500000000 -0.114825000000
v 0.135000000000 3.109500000000 -0.114825000000
v -0.135000000000 3.109500000000 -0.114825000000
v -0.135000000000 3.014500000000 0.125175000000
v 0.135000000000 3.014500000000 0.125175000000
v 0.135000000000 3.109500000000 0.125175000000
v -0.135000000000 3.109500000000 0.125175000000
v -0.205000000000 2.110500000000 -0.154825000000
v 0.205000000000 2.110500000000 -0.154825000000
v 0.205000000000 2.185500000000 -0.154825000000
v -0.205000000000 2.185500000000 -0.154825000000
v -0.205000000000 2.110500000000 0.165175000000
v 0.205000000000 2.110500000000 0.165175000000
v 0.205000000000 2.185500000000 0.165175000000
v -0.205000000000 2.185500000000 0.165175000000
v -0.345000000000 1.619000000000 -0.079825000000
v -0.145000000000 1.619000000000 -0.079825000000
v -0.145000000000 1.683000000000 -0.079825000000
v -0.345000000000 1.683000000000 -0.079825000000
v -0.345000000000 1.619000000000 0.140175000000
v -0.145000000000 1.619000000000 0.140175000000
v -0.145000000000 1.683000000000 0.140175000000
v -0.345000000000 1.683000000000 0.140175000000
v 0.145000000000 1.619000000000 -0.079825000000
v 0.345000000000 1.619000000000 -0.079825000000
v 0.345000000000 1.683000000000 -0.079825000000
v 0.145000000000 1.683000000000 -0.079825000000
v 0.145000000000 1.619000000000 0.140175000000
v 0.345000000000 1.619000000000 0.140175000000
v 0.345000000000 1.683000000000 0.140175000000
v 0.145000000000 1.683000000000 0.140175000000
v -0.651000000000 2.710000000000 -0.104825000000
v -0.551000000000 2.710000000000 -0.104825000000
v -0.551000000000 2.950000000000 -0.104825000000
v -0.651000000000 2.950000000000 -0.104825000000
v -0.651000000000 2.710000000000 0.115175000000
v -0.551000000000 2.710000000000 0.115175000000
v -0.551000000000 2.950000000000 0.115175000000
v -0.651000000000 2.950000000000 0.115175000000
v 0.551000000000 2.710000000000 -0.104825000000
v 0.651000000000 2.710000000000 -0.104825000000
v 0.651000000000 2.950000000000 -0.104825000000
v 0.551000000000 2.950000000000 -0.104825000000
v 0.551000000000 2.710000000000 0.115175000000
v 0.651000000000 2.710000000000 0.115175000000
v 0.651000000000 2.950000000000 0.115175000000
v 0.551000000000 2.950000000000 0.115175000000
v -0.125000000000 2.118000000000 0.165175000000
v 0.125000000000 2.118000000000 0.165175000000
v 0.125000000000 2.178000000000 0.165175000000
v -0.125000000000 2.178000000000 0.165175000000
v -0.125000000000 2.118000000000 0.225175000000
v 0.125000000000 2.118000000000 0.225175000000
v 0.125000000000 2.178000000000 0.225175000000
v -0.125000000000 2.178000000000 0.225175000000
v -0.041666666667 3.777000000000 -0.008825000000
v 0.041666666667 3.777000000000 -0.008825000000
v 0.041666666667 5.500000000000 -0.008825000000
v -0.041666666667 5.500000000000 -0.008825000000
v -0.041666666667 3.777000000000 0.019175000000
v 0.041666666667 3.777000000000 0.019175000000
v 0.041666666667 5.500000000000 0.019175000000
v -0.041666666667 5.500000000000 0.019175000000
v -0.065000000000 3.709500000000 -0.054825000000
v 0.065000000000 3.709500000000 -0.054825000000
v 0.065000000000 3.774500000000 -0.054825000000
v -0.065000000000 3.774500000000 -0.054825000000
v -0.065000000000 3.709500000000 0.065175000000
v 0.065000000000 3.709500000000 0.065175000000
v 0.065000000000 3.774500000000 0.065175000000
v -0.065000000000 3.774500000000 0.065175000000
v -0.531666666667 3.012000000000 -0.168825000000
v -0.448333333333 3.012000000000 -0.168825000000
v -0.448333333333 5.500000000000 -0.168825000000
v -0.531666666667 5.500000000000 -0.168825000000
v -0.531666666667 3.012000000000 -0.140825000000
v -0.448333333333 3.012000000000 -0.140825000000
v -0.448333333333 5.500000000000 -0.140825000000
v -0.531666666667 5.500000000000 -0.140825000000
v -0.555000000000 2.944500000000 -0.214825000000
v -0.425000000000 2.944500000000 -0.214825000000
v -0.425000000000 3.009500000000 -0.214825000000
v -0.555000000000 3.009500000000 -0.214825000000
v -0.555000000000 2.944500000000 -0.094825000000
v -0.425000000000 2.944500000000 -0.094825000000
v -0.425000000000 3.009500000000 -0.094825000000
v -0.555000000000 3.009500000000 -0.094825000000
v -0.841666666667 2.975000000000 0.081175000000
v -0.758333333333 2.975000000000 0.081175000000
v -0.758333333333 5.500000000000 0.081175000000
v -0.841666666667 5.500000000000 0.081175000000
v -0.841666666667 2.975000000000 0.109175000000
v -0.758333333333 2.975000000000 0.109175000000
v -0.758333333333 5.500000000000 0.109175000000
v -0.841666666667 5.500000000000 0.109175000000
v -0.865000000000 2.907500000000 0.035175000000
v -0.735000000000 2.907500000000 0.035175000000
v -0.735000000000 2.972500000000 0.035175000000
v -0.865000000000 2.972500000000 0.035175000000
v -0.865000000000 2.907500000000 0.155175000000
v -0.735000000000 2.907500000000 0.155175000000
v -0.735000000000 2.972500000000 0.155175000000
v -0.865000000000 2.972500000000 0.155175000000
v 0.448333333333 3.012000000000 -0.168825000000
v 0.531666666667 3.012000000000 -0.168825000000
v 0.531666666667 5.500000000000 -0.168825000000
v 0.448333333333 5.500000000000 -0.168825000000
v 0.448333333333 3.012000000000 -0.140825000000
v 0.531666666667 3.012000000000 -0.140825000000
v 0.531666666667 5.500000000000 -0.140825000000
v 0.448333333333 5.500000000000 -0.140825000000
v 0.425000000000 2.944500000000 -0.214825000000
v 0.555000000000 2.944500000000 -0.214825000000
v 0.555000000000 3.009500000000 -0.214825000000
v 0.425000000000 3.009500000000 -0.214825000000
v 0.425000000000 2.944500000000 -0.094825000000
v 0.555000000000 2.944500000000 -0.094825000000
v 0.555000000000 3.009500000000 -0.094825000000
v 0.425000000000 3.009500000000 -0.094825000000
v 0.758333333333 2.975000000000 0.081175000000
v 0.841666666667 2.975000000000 0.081175000000
v 0.841666666667 5.500000000000 0.081175000000
v 0.758333333333 5.500000000000 0.081175000000
v 0.758333333333 2.975000000000 0.109175000000
v 0.841666666667 2.975000000000 0.109175000000
v 0.841666666667 5.500000000000 0.109175000000
v 0.758333333333 5.500000000000 0.109175000000
v 0.735000000000 2.907500000000 0.035175000000
v 0.865000000000 2.907500000000 0.035175000000
v 0.865000000000 2.972500000000 0.035175000000
v 0.735000000000 2.972500000000 0.035175000000
v 0.735000000000 2.907500000000 0.155175000000
v 0.865000000000 2.907500000000 0.155175000000
v 0.865000000000 2.972500000000 0.155175000000
v 0.735000000000 2.972500000000 0.155175000000
vt 0.132812500000 0.960937500000
vt 0.163281250000 0.960937500000
vt 0.163281250000 0.929062500000
vt 0.132812500000 0.929062500000
vt 0.132812500000 0.960937500000
vt 0.164687500000 0.960937500000
vt 0.164687500000 0.930468750000
vt 0.132812500000 0.930468750000
vt 0.132812500000 0.960937500000
vt 0.158593750000 0.960937500000
vt 0.158593750000 0.930468750000
vt 0.132812500000 0.930468750000
vt 0.132812500000 0.960937500000
vt 0.163281250000 0.960937500000
vt 0.163281250000 0.935156250000
vt 0.132812500000 0.935156250000
vt 0.371093750000 0.960937500000
vt 0.396875000000 0.960937500000
vt 0.396875000000 0.929062500000
vt 0.371093750000 0.929062500000
vt 0.132812500000 0.960937500000
vt 0.164687500000 0.960937500000
vt 0.164687500000 0.935156250000
vt 0.132812500000 0.935156250000
vt 0.371093750000 0.960937500000
vt 0.372265625000 0.960937500000
vt 0.372265625000 0.928680000000
vt 0.371093750000 0.928680000000
vt 0.371093750000 0.960937500000
vt 0.403351250000 0.960937500000
vt 0.403351250000 0.959765625000
vt 0.371093750000 0.959765625000
vt 0.371093750000 0.960937500000
vt 0.397184375000 0.960937500000
vt 0.397184375000 0.959765625000
vt 0.371093750000 0.959765625000
vt 0.371093750000 0.960937500000
vt 0.372265625000 0.960937500000
vt 0.372265625000 0.934846875000
vt 0.371093750000 0.934846875000
vt 0.371093750000 0.960937500000
vt 0.397184375000 0.960937500000
vt 0.397184375000 0.928680000000
vt 0.371093750000 0.928680000000
vt 0.371093750000 0.960937500000
vt 0.403351250000 0.960937500000
vt 0.403351250000 0.934846875000
vt 0.371093750000 0.934846875000
vt 0.371093750000 0.960937500000
vt 0.372265625000 0.960937500000
vt 0.372265625000 0.928680000000
vt 0.371093750000 0.928680000000
vt 0.371093750000 0.960937500000
vt 0.403351250000 0.960937500000
vt 0.403351250000 0.959765625000
vt 0.371093750000 0.959765625000
vt 0.371093750000 0.960937500000
vt 0.397184375000 0.960937500000
vt 0.397184375000 0.959765625000
vt 0.371093750000 0.959765625000
vt 0.371093750000 0.960937500000
vt 0.372265625000 0.960937500000
vt 0.372265625000 0.934846875000
vt 0.371093750000 0.934846875000
vt 0.371093750000 0.960937500000
vt 0.397184375000 0.960937500000
vt 0.397184375000 0.928680000000
vt 0.371093750000 0.928680000000
vt 0.371093750000 0.960937500000
vt 0.403351250000 0.960937500000
vt 0.403351250000 0.934846875000
vt 0.371093750000 0.934846875000
vt 0.304687500000 0.960937500000
vt 0.326929687500 0.960937500000
vt 0.326929687500 0.959250000000
vt 0.304687500000 0.959250000000
vt 0.304687500000 0.960937500000
vt 0.306375000000 0.960937500000
vt 0.306375000000 0.938695312500
vt 0.304687500000 0.938695312500
vt 0.304687500000 0.960937500000
vt 0.305812500000 0.960937500000
vt 0.305812500000 0.938695312500
vt 0.304687500000 0.938695312500
vt 0.304687500000 0.960937500000
vt 0.326929687500 0.960937500000
vt 0.326929687500 0.959812500000
vt 0.304687500000 0.959812500000
vt 0.304687500000 0.960937500000
vt 0.305812500000 0.960937500000
vt 0.305812500000 0.959250000000
vt 0.304687500000 0.959250000000
vt 0.304687500000 0.960937500000
vt 0.306375000000 0.960937500000
vt 0.306375000000 0.959812500000
vt 0.304687500000 0.959812500000
vt 0.304687500000 0.960937500000
vt 0.326929687500 0.960937500000
vt 0.326929687500 0.959250000000
vt 0.304687500000 0.959250000000
vt 0.304687500000 0.960937500000
vt 0.306375000000 0.960937500000
vt 0.306375000000 0.938695312500
vt 0.304687500000 0.938695312500
vt 0.304687500000 0.960937500000
vt 0.305812500000 0.960937500000
vt 0.305812500000 0.938695312500
vt 0.304687500000 0.938695312500
vt 0.304687500000 0.960937500000
vt 0.326929687500 0.960937500000
vt 0.326929687500 0.959812500000
vt 0.304687500000 0.959812500000
vt 0.304687500000 0.960937500000
vt 0.305812500000 0.960937500000
vt 0.305812500000 0.959250000000
vt 0.304687500000 0.959250000000
vt 0.304687500000 0.960937500000
vt 0.306375000000 0.960937500000
vt 0.306375000000 0.959812500000
vt 0.304687500000 0.959812500000
vt 0.132812500000 0.960937500000
vt 0.170312500000 0.960937500000
vt 0.170312500000 0.910312500000
vt 0.132812500000 0.910312500000
vt 0.132812500000 0.960937500000
vt 0.183437500000 0.960937500000
vt 0.183437500000 0.923437500000
vt 0.132812500000 0.923437500000
vt 0.132812500000 0.960937500000
vt 0.157656250000 0.960937500000
vt 0.157656250000 0.923437500000
vt 0.132812500000 0.923437500000
vt 0.132812500000 0.960937500000
vt 0.170312500000 0.960937500000
vt 0.170312500000 0.936093750000
vt 0.132812500000 0.936093750000
vt 0.371093750000 0.960937500000
vt 0.395937500000 0.960937500000
vt 0.395937500000 0.910312500000
vt 0.371093750000 0.910312500000
vt 0.132812500000 0.960937500000
vt 0.183437500000 0.960937500000
vt 0.183437500000 0.936093750000
vt 0.132812500000 0.936093750000
vt 0.371093750000 0.960937500000
vt 0.372265625000 0.960937500000
vt 0.372265625000 0.909705000000
vt 0.371093750000 0.909705000000
vt 0.371093750000 0.960937500000
vt 0.422326250000 0.960937500000
vt 0.422326250000 0.959765625000
vt 0.371093750000 0.959765625000
vt 0.371093750000 0.960937500000
vt 0.396235625000 0.960937500000
vt 0.396235625000 0.959765625000
vt 0.371093750000 0.959765625000
vt 0.371093750000 0.960937500000
vt 0.372265625000 0.960937500000
vt 0.372265625000 0.935795625000
vt 0.371093750000 0.935795625000
vt 0.371093750000 0.960937500000
vt 0.396235625000 0.960937500000
vt 0.396235625000 0.909705000000
vt 0.371093750000 0.909705000000
vt 0.371093750000 0.960937500000
vt 0.422326250000 0.960937500000
vt 0.422326250000 0.935795625000
vt 0.371093750000 0.935795625000
vt 0.371093750000 0.960937500000
vt 0.372265625000 0.960937500000
vt 0.372265625000 0.909705000000
vt 0.371093750000 0.909705000000
vt 0.371093750000 0.960937500000
vt 0.422326250000 0.960937500000
vt 0.422326250000 0.959765625000
vt 0.371093750000 0.959765625000
vt 0.371093750000 0.960937500000
vt 0.396235625000 0.960937500000
vt 0.396235625000 0.959765625000
vt 0.371093750000 0.959765625000
vt 0.371093750000 0.960937500000
vt 0.372265625000 0.960937500000
vt 0.372265625000 0.935795625000
vt 0.371093750000 0.935795625000
vt 0.371093750000 0.960937500000
vt 0.396235625000 0.960937500000
vt 0.396235625000 0.909705000000
vt 0.371093750000 0.909705000000
vt 0.371093750000 0.960937500000
vt 0.422326250000 0.960937500000
vt 0.422326250000 0.935795625000
vt 0.371093750000 0.935795625000
vt 0.304687500000 0.960937500000
vt 0.332062500000 0.960937500000
vt 0.332062500000 0.959250000000
vt 0.304687500000 0.959250000000
vt 0.304687500000 0.960937500000
vt 0.306375000000 0.960937500000
vt 0.306375000000 0.933562500000
vt 0.304687500000 0.933562500000
vt 0.304687500000 0.960937500000
vt 0.305812500000 0.960937500000
vt 0.305812500000 0.933562500000
vt 0.304687500000 0.933562500000
vt 0.304687500000 0.960937500000
vt 0.332062500000 0.960937500000
vt 0.332062500000 0.959812500000
vt 0.304687500000 0.959812500000
vt 0.304687500000 0.960937500000
vt 0.305812500000 0.960937500000
vt 0.305812500000 0.959250000000
vt 0.304687500000 0.959250000000
vt 0.304687500000 0.960937500000
vt 0.306375000000 0.960937500000
vt 0.306375000000 0.959812500000
vt 0.304687500000 0.959812500000
vt 0.304687500000 0.960937500000
vt 0.332062500000 0.960937500000
vt 0.332062500000 0.959250000000
vt 0.304687500000 0.959250000000
vt 0.304687500000 0.960937500000
vt 0.306375000000 0.960937500000
vt 0.306375000000 0.933562500000
vt 0.304687500000 0.933562500000
vt 0.304687500000 0.960937500000
vt 0.305812500000 0.960937500000
vt 0.305812500000 0.933562500000
vt 0.304687500000 0.933562500000
vt 0.304687500000 0.960937500000
vt 0.332062500000 0.960937500000
vt 0.332062500000 0.959812500000
vt 0.304687500000 0.959812500000
vt 0.304687500000 0.960937500000
vt 0.305812500000 0.960937500000
vt 0.305812500000 0.959250000000
vt 0.304687500000 0.959250000000
vt 0.304687500000 0.960937500000
vt 0.306375000000 0.960937500000
vt 0.306375000000 0.959812500000
vt 0.304687500000 0.959812500000
vt 0.218750000000 0.960937500000
vt 0.237500000000 0.960937500000
vt 0.237500000000 0.923437500000
vt 0.218750000000 0.923437500000
vt 0.218750000000 0.960937500000
vt 0.256250000000 0.960937500000
vt 0.256250000000 0.942187500000
vt 0.218750000000 0.942187500000
vt 0.218750000000 0.960937500000
vt 0.241250000000 0.960937500000
vt 0.241250000000 0.942187500000
vt 0.218750000000 0.942187500000
vt 0.218750000000 0.960937500000
vt 0.237500000000 0.960937500000
vt 0.237500000000 0.938437500000
vt 0.218750000000 0.938437500000
vt 0.371093750000 0.960937500000
vt 0.393593750000 0.960937500000
vt 0.393593750000 0.923437500000
vt 0.371093750000 0.923437500000
vt 0.218750000000 0.960937500000
vt 0.256250000000 0.960937500000
vt 0.256250000000 0.938437500000
vt 0.218750000000 0.938437500000
vt 0.371093750000 0.960937500000
vt 0.372265625000 0.960937500000
vt 0.372265625000 0.922987500000
vt 0.371093750000 0.922987500000
vt 0.371093750000 0.960937500000
vt 0.409043750000 0.960937500000
vt 0.409043750000 0.959765625000
vt 0.371093750000 0.959765625000
vt 0.371093750000 0.960937500000
vt 0.393863750000 0.960937500000
vt 0.393863750000 0.959765625000
vt 0.371093750000 0.959765625000
vt 0.371093750000 0.960937500000
vt 0.372265625000 0.960937500000
vt 0.372265625000 0.938167500000
vt 0.371093750000 0.938167500000
vt 0.371093750000 0.960937500000
vt 0.393863750000 0.960937500000
vt 0.393863750000 0.922987500000
vt 0.371093750000 0.922987500000
vt 0.371093750000 0.960937500000
vt 0.409043750000 0.960937500000
vt 0.409043750000 0.938167500000
vt 0.371093750000 0.938167500000
vt 0.371093750000 0.960937500000
vt 0.372265625000 0.960937500000
vt 0.372265625000 0.922987500000
vt 0.371093750000 0.922987500000
vt 0.371093750000 0.960937500000
vt 0.409043750000 0.960937500000
vt 0.409043750000 0.959765625000
vt 0.371093750000 0.959765625000
vt 0.371093750000 0.960937500000
vt 0.393863750000 0.960937500000
vt 0.393863750000 0.959765625000
vt 0.371093750000 0.959765625000
vt 0.371093750000 0.960937500000
vt 0.372265625000 0.960937500000
vt 0.372265625000 0.938167500000
vt 0.371093750000 0.938167500000
vt 0.371093750000 0.960937500000
vt 0.393863750000 0.960937500000
vt 0.393863750000 0.922987500000
vt 0.371093750000 0.922987500000
vt 0.371093750000 0.960937500000
vt 0.409043750000 0.960937500000
vt 0.409043750000 0.938167500000
vt 0.371093750000 0.938167500000
vt 0.304687500000 0.960937500000
vt 0.318375000000 0.960937500000
vt 0.318375000000 0.959250000000
vt 0.304687500000 0.959250000000
vt 0.304687500000 0.960937500000
vt 0.306375000000 0.960937500000
vt 0.306375000000 0.947250000000
vt 0.304687500000 0.947250000000
vt 0.304687500000 0.960937500000
vt 0.305812500000 0.960937500000
vt 0.305812500000 0.947250000000
vt 0.304687500000 0.947250000000
vt 0.304687500000 0.960937500000
vt 0.318375000000 0.960937500000
vt 0.318375000000 0.959812500000
vt 0.304687500000 0.959812500000
vt 0.304687500000 0.960937500000
vt 0.305812500000 0.960937500000
vt 0.305812500000 0.959250000000
vt 0.304687500000 0.959250000000
vt 0.304687500000 0.960937500000
vt 0.306375000000 0.960937500000
vt 0.306375000000 0.959812500000
vt 0.304687500000 0.959812500000
vt 0.304687500000 0.960937500000
vt 0.318375000000 0.960937500000
vt 0.318375000000 0.959250000000
vt 0.304687500000 0.959250000000
vt 0.304687500000 0.960937500000
vt 0.306375000000 0.960937500000
vt 0.306375000000 0.947250000000
vt 0.304687500000 0.947250000000
vt 0.304687500000 0.960937500000
vt 0.305812500000 0.960937500000
vt 0.305812500000 0.947250000000
vt 0.304687500000 0.947250000000
vt 0.304687500000 0.960937500000
vt 0.318375000000 0.960937500000
vt 0.318375000000 0.959812500000
vt 0.304687500000 0.959812500000
vt 0.304687500000 0.960937500000
vt 0.305812500000 0.960937500000
vt 0.305812500000 0.959250000000
vt 0.304687500000 0.959250000000
vt 0.304687500000 0.960937500000
vt 0.306375000000 0.960937500000
vt 0.306375000000 0.959812500000
vt 0.304687500000 0.959812500000
vt 0.218750000000 0.960937500000
vt 0.291406250000 0.960937500000
vt 0.291406250000 0.945937500000
vt 0.218750000000 0.945937500000
vt 0.218750000000 0.960937500000
vt 0.233750000000 0.960937500000
vt 0.233750000000 0.888281250000
vt 0.218750000000 0.888281250000
vt 0.218750000000 0.960937500000
vt 0.234687500000 0.960937500000
vt 0.234687500000 0.888281250000
vt 0.218750000000 0.888281250000
vt 0.218750000000 0.960937500000
vt 0.291406250000 0.960937500000
vt 0.291406250000 0.945000000000
vt 0.218750000000 0.945000000000
vt 0.371093750000 0.960937500000
vt 0.387031250000 0.960937500000
vt 0.387031250000 0.945937500000
vt 0.371093750000 0.945937500000
vt 0.218750000000 0.960937500000
vt 0.233750000000 0.960937500000
vt 0.233750000000 0.945000000000
vt 0.218750000000 0.945000000000
vt 0.371093750000 0.960937500000
vt 0.372265625000 0.960937500000
vt 0.372265625000 0.945757500000
vt 0.371093750000 0.945757500000
vt 0.371093750000 0.960937500000
vt 0.386273750000 0.960937500000
vt 0.386273750000 0.959765625000
vt 0.371093750000 0.959765625000
vt 0.371093750000 0.960937500000
vt 0.387222500000 0.960937500000
vt 0.387222500000 0.959765625000
vt 0.371093750000 0.959765625000
vt 0.371093750000 0.960937500000
vt 0.372265625000 0.960937500000
vt 0.372265625000 0.944808750000
vt 0.371093750000 0.944808750000
vt 0.371093750000 0.960937500000
vt 0.387222500000 0.960937500000
vt 0.387222500000 0.945757500000
vt 0.371093750000 0.945757500000
vt 0.371093750000 0.960937500000
vt 0.386273750000 0.960937500000
vt 0.386273750000 0.944808750000
vt 0.371093750000 0.944808750000
vt 0.371093750000 0.960937500000
vt 0.372265625000 0.960937500000
vt 0.372265625000 0.945757500000
vt 0.371093750000 0.945757500000
vt 0.371093750000 0.960937500000
vt 0.386273750000 0.960937500000
vt 0.386273750000 0.959765625000
vt 0.371093750000 0.959765625000
vt 0.371093750000 0.960937500000
vt 0.387222500000 0.960937500000
vt 0.387222500000 0.959765625000
vt 0.371093750000 0.959765625000
vt 0.371093750000 0.960937500000
vt 0.372265625000 0.960937500000
vt 0.372265625000 0.944808750000
vt 0.371093750000 0.944808750000
vt 0.371093750000 0.960937500000
vt 0.387222500000 0.960937500000
vt 0.387222500000 0.945757500000
vt 0.371093750000 0.945757500000
vt 0.371093750000 0.960937500000
vt 0.386273750000 0.960937500000
vt 0.386273750000 0.944808750000
vt 0.371093750000 0.944808750000
vt 0.304687500000 0.960937500000
vt 0.357726562500 0.960937500000
vt 0.357726562500 0.959250000000
vt 0.304687500000 0.959250000000
vt 0.304687500000 0.960937500000
vt 0.306375000000 0.960937500000
vt 0.306375000000 0.907898437500
vt 0.304687500000 0.907898437500
vt 0.304687500000 0.960937500000
vt 0.305812500000 0.960937500000
vt 0.305812500000 0.907898437500
vt 0.304687500000 0.907898437500
vt 0.304687500000 0.960937500000
vt 0.357726562500 0.960937500000
vt 0.357726562500 0.959812500000
vt 0.304687500000 0.959812500000
vt 0.304687500000 0.960937500000
vt 0.305812500000 0.960937500000
vt 0.305812500000 0.959250000000
vt 0.304687500000 0.959250000000
vt 0.304687500000 0.960937500000
vt 0.306375000000 0.960937500000
vt 0.306375000000 0.959812500000
vt 0.304687500000 0.959812500000
vt 0.304687500000 0.960937500000
vt 0.357726562500 0.960937500000
vt 0.357726562500 0.959250000000
vt 0.304687500000 0.959250000000
vt 0.304687500000 0.960937500000
vt 0.306375000000 0.960937500000
vt 0.306375000000 0.907898437500
vt 0.304687500000 0.907898437500
vt 0.304687500000 0.960937500000
vt 0.305812500000 0.960937500000
vt 0.305812500000 0.907898437500
vt 0.304687500000 0.907898437500
vt 0.304687500000 0.960937500000
vt 0.357726562500 0.960937500000
vt 0.357726562500 0.959812500000
vt 0.304687500000 0.959812500000
vt 0.304687500000 0.960937500000
vt 0.305812500000 0.960937500000
vt 0.305812500000 0.959250000000
vt 0.304687500000 0.959250000000
vt 0.304687500000 0.960937500000
vt 0.306375000000 0.960937500000
vt 0.306375000000 0.959812500000
vt 0.304687500000 0.959812500000
vt 0.132812500000 0.960937500000
vt 0.205468750000 0.960937500000
vt 0.205468750000 0.945937500000
vt 0.132812500000 0.945937500000
vt 0.132812500000 0.960937500000
vt 0.147812500000 0.960937500000
vt 0.147812500000 0.888281250000
vt 0.132812500000 0.888281250000
vt 0.132812500000 0.960937500000
vt 0.148750000000 0.960937500000
vt 0.148750000000 0.888281250000
vt 0.132812500000 0.888281250000
vt 0.132812500000 0.960937500000
vt 0.205468750000 0.960937500000
vt 0.205468750000 0.945000000000
vt 0.132812500000 0.945000000000
vt 0.371093750000 0.960937500000
vt 0.387031250000 0.960937500000
vt 0.387031250000 0.945937500000
vt 0.371093750000 0.945937500000
vt 0.132812500000 0.960937500000
vt 0.147812500000 0.960937500000
vt 0.147812500000 0.945000000000
vt 0.132812500000 0.945000000000
vt 0.371093750000 0.960937500000
vt 0.372265625000 0.960937500000
vt 0.372265625000 0.945757500000
vt 0.371093750000 0.945757500000
vt 0.371093750000 0.960937500000
vt 0.386273750000 0.960937500000
vt 0.386273750000 0.959765625000
vt 0.371093750000 0.959765625000
vt 0.371093750000 0.960937500000
vt 0.387222500000 0.960937500000
vt 0.387222500000 0.959765625000
vt 0.371093750000 0.959765625000
vt 0.371093750000 0.960937500000
vt 0.372265625000 0.960937500000
vt 0.372265625000 0.944808750000
vt 0.371093750000 0.944808750000
vt 0.371093750000 0.960937500000
vt 0.387222500000 0.960937500000
vt 0.387222500000 0.945757500000
vt 0.371093750000 0.945757500000
vt 0.371093750000 0.960937500000
vt 0.386273750000 0.960937500000
vt 0.386273750000 0.944808750000
vt 0.371093750000 0.944808750000
vt 0.371093750000 0.960937500000
vt 0.372265625000 0.960937500000
vt 0.372265625000 0.945757500000
vt 0.371093750000 0.945757500000
vt 0.371093750000 0.960937500000
vt 0.386273750000 0.960937500000
vt 0.386273750000 0.959765625000
vt 0.371093750000 0.959765625000
vt 0.371093750000 0.960937500000
vt 0.387222500000 0.960937500000
vt 0.387222500000 0.959765625000
vt 0.371093750000 0.959765625000
vt 0.371093750000 0.960937500000
vt 0.372265625000 0.960937500000
vt 0.372265625000 0.944808750000
vt 0.371093750000 0.944808750000
vt 0.371093750000 0.960937500000
vt 0.387222500000 0.960937500000
vt 0.387222500000 0.945757500000
vt 0.371093750000 0.945757500000
vt 0.371093750000 0.960937500000
vt 0.386273750000 0.960937500000
vt 0.386273750000 0.944808750000
vt 0.371093750000 0.944808750000
vt 0.304687500000 0.960937500000
vt 0.357726562500 0.960937500000
vt 0.357726562500 0.959250000000
vt 0.304687500000 0.959250000000
vt 0.304687500000 0.960937500000
vt 0.306375000000 0.960937500000
vt 0.306375000000 0.907898437500
vt 0.304687500000 0.907898437500
vt 0.304687500000 0.960937500000
vt 0.305812500000 0.960937500000
vt 0.305812500000 0.907898437500
vt 0.304687500000 0.907898437500
vt 0.304687500000 0.960937500000
vt 0.357726562500 0.960937500000
vt 0.357726562500 0.959812500000
vt 0.304687500000 0.959812500000
vt 0.304687500000 0.960937500000
vt 0.305812500000 0.960937500000
vt 0.305812500000 0.959250000000
vt 0.304687500000 0.959250000000
vt 0.304687500000 0.960937500000
vt 0.306375000000 0.960937500000
vt 0.306375000000 0.959812500000
vt 0.304687500000 0.959812500000
vt 0.304687500000 0.960937500000
vt 0.357726562500 0.960937500000
vt 0.357726562500 0.959250000000
vt 0.304687500000 0.959250000000
vt 0.304687500000 0.960937500000
vt 0.306375000000 0.960937500000
vt 0.306375000000 0.907898437500
vt 0.304687500000 0.907898437500
vt 0.304687500000 0.960937500000
vt 0.305812500000 0.960937500000
vt 0.305812500000 0.907898437500
vt 0.304687500000 0.907898437500
vt 0.304687500000 0.960937500000
vt 0.357726562500 0.960937500000
vt 0.357726562500 0.959812500000
vt 0.304687500000 0.959812500000
vt 0.304687500000 0.960937500000
vt 0.305812500000 0.960937500000
vt 0.305812500000 0.959250000000
vt 0.304687500000 0.959250000000
vt 0.304687500000 0.960937500000
vt 0.306375000000 0.960937500000
vt 0.306375000000 0.959812500000
vt 0.304687500000 0.959812500000
vt 0.132812500000 0.960937500000
vt 0.207812500000 0.960937500000
vt 0.207812500000 0.944531250000
vt 0.132812500000 0.944531250000
vt 0.132812500000 0.960937500000
vt 0.149218750000 0.960937500000
vt 0.149218750000 0.885937500000
vt 0.132812500000 0.885937500000
vt 0.132812500000 0.960937500000
vt 0.150625000000 0.960937500000
vt 0.150625000000 0.885937500000
vt 0.132812500000 0.885937500000
vt 0.132812500000 0.960937500000
vt 0.207812500000 0.960937500000
vt 0.207812500000 0.943125000000
vt 0.132812500000 0.943125000000
vt 0.371093750000 0.960937500000
vt 0.388906250000 0.960937500000
vt 0.388906250000 0.944531250000
vt 0.371093750000 0.944531250000
vt 0.132812500000 0.960937500000
vt 0.149218750000 0.960937500000
vt 0.149218750000 0.943125000000
vt 0.132812500000 0.943125000000
vt 0.371093750000 0.960937500000
vt 0.372265625000 0.960937500000
vt 0.372265625000 0.944334375000
vt 0.371093750000 0.944334375000
vt 0.371093750000 0.960937500000
vt 0.387696875000 0.960937500000
vt 0.387696875000 0.959765625000
vt 0.371093750000 0.959765625000
vt 0.371093750000 0.960937500000
vt 0.389120000000 0.960937500000
vt 0.389120000000 0.959765625000
vt 0.371093750000 0.959765625000
vt 0.371093750000 0.960937500000
vt 0.372265625000 0.960937500000
vt 0.372265625000 0.942911250000
vt 0.371093750000 0.942911250000
vt 0.371093750000 0.960937500000
vt 0.389120000000 0.960937500000
vt 0.389120000000 0.944334375000
vt 0.371093750000 0.944334375000
vt 0.371093750000 0.960937500000
vt 0.387696875000 0.960937500000
vt 0.387696875000 0.942911250000
vt 0.371093750000 0.942911250000
vt 0.371093750000 0.960937500000
vt 0.372265625000 0.960937500000
vt 0.372265625000 0.944334375000
vt 0.371093750000 0.944334375000
vt 0.371093750000 0.960937500000
vt 0.387696875000 0.960937500000
vt 0.387696875000 0.959765625000
vt 0.371093750000 0.959765625000
vt 0.371093750000 0.960937500000
vt 0.389120000000 0.960937500000
vt 0.389120000000 0.959765625000
vt 0.371093750000 0.959765625000
vt 0.371093750000 0.960937500000
vt 0.372265625000 0.960937500000
vt 0.372265625000 0.942911250000
vt 0.371093750000 0.942911250000
vt 0.371093750000 0.960937500000
vt 0.389120000000 0.960937500000
vt 0.389120000000 0.944334375000
vt 0.371093750000 0.944334375000
vt 0.371093750000 0.960937500000
vt 0.387696875000 0.960937500000
vt 0.387696875000 0.942911250000
vt 0.371093750000 0.942911250000
vt 0.304687500000 0.960937500000
vt 0.359437500000 0.960937500000
vt 0.359437500000 0.959250000000
vt 0.304687500000 0.959250000000
vt 0.304687500000 0.960937500000
vt 0.306375000000 0.960937500000
vt 0.306375000000 0.906187500000
vt 0.304687500000 0.906187500000
vt 0.304687500000 0.960937500000
vt 0.305812500000 0.960937500000
vt 0.305812500000 0.906187500000
vt 0.304687500000 0.906187500000
vt 0.304687500000 0.960937500000
vt 0.359437500000 0.960937500000
vt 0.359437500000 0.959812500000
vt 0.304687500000 0.959812500000
vt 0.304687500000 0.960937500000
vt 0.305812500000 0.960937500000
vt 0.305812500000 0.959250000000
vt 0.304687500000 0.959250000000
vt 0.304687500000 0.960937500000
vt 0.306375000000 0.960937500000
vt 0.306375000000 0.959812500000
vt 0.304687500000 0.959812500000
vt 0.304687500000 0.960937500000
vt 0.359437500000 0.960937500000
vt 0.359437500000 0.959250000000
vt 0.304687500000 0.959250000000
vt 0.304687500000 0.960937500000
vt 0.306375000000 0.960937500000
vt 0.306375000000 0.906187500000
vt 0.304687500000 0.906187500000
vt 0.304687500000 0.960937500000
vt 0.305812500000 0.960937500000
vt 0.305812500000 0.906187500000
vt 0.304687500000 0.906187500000
vt 0.304687500000 0.960937500000
vt 0.359437500000 0.960937500000
vt 0.359437500000 0.959812500000
vt 0.304687500000 0.959812500000
vt 0.304687500000 0.960937500000
vt 0.305812500000 0.960937500000
vt 0.305812500000 0.959250000000
vt 0.304687500000 0.959250000000
vt 0.304687500000 0.960937500000
vt 0.306375000000 0.960937500000
vt 0.306375000000 0.959812500000
vt 0.304687500000 0.959812500000
vt 0.218750000000 0.960937500000
vt 0.293750000000 0.960937500000
vt 0.293750000000 0.944531250000
vt 0.218750000000 0.944531250000
vt 0.218750000000 0.960937500000
vt 0.235156250000 0.960937500000
vt 0.235156250000 0.885937500000
vt 0.218750000000 0.885937500000
vt 0.218750000000 0.960937500000
vt 0.236562500000 0.960937500000
vt 0.236562500000 0.885937500000
vt 0.218750000000 0.885937500000
vt 0.218750000000 0.960937500000
vt 0.293750000000 0.960937500000
vt 0.293750000000 0.943125000000
vt 0.218750000000 0.943125000000
vt 0.371093750000 0.960937500000
vt 0.388906250000 0.960937500000
vt 0.388906250000 0.944531250000
vt 0.371093750000 0.944531250000
vt 0.218750000000 0.960937500000
vt 0.235156250000 0.960937500000
vt 0.235156250000 0.943125000000
vt 0.218750000000 0.943125000000
vt 0.371093750000 0.960937500000
vt 0.372265625000 0.960937500000
vt 0.372265625000 0.944334375000
vt 0.371093750000 0.944334375000
vt 0.371093750000 0.960937500000
vt 0.387696875000 0.960937500000
vt 0.387696875000 0.959765625000
vt 0.371093750000 0.959765625000
vt 0.371093750000 0.960937500000
vt 0.389120000000 0.960937500000
vt 0.389120000000 0.959765625000
vt 0.371093750000 0.959765625000
vt 0.371093750000 0.960937500000
vt 0.372265625000 0.960937500000
vt 0.372265625000 0.942911250000
vt 0.371093750000 0.942911250000
vt 0.371093750000 0.960937500000
vt 0.389120000000 0.960937500000
vt 0.389120000000 0.944334375000
vt 0.371093750000 0.944334375000
vt 0.371093750000 0.960937500000
vt 0.387696875000 0.960937500000
vt 0.387696875000 0.942911250000
vt 0.371093750000 0.942911250000
vt 0.371093750000 0.960937500000
vt 0.372265625000 0.960937500000
vt 0.372265625000 0.944334375000
vt 0.371093750000 0.944334375000
vt 0.371093750000 0.960937500000
vt 0.387696875000 0.960937500000
vt 0.387696875000 0.959765625000
vt 0.371093750000 0.959765625000
vt 0.371093750000 0.960937500000
vt 0.389120000000 0.960937500000
vt 0.389120000000 0.959765625000
vt 0.371093750000 0.959765625000
vt 0.371093750000 0.960937500000
vt 0.372265625000 0.960937500000
vt 0.372265625000 0.942911250000
vt 0.371093750000 0.942911250000
vt 0.371093750000 0.960937500000
vt 0.389120000000 0.960937500000
vt 0.389120000000 0.944334375000
vt 0.371093750000 0.944334375000
vt 0.371093750000 0.960937500000
vt 0.387696875000 0.960937500000
vt 0.387696875000 0.942911250000
vt 0.371093750000 0.942911250000
vt 0.304687500000 0.960937500000
vt 0.359437500000 0.960937500000
vt 0.359437500000 0.959250000000
vt 0.304687500000 0.959250000000
vt 0.304687500000 0.960937500000
vt 0.306375000000 0.960937500000
vt 0.306375000000 0.906187500000
vt 0.304687500000 0.906187500000
vt 0.304687500000 0.960937500000
vt 0.305812500000 0.960937500000
vt 0.305812500000 0.906187500000
vt 0.304687500000 0.906187500000
vt 0.304687500000 0.960937500000
vt 0.359437500000 0.960937500000
vt 0.359437500000 0.959812500000
vt 0.304687500000 0.959812500000
vt 0.304687500000 0.960937500000
vt 0.305812500000 0.960937500000
vt 0.305812500000 0.959250000000
vt 0.304687500000 0.959250000000
vt 0.304687500000 0.960937500000
vt 0.306375000000 0.960937500000
vt 0.306375000000 0.959812500000
vt 0.304687500000 0.959812500000
vt 0.304687500000 0.960937500000
vt 0.359437500000 0.960937500000
vt 0.359437500000 0.959250000000
vt 0.304687500000 0.959250000000
vt 0.304687500000 0.960937500000
vt 0.306375000000 0.960937500000
vt 0.306375000000 0.906187500000
vt 0.304687500000 0.906187500000
vt 0.304687500000 0.960937500000
vt 0.305812500000 0.960937500000
vt 0.305812500000 0.906187500000
vt 0.304687500000 0.906187500000
vt 0.304687500000 0.960937500000
vt 0.359437500000 0.960937500000
vt 0.359437500000 0.959812500000
vt 0.304687500000 0.959812500000
vt 0.304687500000 0.960937500000
vt 0.305812500000 0.960937500000
vt 0.305812500000 0.959250000000
vt 0.304687500000 0.959250000000
vt 0.304687500000 0.960937500000
vt 0.306375000000 0.960937500000
vt 0.306375000000 0.959812500000
vt 0.304687500000 0.959812500000
vt 0.132812500000 0.996093750000
vt 0.137265625000 0.996093750000
vt 0.137265625000 0.983437500000
vt 0.132812500000 0.983437500000
vt 0.132812500000 0.996093750000
vt 0.145468750000 0.996093750000
vt 0.145468750000 0.991640625000
vt 0.132812500000 0.991640625000
vt 0.132812500000 0.996093750000
vt 0.144062500000 0.996093750000
vt 0.144062500000 0.991640625000
vt 0.132812500000 0.991640625000
vt 0.132812500000 0.996093750000
vt 0.137265625000 0.996093750000
vt 0.137265625000 0.984843750000
vt 0.132812500000 0.984843750000
vt 0.132812500000 0.996093750000
vt 0.144062500000 0.996093750000
vt 0.144062500000 0.983437500000
vt 0.132812500000 0.983437500000
vt 0.132812500000 0.996093750000
vt 0.145468750000 0.996093750000
vt 0.145468750000 0.984843750000
vt 0.132812500000 0.984843750000
vt 0.132812500000 0.996093750000
vt 0.136328125000 0.996093750000
vt 0.136328125000 0.976875000000
vt 0.132812500000 0.976875000000
vt 0.132812500000 0.996093750000
vt 0.152031250000 0.996093750000
vt 0.152031250000 0.992578125000
vt 0.132812500000 0.992578125000
vt 0.132812500000 0.996093750000
vt 0.147812500000 0.996093750000
vt 0.147812500000 0.992578125000
vt 0.132812500000 0.992578125000
vt 0.132812500000 0.996093750000
vt 0.136328125000 0.996093750000
vt 0.136328125000 0.981093750000
vt 0.132812500000 0.981093750000
vt 0.132812500000 0.996093750000
vt 0.147812500000 0.996093750000
vt 0.147812500000 0.976875000000
vt 0.132812500000 0.976875000000
vt 0.132812500000 0.996093750000
vt 0.152031250000 0.996093750000
vt 0.152031250000 0.981093750000
vt 0.132812500000 0.981093750000
vt 0.132812500000 0.996093750000
vt 0.135812500000 0.996093750000
vt 0.135812500000 0.986718750000
vt 0.132812500000 0.986718750000
vt 0.132812500000 0.996093750000
vt 0.142187500000 0.996093750000
vt 0.142187500000 0.993093750000
vt 0.132812500000 0.993093750000
vt 0.132812500000 0.996093750000
vt 0.143125000000 0.996093750000
vt 0.143125000000 0.993093750000
vt 0.132812500000 0.993093750000
vt 0.132812500000 0.996093750000
vt 0.135812500000 0.996093750000
vt 0.135812500000 0.985781250000
vt 0.132812500000 0.985781250000
vt 0.132812500000 0.996093750000
vt 0.143125000000 0.996093750000
vt 0.143125000000 0.986718750000
vt 0.132812500000 0.986718750000
vt 0.132812500000 0.996093750000
vt 0.142187500000 0.996093750000
vt 0.142187500000 0.985781250000
vt 0.132812500000 0.985781250000
vt 0.132812500000 0.996093750000
vt 0.135812500000 0.996093750000
vt 0.135812500000 0.986718750000
vt 0.132812500000 0.986718750000
vt 0.132812500000 0.996093750000
vt 0.142187500000 0.996093750000
vt 0.142187500000 0.993093750000
vt 0.132812500000 0.993093750000
vt 0.132812500000 0.996093750000
vt 0.143125000000 0.996093750000
vt 0.143125000000 0.993093750000
vt 0.132812500000 0.993093750000
vt 0.132812500000 0.996093750000
vt 0.135812500000 0.996093750000
vt 0.135812500000 0.985781250000
vt 0.132812500000 0.985781250000
vt 0.132812500000 0.996093750000
vt 0.143125000000 0.996093750000
vt 0.143125000000 0.986718750000
vt 0.132812500000 0.986718750000
vt 0.132812500000 0.996093750000
vt 0.142187500000 0.996093750000
vt 0.142187500000 0.985781250000
vt 0.132812500000 0.985781250000
vt 0.132812500000 0.996093750000
vt 0.144062500000 0.996093750000
vt 0.144062500000 0.991406250000
vt 0.132812500000 0.991406250000
vt 0.132812500000 0.996093750000
vt 0.137500000000 0.996093750000
vt 0.137500000000 0.984843750000
vt 0.132812500000 0.984843750000
vt 0.132812500000 0.996093750000
vt 0.143125000000 0.996093750000
vt 0.143125000000 0.984843750000
vt 0.132812500000 0.984843750000
vt 0.132812500000 0.996093750000
vt 0.144062500000 0.996093750000
vt 0.144062500000 0.985781250000
vt 0.132812500000 0.985781250000
vt 0.132812500000 0.996093750000
vt 0.143125000000 0.996093750000
vt 0.143125000000 0.991406250000
vt 0.132812500000 0.991406250000
vt 0.132812500000 0.996093750000
vt 0.137500000000 0.996093750000
vt 0.137500000000 0.985781250000
vt 0.132812500000 0.985781250000
vt 0.132812500000 0.996093750000
vt 0.144062500000 0.996093750000
vt 0.144062500000 0.991406250000
vt 0.132812500000 0.991406250000
vt 0.132812500000 0.996093750000
vt 0.137500000000 0.996093750000
vt 0.137500000000 0.984843750000
vt 0.132812500000 0.984843750000
vt 0.132812500000 0.996093750000
vt 0.143125000000 0.996093750000
vt 0.143125000000 0.984843750000
vt 0.132812500000 0.984843750000
vt 0.132812500000 0.996093750000
vt 0.144062500000 0.996093750000
vt 0.144062500000 0.985781250000
vt 0.132812500000 0.985781250000
vt 0.132812500000 0.996093750000
vt 0.143125000000 0.996093750000
vt 0.143125000000 0.991406250000
vt 0.132812500000 0.991406250000
vt 0.132812500000 0.996093750000
vt 0.137500000000 0.996093750000
vt 0.137500000000 0.985781250000
vt 0.132812500000 0.985781250000
vt 0.132812500000 0.996093750000
vt 0.135625000000 0.996093750000
vt 0.135625000000 0.984375000000
vt 0.132812500000 0.984375000000
vt 0.132812500000 0.996093750000
vt 0.144531250000 0.996093750000
vt 0.144531250000 0.993281250000
vt 0.132812500000 0.993281250000
vt 0.132812500000 0.996093750000
vt 0.135625000000 0.996093750000
vt 0.135625000000 0.993281250000
vt 0.132812500000 0.993281250000
vt 0.132812500000 0.996093750000
vt 0.135625000000 0.996093750000
vt 0.135625000000 0.993281250000
vt 0.132812500000 0.993281250000
vt 0.132812500000 0.996093750000
vt 0.135625000000 0.996093750000
vt 0.135625000000 0.984375000000
vt 0.132812500000 0.984375000000
vt 0.132812500000 0.996093750000
vt 0.144531250000 0.996093750000
vt 0.144531250000 0.993281250000
vt 0.132812500000 0.993281250000
vt 0.003906250000 0.996093750000
vt 0.084671875000 0.996093750000
vt 0.084671875000 0.992187500000
vt 0.003906250000 0.992187500000
vt 0.003906250000 0.960937500000
vt 0.007812500000 0.960937500000
vt 0.007812500000 0.880171875000
vt 0.003906250000 0.880171875000
vt 0.003906250000 0.960937500000
vt 0.005218750000 0.960937500000
vt 0.005218750000 0.880171875000
vt 0.003906250000 0.880171875000
vt 0.003906250000 0.960937500000
vt 0.084671875000 0.960937500000
vt 0.084671875000 0.959625000000
vt 0.003906250000 0.959625000000
vt 0.003906250000 0.960937500000
vt 0.005218750000 0.960937500000
vt 0.005218750000 0.957031250000
vt 0.003906250000 0.957031250000
vt 0.003906250000 0.960937500000
vt 0.007812500000 0.960937500000
vt 0.007812500000 0.959625000000
vt 0.003906250000 0.959625000000
vt 0.304687500000 0.894531250000
vt 0.307734375000 0.894531250000
vt 0.307734375000 0.888437500000
vt 0.304687500000 0.888437500000
vt 0.304687500000 0.894531250000
vt 0.310781250000 0.894531250000
vt 0.310781250000 0.891484375000
vt 0.304687500000 0.891484375000
vt 0.304687500000 0.894531250000
vt 0.310312500000 0.894531250000
vt 0.310312500000 0.891484375000
vt 0.304687500000 0.891484375000
vt 0.304687500000 0.894531250000
vt 0.307734375000 0.894531250000
vt 0.307734375000 0.888906250000
vt 0.304687500000 0.888906250000
vt 0.304687500000 0.894531250000
vt 0.310312500000 0.894531250000
vt 0.310312500000 0.888437500000
vt 0.304687500000 0.888437500000
vt 0.304687500000 0.894531250000
vt 0.310781250000 0.894531250000
vt 0.310781250000 0.888906250000
vt 0.304687500000 0.888906250000
vt 0.003906250000 0.996093750000
vt 0.120531250000 0.996093750000
vt 0.120531250000 0.992187500000
vt 0.003906250000 0.992187500000
vt 0.003906250000 0.960937500000
vt 0.007812500000 0.960937500000
vt 0.007812500000 0.844312500000
vt 0.003906250000 0.844312500000
vt 0.003906250000 0.960937500000
vt 0.005218750000 0.960937500000
vt 0.005218750000 0.844312500000
vt 0.003906250000 0.844312500000
vt 0.003906250000 0.960937500000
vt 0.120531250000 0.960937500000
vt 0.120531250000 0.959625000000
vt 0.003906250000 0.959625000000
vt 0.003906250000 0.960937500000
vt 0.005218750000 0.960937500000
vt 0.005218750000 0.957031250000
vt 0.003906250000 0.957031250000
vt 0.003906250000 0.960937500000
vt 0.007812500000 0.960937500000
vt 0.007812500000 0.959625000000
vt 0.003906250000 0.959625000000
vt 0.304687500000 0.894531250000
vt 0.307734375000 0.894531250000
vt 0.307734375000 0.888437500000
vt 0.304687500000 0.888437500000
vt 0.304687500000 0.894531250000
vt 0.310781250000 0.894531250000
vt 0.310781250000 0.891484375000
vt 0.304687500000 0.891484375000
vt 0.304687500000 0.894531250000
vt 0.310312500000 0.894531250000
vt 0.310312500000 0.891484375000
vt 0.304687500000 0.891484375000
vt 0.304687500000 0.894531250000
vt 0.307734375000 0.894531250000
vt 0.307734375000 0.888906250000
vt 0.304687500000 0.888906250000
vt 0.304687500000 0.894531250000
vt 0.310312500000 0.894531250000
vt 0.310312500000 0.888437500000
vt 0.304687500000 0.888437500000
vt 0.304687500000 0.894531250000
vt 0.310781250000 0.894531250000
vt 0.310781250000 0.888906250000
vt 0.304687500000 0.888906250000
vt 0.003906250000 0.996093750000
vt 0.122265625000 0.996093750000
vt 0.122265625000 0.992187500000
vt 0.003906250000 0.992187500000
vt 0.003906250000 0.960937500000
vt 0.007812500000 0.960937500000
vt 0.007812500000 0.842578125000
vt 0.003906250000 0.842578125000
vt 0.003906250000 0.960937500000
vt 0.005218750000 0.960937500000
vt 0.005218750000 0.842578125000
vt 0.003906250000 0.842578125000
vt 0.003906250000 0.960937500000
vt 0.122265625000 0.960937500000
vt 0.122265625000 0.959625000000
vt 0.003906250000 0.959625000000
vt 0.003906250000 0.960937500000
vt 0.005218750000 0.960937500000
vt 0.005218750000 0.957031250000
vt 0.003906250000 0.957031250000
vt 0.003906250000 0.960937500000
vt 0.007812500000 0.960937500000
vt 0.007812500000 0.959625000000
vt 0.003906250000 0.959625000000
vt 0.304687500000 0.894531250000
vt 0.307734375000 0.894531250000
vt 0.307734375000 0.888437500000
vt 0.304687500000 0.888437500000
vt 0.304687500000 0.894531250000
vt 0.310781250000 0.894531250000
vt 0.310781250000 0.891484375000
vt 0.304687500000 0.891484375000
vt 0.304687500000 0.894531250000
vt 0.310312500000 0.894531250000
vt 0.310312500000 0.891484375000
vt 0.304687500000 0.891484375000
vt 0.304687500000 0.894531250000
vt 0.307734375000 0.894531250000
vt 0.307734375000 0.888906250000
vt 0.304687500000 0.888906250000
vt 0.304687500000 0.894531250000
vt 0.310312500000 0.894531250000
vt 0.310312500000 0.888437500000
vt 0.304687500000 0.888437500000
vt 0.304687500000 0.894531250000
vt 0.310781250000 0.894531250000
vt 0.310781250000 0.888906250000
vt 0.304687500000 0.888906250000
vt 0.003906250000 0.996093750000
vt 0.120531250000 0.996093750000
vt 0.120531250000 0.992187500000
vt 0.003906250000 0.992187500000
vt 0.003906250000 0.960937500000
vt 0.007812500000 0.960937500000
vt 0.007812500000 0.844312500000
vt 0.003906250000 0.844312500000
vt 0.003906250000 0.960937500000
vt 0.005218750000 0.960937500000
vt 0.005218750000 0.844312500000
vt 0.003906250000 0.844312500000
vt 0.003906250000 0.960937500000
vt 0.120531250000 0.960937500000
vt 0.120531250000 0.959625000000
vt 0.003906250000 0.959625000000
vt 0.003906250000 0.960937500000
vt 0.005218750000 0.960937500000
vt 0.005218750000 0.957031250000
vt 0.003906250000 0.957031250000
vt 0.003906250000 0.960937500000
vt 0.007812500000 0.960937500000
vt 0.007812500000 0.959625000000
vt 0.003906250000 0.959625000000
vt 0.304687500000 0.894531250000
vt 0.307734375000 0.894531250000
vt 0.307734375000 0.888437500000
vt 0.304687500000 0.888437500000
vt 0.304687500000 0.894531250000
vt 0.310781250000 0.894531250000
vt 0.310781250000 0.891484375000
vt 0.304687500000 0.891484375000
vt 0.304687500000 0.894531250000
vt 0.310312500000 0.894531250000
vt 0.310312500000 0.891484375000
vt 0.304687500000 0.891484375000
vt 0.304687500000 0.894531250000
vt 0.307734375000 0.894531250000
vt 0.307734375000 0.888906250000
vt 0.304687500000 0.888906250000
vt 0.304687500000 0.894531250000
vt 0.310312500000 0.894531250000
vt 0.310312500000 0.888437500000
vt 0.304687500000 0.888437500000
vt 0.304687500000 0.894531250000
vt 0.310781250000 0.894531250000
vt 0.310781250000 0.888906250000
vt 0.304687500000 0.888906250000
vt 0.003906250000 0.996093750000
vt 0.122265625000 0.996093750000
vt 0.122265625000 0.992187500000
vt 0.003906250000 0.992187500000
vt 0.003906250000 0.960937500000
vt 0.007812500000 0.960937500000
vt 0.007812500000 0.842578125000
vt 0.003906250000 0.842578125000
vt 0.003906250000 0.960937500000
vt 0.005218750000 0.960937500000
vt 0.005218750000 0.842578125000
vt 0.003906250000 0.842578125000
vt 0.003906250000 0.960937500000
vt 0.122265625000 0.960937500000
vt 0.122265625000 0.959625000000
vt 0.003906250000 0.959625000000
vt 0.003906250000 0.960937500000
vt 0.005218750000 0.960937500000
vt 0.005218750000 0.957031250000
vt 0.003906250000 0.957031250000
vt 0.003906250000 0.960937500000
vt 0.007812500000 0.960937500000
vt 0.007812500000 0.959625000000
vt 0.003906250000 0.959625000000
vt 0.304687500000 0.894531250000
vt 0.307734375000 0.894531250000
vt 0.307734375000 0.888437500000
vt 0.304687500000 0.888437500000
vt 0.304687500000 0.894531250000
vt 0.310781250000 0.894531250000
vt 0.310781250000 0.891484375000
vt 0.304687500000 0.891484375000
vt 0.304687500000 0.894531250000
vt 0.310312500000 0.894531250000
vt 0.310312500000 0.891484375000
vt 0.304687500000 0.891484375000
vt 0.304687500000 0.894531250000
vt 0.307734375000 0.894531250000
vt 0.307734375000 0.888906250000
vt 0.304687500000 0.888906250000
vt 0.304687500000 0.894531250000
vt 0.310312500000 0.894531250000
vt 0.310312500000 0.888437500000
vt 0.304687500000 0.888437500000
vt 0.304687500000 0.894531250000
vt 0.310781250000 0.894531250000
vt 0.310781250000 0.888906250000
vt 0.304687500000 0.888906250000
usemtl atlas
s off
g root
g body
g hanging_body
g section_head
f 1/1 4/2 3/3
f 1/1 3/3 2/4
f 5/5 6/6 7/7
f 5/5 7/7 8/8
f 1/9 5/10 8/11
f 1/9 8/11 4/12
f 2/13 3/14 7/15
f 2/13 7/15 6/16
f 4/17 8/18 7/19
f 4/17 7/19 3/20
f 1/21 2/22 6/23
f 1/21 6/23 5/24
f 9/25 12/26 11/27
f 9/25 11/27 10/28
f 13/29 14/30 15/31
f 13/29 15/31 16/32
f 9/33 13/34 16/35
f 9/33 16/35 12/36
f 10/37 11/38 15/39
f 10/37 15/39 14/40
f 12/41 16/42 15/43
f 12/41 15/43 11/44
f 9/45 10/46 14/47
f 9/45 14/47 13/48
f 17/49 20/50 19/51
f 17/49 19/51 18/52
f 21/53 22/54 23/55
f 21/53 23/55 24/56
f 17/57 21/58 24/59
f 17/57 24/59 20/60
f 18/61 19/62 23/63
f 18/61 23/63 22/64
f 20/65 24/66 23/67
f 20/65 23/67 19/68
f 17/69 18/70 22/71
f 17/69 22/71 21/72
f 25/73 28/74 27/75
f 25/73 27/75 26/76
f 29/77 30/78 31/79
f 29/77 31/79 32/80
f 25/81 29/82 32/83
f 25/81 32/83 28/84
f 26/85 27/86 31/87
f 26/85 31/87 30/88
f 28/89 32/90 31/91
f 28/89 31/91 27/92
f 25/93 26/94 30/95
f 25/93 30/95 29/96
f 33/97 36/98 35/99
f 33/97 35/99 34/100
f 37/101 38/102 39/103
f 37/101 39/103 40/104
f 33/105 37/106 40/107
f 33/105 40/107 36/108
f 34/109 35/110 39/111
f 34/109 39/111 38/112
f 36/113 40/114 39/115
f 36/113 39/115 35/116
f 33/117 34/118 38/119
f 33/117 38/119 37/120
g section_chest
f 41/121 44/122 43/123
f 41/121 43/123 42/124
f 45/125 46/126 47/127
f 45/125 47/127 48/128
f 41/129 45/130 48/131
f 41/129 48/131 44/132
f 42/133 43/134 47/135
f 42/133 47/135 46/136
f 44/137 48/138 47/139
f 44/137 47/139 43/140
f 41/141 42/142 46/143
f 41/141 46/143 45/144
f 49/145 52/146 51/147
f 49/145 51/147 50/148
f 53/149 54/150 55/151
f 53/149 55/151 56/152
f 49/153 53/154 56/155
f 49/153 56/155 52/156
f 50/157 51/158 55/159
f 50/157 55/159 54/160
f 52/161 56/162 55/163
f 52/161 55/163 51/164
f 49/165 50/166 54/167
f 49/165 54/167 53/168
f 57/169 60/170 59/171
f 57/169 59/171 58/172
f 61/173 62/174 63/175
f 61/173 63/175 64/176
f 57/177 61/178 64/179
f 57/177 64/179 60/180
f 58/181 59/182 63/183
f 58/181 63/183 62/184
f 60/185 64/186 63/187
f 60/185 63/187 59/188
f 57/189 58/190 62/191
f 57/189 62/191 61/192
f 65/193 68/194 67/195
f 65/193 67/195 66/196
f 69/197 70/198 71/199
f 69/197 71/199 72/200
f 65/201 69/202 72/203
f 65/201 72/203 68/204
f 66/205 67/206 71/207
f 66/205 71/207 70/208
f 68/209 72/210 71/211
f 68/209 71/211 67/212
f 65/213 66/214 70/215
f 65/213 70/215 69/216
f 73/217 76/218 75/219
f 73/217 75/219 74/220
f 77/221 78/222 79/223
f 77/221 79/223 80/224
f 73/225 77/226 80/227
f 73/225 80/227 76/228
f 74/229 75/230 79/231
f 74/229 79/231 78/232
f 76/233 80/234 79/235
f 76/233 79/235 75/236
f 73/237 74/238 78/239
f 73/237 78/239 77/240
g section_pelvis
f 81/241 84/242 83/243
f 81/241 83/243 82/244
f 85/245 86/246 87/247
f 85/245 87/247 88/248
f 81/249 85/250 88/251
f 81/249 88/251 84/252
f 82/253 83/254 87/255
f 82/253 87/255 86/256
f 84/257 88/258 87/259
f 84/257 87/259 83/260
f 81/261 82/262 86/263
f 81/261 86/263 85/264
f 89/265 92/266 91/267
f 89/265 91/267 90/268
f 93/269 94/270 95/271
f 93/269 95/271 96/272
f 89/273 93/274 96/275
f 89/273 96/275 92/276
f 90/277 91/278 95/279
f 90/277 95/279 94/280
f 92/281 96/282 95/283
f 92/281 95/283 91/284
f 89/285 90/286 94/287
f 89/285 94/287 93/288
f 97/289 100/290 99/291
f 97/289 99/291 98/292
f 101/293 102/294 103/295
f 101/293 103/295 104/296
f 97/297 101/298 104/299
f 97/297 104/299 100/300
f 98/301 99/302 103/303
f 98/301 103/303 102/304
f 100/305 104/306 103/307
f 100/305 103/307 99/308
f 97/309 98/310 102/311
f 97/309 102/311 101/312
f 105/313 108/314 107/315
f 105/313 107/315 106/316
f 109/317 110/318 111/319
f 109/317 111/319 112/320
f 105/321 109/322 112/323
f 105/321 112/323 108/324
f 106/325 107/326 111/327
f 106/325 111/327 110/328
f 108/329 112/330 111/331
f 108/329 111/331 107/332
f 105/333 106/334 110/335
f 105/333 110/335 109/336
f 113/337 116/338 115/339
f 113/337 115/339 114/340
f 117/341 118/342 119/343
f 117/341 119/343 120/344
f 113/345 117/346 120/347
f 113/345 120/347 116/348
f 114/349 115/350 119/351
f 114/349 119/351 118/352
f 116/353 120/354 119/355
f 116/353 119/355 115/356
f 113/357 114/358 118/359
f 113/357 118/359 117/360
g section_arm_left
f 121/361 124/362 123/363
f 121/361 123/363 122/364
f 125/365 126/366 127/367
f 125/365 127/367 128/368
f 121/369 125/370 128/371
f 121/369 128/371 124/372
f 122/373 123/374 127/375
f 122/373 127/375 126/376
f 124/377 128/378 127/379
f 124/377 127/379 123/380
f 121/381 122/382 126/383
f 121/381 126/383 125/384
f 129/385 132/386 131/387
f 129/385 131/387 130/388
f 133/389 134/390 135/391
f 133/389 135/391 136/392
f 129/393 133/394 136/395
f 129/393 136/395 132/396
f 130/397 131/398 135/399
f 130/397 135/399 134/400
f 132/401 136/402 135/403
f 132/401 135/403 131/404
f 129/405 130/406 134/407
f 129/405 134/407 133/408
f 137/409 140/410 139/411
f 137/409 139/411 138/412
f 141/413 142/414 143/415
f 141/413 143/415 144/416
f 137/417 141/418 144/419
f 137/417 144/419 140/420
f 138/421 139/422 143/423
f 138/421 143/423 142/424
f 140/425 144/426 143/427
f 140/425 143/427 139/428
f 137/429 138/430 142/431
f 137/429 142/431 141/432
f 145/433 148/434 147/435
f 145/433 147/435 146/436
f 149/437 150/438 151/439
f 149/437 151/439 152/440
f 145/441 149/442 152/443
f 145/441 152/443 148/444
f 146/445 147/446 151/447
f 146/445 151/447 150/448
f 148/449 152/450 151/451
f 148/449 151/451 147/452
f 145/453 146/454 150/455
f 145/453 150/455 149/456
f 153/457 156/458 155/459
f 153/457 155/459 154/460
f 157/461 158/462 159/463
f 157/461 159/463 160/464
f 153/465 157/466 160/467
f 153/465 160/467 156/468
f 154/469 155/470 159/471
f 154/469 159/471 158/472
f 156/473 160/474 159/475
f 156/473 159/475 155/476
f 153/477 154/478 158/479
f 153/477 158/479 157/480
g section_arm_right
f 161/481 164/482 163/483
f 161/481 163/483 162/484
f 165/485 166/486 167/487
f 165/485 167/487 168/488
f 161/489 165/490 168/491
f 161/489 168/491 164/492
f 162/493 163/494 167/495
f 162/493 167/495 166/496
f 164/497 168/498 167/499
f 164/497 167/499 163/500
f 161/501 162/502 166/503
f 161/501 166/503 165/504
f 169/505 172/506 171/507
f 169/505 171/507 170/508
f 173/509 174/510 175/511
f 173/509 175/511 176/512
f 169/513 173/514 176/515
f 169/513 176/515 172/516
f 170/517 171/518 175/519
f 170/517 175/519 174/520
f 172/521 176/522 175/523
f 172/521 175/523 171/524
f 169/525 170/526 174/527
f 169/525 174/527 173/528
f 177/529 180/530 179/531
f 177/529 179/531 178/532
f 181/533 182/534 183/535
f 181/533 183/535 184/536
f 177/537 181/538 184/539
f 177/537 184/539 180/540
f 178/541 179/542 183/543
f 178/541 183/543 182/544
f 180/545 184/546 183/547
f 180/545 183/547 179/548
f 177/549 178/550 182/551
f 177/549 182/551 181/552
f 185/553 188/554 187/555
f 185/553 187/555 186/556
f 189/557 190/558 191/559
f 189/557 191/559 192/560
f 185/561 189/562 192/563
f 185/561 192/563 188/564
f 186/565 187/566 191/567
f 186/565 191/567 190/568
f 188/569 192/570 191/571
f 188/569 191/571 187/572
f 185/573 186/574 190/575
f 185/573 190/575 189/576
f 193/577 196/578 195/579
f 193/577 195/579 194/580
f 197/581 198/582 199/583
f 197/581 199/583 200/584
f 193/585 197/586 200/587
f 193/585 200/587 196/588
f 194/589 195/590 199/591
f 194/589 199/591 198/592
f 196/593 200/594 199/595
f 196/593 199/595 195/596
f 193/597 194/598 198/599
f 193/597 198/599 197/600
g section_leg_left
f 201/601 204/602 203/603
f 201/601 203/603 202/604
f 205/605 206/606 207/607
f 205/605 207/607 208/608
f 201/609 205/610 208/611
f 201/609 208/611 204/612
f 202/613 203/614 207/615
f 202/613 207/615 206/616
f 204/617 208/618 207/619
f 204/617 207/619 203/620
f 201/621 202/622 206/623
f 201/621 206/623 205/624
f 209/625 212/626 211/627
f 209/625 211/627 210/628
f 213/629 214/630 215/631
f 213/629 215/631 216/632
f 209/633 213/634 216/635
f 209/633 216/635 212/636
f 210/637 211/638 215/639
f 210/637 215/639 214/640
f 212/641 216/642 215/643
f 212/641 215/643 211/644
f 209/645 210/646 214/647
f 209/645 214/647 213/648
f 217/649 220/650 219/651
f 217/649 219/651 218/652
f 221/653 222/654 223/655
f 221/653 223/655 224/656
f 217/657 221/658 224/659
f 217/657 224/659 220/660
f 218/661 219/662 223/663
f 218/661 223/663 222/664
f 220/665 224/666 223/667
f 220/665 223/667 219/668
f 217/669 218/670 222/671
f 217/669 222/671 221/672
f 225/673 228/674 227/675
f 225/673 227/675 226/676
f 229/677 230/678 231/679
f 229/677 231/679 232/680
f 225/681 229/682 232/683
f 225/681 232/683 228/684
f 226/685 227/686 231/687
f 226/685 231/687 230/688
f 228/689 232/690 231/691
f 228/689 231/691 227/692
f 225/693 226/694 230/695
f 225/693 230/695 229/696
f 233/697 236/698 235/699
f 233/697 235/699 234/700
f 237/701 238/702 239/703
f 237/701 239/703 240/704
f 233/705 237/706 240/707
f 233/705 240/707 236/708
f 234/709 235/710 239/711
f 234/709 239/711 238/712
f 236/713 240/714 239/715
f 236/713 239/715 235/716
f 233/717 234/718 238/719
f 233/717 238/719 237/720
g section_leg_right
f 241/721 244/722 243/723
f 241/721 243/723 242/724
f 245/725 246/726 247/727
f 245/725 247/727 248/728
f 241/729 245/730 248/731
f 241/729 248/731 244/732
f 242/733 243/734 247/735
f 242/733 247/735 246/736
f 244/737 248/738 247/739
f 244/737 247/739 243/740
f 241/741 242/742 246/743
f 241/741 246/743 245/744
f 249/745 252/746 251/747
f 249/745 251/747 250/748
f 253/749 254/750 255/751
f 253/749 255/751 256/752
f 249/753 253/754 256/755
f 249/753 256/755 252/756
f 250/757 251/758 255/759
f 250/757 255/759 254/760
f 252/761 256/762 255/763
f 252/761 255/763 251/764
f 249/765 250/766 254/767
f 249/765 254/767 253/768
f 257/769 260/770 259/771
f 257/769 259/771 258/772
f 261/773 262/774 263/775
f 261/773 263/775 264/776
f 257/777 261/778 264/779
f 257/777 264/779 260/780
f 258/781 259/782 263/783
f 258/781 263/783 262/784
f 260/785 264/786 263/787
f 260/785 263/787 259/788
f 257/789 258/790 262/791
f 257/789 262/791 261/792
f 265/793 268/794 267/795
f 265/793 267/795 266/796
f 269/797 270/798 271/799
f 269/797 271/799 272/800
f 265/801 269/802 272/803
f 265/801 272/803 268/804
f 266/805 267/806 271/807
f 266/805 271/807 270/808
f 268/809 272/810 271/811
f 268/809 271/811 267/812
f 265/813 266/814 270/815
f 265/813 270/815 269/816
f 273/817 276/818 275/819
f 273/817 275/819 274/820
f 277/821 278/822 279/823
f 277/821 279/823 280/824
f 273/825 277/826 280/827
f 273/825 280/827 276/828
f 274/829 275/830 279/831
f 274/829 279/831 278/832
f 276/833 280/834 279/835
f 276/833 279/835 275/836
f 273/837 274/838 278/839
f 273/837 278/839 277/840
g seam_neck
f 281/841 284/842 283/843
f 281/841 283/843 282/844
f 285/845 286/846 287/847
f 285/845 287/847 288/848
f 281/849 285/850 288/851
f 281/849 288/851 284/852
f 282/853 283/854 287/855
f 282/853 287/855 286/856
f 284/857 288/858 287/859
f 284/857 287/859 283/860
f 281/861 282/862 286/863
f 281/861 286/863 285/864
g seam_waist
f 289/865 292/866 291/867
f 289/865 291/867 290/868
f 293/869 294/870 295/871
f 293/869 295/871 296/872
f 289/873 293/874 296/875
f 289/873 296/875 292/876
f 290/877 291/878 295/879
f 290/877 295/879 294/880
f 292/881 296/882 295/883
f 292/881 295/883 291/884
f 289/885 290/886 294/887
f 289/885 294/887 293/888
g seam_hip_left
f 297/889 300/890 299/891
f 297/889 299/891 298/892
f 301/893 302/894 303/895
f 301/893 303/895 304/896
f 297/897 301/898 304/899
f 297/897 304/899 300/900
f 298/901 299/902 303/903
f 298/901 303/903 302/904
f 300/905 304/906 303/907
f 300/905 303/907 299/908
f 297/909 298/910 302/911
f 297/909 302/911 301/912
g seam_hip_right
f 305/913 308/914 307/915
f 305/913 307/915 306/916
f 309/917 310/918 311/919
f 309/917 311/919 312/920
f 305/921 309/922 312/923
f 305/921 312/923 308/924
f 306/925 307/926 311/927
f 306/925 311/927 310/928
f 308/929 312/930 311/931
f 308/929 311/931 307/932
f 305/933 306/934 310/935
f 305/933 310/935 309/936
g seam_shoulder_left
f 313/937 316/938 315/939
f 313/937 315/939 314/940
f 317/941 318/942 319/943
f 317/941 319/943 320/944
f 313/945 317/946 320/947
f 313/945 320/947 316/948
f 314/949 315/950 319/951
f 314/949 319/951 318/952
f 316/953 320/954 319/955
f 316/953 319/955 315/956
f 313/957 314/958 318/959
f 313/957 318/959 317/960
g seam_shoulder_right
f 321/961 324/962 323/963
f 321/961 323/963 322/964
f 325/965 326/966 327/967
f 325/965 327/967 328/968
f 321/969 325/970 328/971
f 321/969 328/971 324/972
f 322/973 323/974 327/975
f 322/973 327/975 326/976
f 324/977 328/978 327/979
f 324/977 327/979 323/980
f 321/981 322/982 326/983
f 321/981 326/983 325/984
g seam_waist_back
f 329/985 332/986 331/987
f 329/985 331/987 330/988
f 333/989 334/990 335/991
f 333/989 335/991 336/992
f 329/993 333/994 336/995
f 329/993 336/995 332/996
f 330/997 331/998 335/999
f 330/997 335/999 334/1000
f 332/1001 336/1002 335/1003
f 332/1001 335/1003 331/1004
f 329/1005 330/1006 334/1007
f 329/1005 334/1007 333/1008
g string_crown
f 341/1013 342/1014 343/1015
f 341/1013 343/1015 344/1016
f 337/1017 341/1018 344/1019
f 337/1017 344/1019 340/1020
f 338/1021 339/1022 343/1023
f 338/1021 343/1023 342/1024
f 340/1025 344/1026 343/1027
f 340/1025 343/1027 339/1028
f 337/1029 338/1030 342/1031
f 337/1029 342/1031 341/1032
g socket_crown
f 345/1033 348/1034 347/1035
f 345/1033 347/1035 346/1036
f 349/1037 350/1038 351/1039
f 349/1037 351/1039 352/1040
f 345/1041 349/1042 352/1043
f 345/1041 352/1043 348/1044
f 346/1045 347/1046 351/1047
f 346/1045 351/1047 350/1048
f 348/1049 352/1050 351/1051
f 348/1049 351/1051 347/1052
f 345/1053 346/1054 350/1055
f 345/1053 350/1055 349/1056
g string_shoulder_inner_left
f 357/1061 358/1062 359/1063
f 357/1061 359/1063 360/1064
f 353/1065 357/1066 360/1067
f 353/1065 360/1067 356/1068
f 354/1069 355/1070 359/1071
f 354/1069 359/1071 358/1072
f 356/1073 360/1074 359/1075
f 356/1073 359/1075 355/1076
f 353/1077 354/1078 358/1079
f 353/1077 358/1079 357/1080
g socket_shoulder_inner_left
f 361/1081 364/1082 363/1083
f 361/1081 363/1083 362/1084
f 365/1085 366/1086 367/1087
f 365/1085 367/1087 368/1088
f 361/1089 365/1090 368/1091
f 361/1089 368/1091 364/1092
f 362/1093 363/1094 367/1095
f 362/1093 367/1095 366/1096
f 364/1097 368/1098 367/1099
f 364/1097 367/1099 363/1100
f 361/1101 362/1102 366/1103
f 361/1101 366/1103 365/1104
g string_shoulder_outer_left
f 373/1109 374/1110 375/1111
f 373/1109 375/1111 376/1112
f 369/1113 373/1114 376/1115
f 369/1113 376/1115 372/1116
f 370/1117 371/1118 375/1119
f 370/1117 375/1119 374/1120
f 372/1121 376/1122 375/1123
f 372/1121 375/1123 371/1124
f 369/1125 370/1126 374/1127
f 369/1125 374/1127 373/1128
g socket_shoulder_outer_left
f 377/1129 380/1130 379/1131
f 377/1129 379/1131 378/1132
f 381/1133 382/1134 383/1135
f 381/1133 383/1135 384/1136
f 377/1137 381/1138 384/1139
f 377/1137 384/1139 380/1140
f 378/1141 379/1142 383/1143
f 378/1141 383/1143 382/1144
f 380/1145 384/1146 383/1147
f 380/1145 383/1147 379/1148
f 377/1149 378/1150 382/1151
f 377/1149 382/1151 381/1152
g string_shoulder_inner_right
f 389/1157 390/1158 391/1159
f 389/1157 391/1159 392/1160
f 385/1161 389/1162 392/1163
f 385/1161 392/1163 388/1164
f 386/1165 387/1166 391/1167
f 386/1165 391/1167 390/1168
f 388/1169 392/1170 391/1171
f 388/1169 391/1171 387/1172
f 385/1173 386/1174 390/1175
f 385/1173 390/1175 389/1176
g socket_shoulder_inner_right
f 393/1177 396/1178 395/1179
f 393/1177 395/1179 394/1180
f 397/1181 398/1182 399/1183
f 397/1181 399/1183 400/1184
f 393/1185 397/1186 400/1187
f 393/1185 400/1187 396/1188
f 394/1189 395/1190 399/1191
f 394/1189 399/1191 398/1192
f 396/1193 400/1194 399/1195
f 396/1193 399/1195 395/1196
f 393/1197 394/1198 398/1199
f 393/1197 398/1199 397/1200
g string_shoulder_outer_right
f 405/1205 406/1206 407/1207
f 405/1205 407/1207 408/1208
f 401/1209 405/1210 408/1211
f 401/1209 408/1211 404/1212
f 402/1213 403/1214 407/1215
f 402/1213 407/1215 406/1216
f 404/1217 408/1218 407/1219
f 404/1217 407/1219 403/1220
f 401/1221 402/1222 406/1223
f 401/1221 406/1223 405/1224
g socket_shoulder_outer_right
f 409/1225 412/1226 411/1227
f 409/1225 411/1227 410/1228
f 413/1229 414/1230 415/1231
f 413/1229 415/1231 416/1232
f 409/1233 413/1234 416/1235
f 409/1233 416/1235 412/1236
f 410/1237 411/1238 415/1239
f 410/1237 415/1239 414/1240
f 412/1241 416/1242 415/1243
f 412/1241 415/1243 411/1244
f 409/1245 410/1246 414/1247
f 409/1245 414/1247 413/1248
g string_crown__glow
f 337/1009 340/1010 339/1011
f 337/1009 339/1011 338/1012
g string_shoulder_inner_left__glow
f 353/1057 356/1058 355/1059
f 353/1057 355/1059 354/1060
g string_shoulder_outer_left__glow
f 369/1105 372/1106 371/1107
f 369/1105 371/1107 370/1108
g string_shoulder_inner_right__glow
f 385/1153 388/1154 387/1155
f 385/1153 387/1155 386/1156
g string_shoulder_outer_right__glow
f 401/1201 404/1202 403/1203
f 401/1201 403/1203 402/1204
