# di-04 | final single-asset pipeline | blocks +Y up -Z front
mtllib di-04.mtl
v -0.751808127860 1.489296100904 -0.456782267357
v 0.751808127860 1.489296100904 -0.456782267357
v 0.751808127860 2.405786009153 -0.456782267357
v -0.751808127860 2.405786009153 -0.456782267357
v -0.751808127860 1.489296100904 2.006284361062
v 0.751808127860 1.489296100904 2.006284361062
v 0.751808127860 2.405786009153 2.006284361062
v -0.751808127860 2.405786009153 2.006284361062
v -0.844889134167 1.797179429457 1.232996000977
v 0.844889134167 1.797179429457 1.232996000977
v 0.844889134167 2.584787944358 1.232996000977
v -0.844889134167 2.584787944358 1.232996000977
v -0.844889134167 1.797179429457 2.292687457390
v 0.844889134167 1.797179429457 2.292687457390
v 0.844889134167 2.584787944358 2.292687457390
v -0.844889134167 2.584787944358 2.292687457390
v -0.549177937208 2.520347247684 1.419014812042
v 0.549177937208 2.520347247684 1.419014812042
v 0.549177937208 2.720829415114 1.419014812042
v -0.549177937208 2.720829415114 1.419014812042
v -0.549177937208 2.520347247684 2.192589575223
v 0.549177937208 2.520347247684 2.192589575223
v 0.549177937208 2.720829415114 2.192589575223
v -0.549177937208 2.720829415114 2.192589575223
v -0.909329830841 2.011981751702 0.158984389748
v 0.909329830841 2.011981751702 0.158984389748
v 0.909329830841 2.799590266604 0.158984389748
v -0.909329830841 2.799590266604 0.158984389748
v -0.909329830841 2.011981751702 1.333237084692
v 0.909329830841 2.011981751702 1.333237084692
v 0.909329830841 2.799590266604 1.333237084692
v -0.909329830841 2.799590266604 1.333237084692
v -0.591064390046 2.735149569930 0.360468968014
v 0.591064390046 2.735149569930 0.360468968014
v 0.591064390046 2.935631737359 0.360468968014
v -0.591064390046 2.935631737359 0.360468968014
v -0.591064390046 2.735149569930 1.217673435323
v 0.591064390046 2.735149569930 1.217673435323
v 0.591064390046 2.935631737359 1.217673435323
v -0.591064390046 2.935631737359 1.217673435323
v -0.773288360085 1.782859274640 -0.793305905542
v 0.773288360085 1.782859274640 -0.793305905542
v 0.773288360085 2.570467789542 -0.793305905542
v -0.773288360085 2.570467789542 -0.793305905542
v -0.773288360085 1.782859274640 0.252065396054
v 0.773288360085 1.782859274640 0.252065396054
v 0.773288360085 2.570467789542 0.252065396054
v -0.773288360085 2.570467789542 0.252065396054
v -0.502637434055 2.506027092868 -0.609220315377
v 0.502637434055 2.506027092868 -0.609220315377
v 0.502637434055 2.706509260297 -0.609220315377
v -0.502637434055 2.706509260297 -0.609220315377
v -0.502637434055 2.506027092868 0.153900734788
v 0.502637434055 2.506027092868 0.153900734788
v 0.502637434055 2.706509260297 0.153900734788
v -0.502637434055 2.706509260297 0.153900734788
v -0.887133590875 1.901000551875 0.309346015320
v -0.887133590875 1.901000551875 -0.306420641785
v -0.887133590875 1.994081558182 -0.306420641785
v -0.887133590875 1.994081558182 0.309346015320
v -0.837013049018 1.901000551875 0.309346015320
v -0.837013049018 1.901000551875 -0.306420641785
v -0.837013049018 1.994081558182 -0.306420641785
v -0.837013049018 1.994081558182 0.309346015320
v -0.887133590875 1.901000551875 1.182875459120
v -0.887133590875 1.901000551875 0.567108802015
v -0.887133590875 1.994081558182 0.567108802015
v -0.887133590875 1.994081558182 1.182875459120
v -0.837013049018 1.901000551875 1.182875459120
v -0.837013049018 1.901000551875 0.567108802015
v -0.837013049018 1.994081558182 0.567108802015
v -0.837013049018 1.994081558182 1.182875459120
v -0.887133590875 1.901000551875 2.013444438470
v -0.887133590875 1.901000551875 1.397677781365
v -0.887133590875 1.994081558182 1.397677781365
v -0.887133590875 1.994081558182 2.013444438470
v -0.837013049018 1.901000551875 2.013444438470
v -0.837013049018 1.901000551875 1.397677781365
v -0.837013049018 1.994081558182 1.397677781365
v -0.837013049018 1.994081558182 2.013444438470
v 0.887133590875 1.901000551875 -0.306420641785
v 0.887133590875 1.901000551875 0.309346015320
v 0.887133590875 1.994081558182 0.309346015320
v 0.887133590875 1.994081558182 -0.306420641785
v 0.837013049018 1.901000551875 -0.306420641785
v 0.837013049018 1.901000551875 0.309346015320
v 0.837013049018 1.994081558182 0.309346015320
v 0.837013049018 1.994081558182 -0.306420641785
v 0.887133590875 1.901000551875 0.567108802015
v 0.887133590875 1.901000551875 1.182875459120
v 0.887133590875 1.994081558182 1.182875459120
v 0.887133590875 1.994081558182 0.567108802015
v 0.837013049018 1.901000551875 0.567108802015
v 0.837013049018 1.901000551875 1.182875459120
v 0.837013049018 1.994081558182 1.182875459120
v 0.837013049018 1.994081558182 0.567108802015
v 0.887133590875 1.901000551875 1.397677781365
v 0.887133590875 1.901000551875 2.013444438470
v 0.887133590875 1.994081558182 2.013444438470
v 0.887133590875 1.994081558182 1.397677781365
v 0.837013049018 1.901000551875 1.397677781365
v 0.837013049018 1.901000551875 2.013444438470
v 0.837013049018 1.994081558182 2.013444438470
v 0.837013049018 1.994081558182 1.397677781365
v -0.465405031533 1.817859274640 -1.058228769645
v 0.465405031533 1.817859274640 -1.058228769645
v 0.465405031533 2.226784073948 -1.058228769645
v -0.465405031533 2.226784073948 -1.058228769645
v -0.465405031533 1.817859274640 -0.485422576990
v 0.465405031533 1.817859274640 -0.485422576990
v 0.465405031533 2.226784073948 -0.485422576990
v -0.465405031533 2.226784073948 -0.485422576990
v -0.473639120552 1.646817803885 -2.132240380874
v 0.473639120552 1.646817803885 -2.132240380874
v 0.473639120552 1.904580590580 -2.132240380874
v -0.473639120552 1.904580590580 -2.132240380874
v -0.751808127860 1.646817803885 -0.786145828134
v 0.751808127860 1.646817803885 -0.786145828134
v 0.751808127860 2.219623996540 -0.786145828134
v -0.751808127860 2.219623996540 -0.786145828134
v -0.594286424880 2.169503454683 -1.244390782258
v 0.594286424880 2.169503454683 -1.244390782258
v 0.594286424880 2.327025157663 -1.244390782258
v -0.594286424880 2.327025157663 -1.244390782258
v -0.594286424880 2.169503454683 -0.816145828134
v 0.594286424880 2.169503454683 -0.816145828134
v 0.594286424880 2.327025157663 -0.816145828134
v -0.594286424880 2.327025157663 -0.816145828134
v -0.393804257451 1.589537184619 -1.938918290853
v 0.393804257451 1.589537184619 -1.938918290853
v 0.393804257451 1.732738732783 -1.938918290853
v -0.393804257451 1.732738732783 -1.938918290853
v -0.393804257451 1.589537184619 -1.208590395217
v 0.393804257451 1.589537184619 -1.208590395217
v 0.393804257451 1.732738732783 -1.208590395217
v -0.393804257451 1.732738732783 -1.208590395217
v -0.599350962591 1.652208982982 1.334169496206
v -1.189978341799 2.128855639886 1.334169496206
v -1.848705463353 1.312606815352 2.035857082209
v -1.258078084145 0.835960158447 2.035857082209
v -0.299317759105 2.023989256866 2.048312413997
v -0.889945138313 2.500635913771 2.048312413997
v -1.548672259867 1.684387089237 2.750000000000
v -0.958044880659 1.207740432332 2.750000000000
v -1.303134088291 1.625337571660 1.433478168406
v -0.701687586003 1.625337571660 1.433478168406
v -0.701687586003 2.241104228765 1.433478168406
v -1.303134088291 2.241104228765 1.433478168406
v -1.303134088291 1.625337571660 2.257687457390
v -0.701687586003 1.625337571660 2.257687457390
v -0.701687586003 2.241104228765 2.257687457390
v -1.303134088291 2.241104228765 2.257687457390
v -1.675458113517 1.016730991964 2.120845599593
v -1.131292230495 1.016730991964 2.120845599593
v -1.131292230495 1.503616255721 2.120845599593
v -1.675458113517 1.503616255721 2.120845599593
v -1.675458113517 1.016730991964 2.665011482616
v -1.131292230495 1.016730991964 2.665011482616
v -1.131292230495 1.503616255721 2.665011482616
v -1.675458113517 1.503616255721 2.665011482616
v -1.249357337807 1.430107321257 2.251344745549
v -1.590938992608 1.392153804057 2.251344745549
v -1.490697908893 0.489984050625 1.277574218035
v -1.149116254093 0.527937567825 1.277574218035
v -1.215811351404 1.128193443627 2.534512336660
v -1.557393006205 1.090239926427 2.534512336660
v -1.457151922490 0.188070172995 1.560741809145
v -1.115570267689 0.226023690195 1.560741809145
v -1.525096487945 0.150361625572 1.154235149487
v -1.081171688637 0.150361625572 1.154235149487
v -1.081171688637 0.565646115247 1.154235149487
v -1.525096487945 0.565646115247 1.154235149487
v -1.525096487945 0.150361625572 1.684080877693
v -1.081171688637 0.150361625572 1.684080877693
v -1.081171688637 0.565646115247 1.684080877693
v -1.525096487945 0.565646115247 1.684080877693
v -1.618177494252 0.000000000000 0.602909189056
v -1.016730991964 0.000000000000 0.602909189056
v -1.016730991964 0.257762786695 0.602909189056
v -1.618177494252 0.257762786695 0.602909189056
v -1.618177494252 0.000000000000 1.605320026203
v -1.016730991964 0.000000000000 1.605320026203
v -1.016730991964 0.257762786695 1.605320026203
v -1.618177494252 0.257762786695 1.605320026203
v -1.603857339435 0.018000000000 0.395266944218
v -1.417695326822 0.018000000000 0.395266944218
v -1.417695326822 0.200482167429 0.395266944218
v -1.603857339435 0.200482167429 0.395266944218
v -1.603857339435 0.018000000000 0.839191743526
v -1.417695326822 0.018000000000 0.839191743526
v -1.417695326822 0.200482167429 0.839191743526
v -1.603857339435 0.200482167429 0.839191743526
v -1.217213159393 0.018000000000 0.395266944218
v -1.031051146780 0.018000000000 0.395266944218
v -1.031051146780 0.200482167429 0.395266944218
v -1.217213159393 0.200482167429 0.395266944218
v -1.217213159393 0.018000000000 0.839191743526
v -1.031051146780 0.018000000000 0.839191743526
v -1.031051146780 0.200482167429 0.839191743526
v -1.217213159393 0.200482167429 0.839191743526
v -1.016730991964 1.682618190926 -0.506902809214
v -0.472565108941 1.682618190926 -0.506902809214
v -0.472565108941 2.269744538397 -0.506902809214
v -1.016730991964 2.269744538397 -0.506902809214
v -1.016730991964 1.682618190926 0.108863847891
v -0.472565108941 1.682618190926 0.108863847891
v -0.472565108941 2.269744538397 0.108863847891
v -1.016730991964 2.269744538397 0.108863847891
v -0.561717594124 1.983164106438 -0.344408616145
v -0.815083593861 2.145152204630 -0.344408616145
v -1.373569631700 1.271622760831 -1.089056666598
v -1.120203631963 1.109634662638 -1.089056666598
v -0.674212507043 1.807210524693 -0.053630345178
v -0.927578506780 1.969198622885 -0.053630345178
v -1.486064544619 1.095669179086 -0.798278395630
v -1.232698544882 0.933681080893 -0.798278395630
v -1.482136023496 0.945130217882 -1.115509388911
v -1.124132153086 0.945130217882 -1.115509388911
v -1.124132153086 1.260173623842 -1.115509388911
v -1.482136023496 1.260173623842 -1.115509388911
v -1.482136023496 0.945130217882 -0.771825673317
v -1.124132153086 0.945130217882 -0.771825673317
v -1.124132153086 1.260173623842 -0.771825673317
v -1.482136023496 1.260173623842 -0.771825673317
v -1.173997381494 1.182089629015 -1.027665463569
v -1.383039696292 1.231499630695 -1.027665463569
v -1.569201708905 0.443891115793 -2.058716610349
v -1.360159394107 0.394481114114 -2.058716610349
v -1.223228480290 0.973804211029 -0.859669598659
v -1.432270795089 1.023214212709 -0.859669598659
v -1.618432807702 0.235605697807 -1.890720745438
v -1.409390492904 0.186195696128 -1.890720745438
v -1.675458113517 0.150361625572 -2.196681077548
v -1.303134088291 0.150361625572 -2.196681077548
v -1.303134088291 0.479725186349 -2.196681077548
v -1.675458113517 0.479725186349 -2.196681077548
v -1.675458113517 0.150361625572 -1.752756278240
v -1.303134088291 0.150361625572 -1.752756278240
v -1.303134088291 0.479725186349 -1.752756278240
v -1.675458113517 0.479725186349 -1.752756278240
v -1.550156758874 0.391078322940 -2.062377267235
v -1.714838539262 0.391078322940 -2.062377267235
v -1.714838539262 0.283677161818 -2.513462143952
v -1.550156758874 0.283677161818 -2.513462143952
v -1.550156758874 0.196048024531 -2.015941481900
v -1.714838539262 0.196048024531 -2.015941481900
v -1.714838539262 0.088646863409 -2.467026358616
v -1.550156758874 0.088646863409 -2.467026358616
v -1.700518384446 0.134297628987 -2.549517832571
v -1.564476913690 0.134297628987 -2.549517832571
v -1.564476913690 0.363420106049 -2.750000000000
v -1.700518384446 0.363420106049 -2.750000000000
v -1.700518384446 0.238026396239 -2.430970669997
v -1.564476913690 0.238026396239 -2.430970669997
v -1.564476913690 0.467148873301 -2.631452837427
v -1.700518384446 0.467148873301 -2.631452837427
v -1.671878074813 0.453004041403 -2.723731026475
v -1.593117223323 0.453004041403 -2.723731026475
v -1.593117223323 0.653486208833 -2.494608549413
v -1.671878074813 0.653486208833 -2.494608549413
v -1.671878074813 0.377564937947 -2.657721810951
v -1.593117223323 0.377564937947 -2.657721810951
v -1.593117223323 0.578047105377 -2.428599333889
v -1.671878074813 0.578047105377 -2.428599333889
v -1.263753662546 0.391078322940 -2.062377267235
v -1.428435442935 0.391078322940 -2.062377267235
v -1.428435442935 0.283677161818 -2.513462143952
v -1.263753662546 0.283677161818 -2.513462143952
v -1.263753662546 0.196048024531 -2.015941481900
v -1.428435442935 0.196048024531 -2.015941481900
v -1.428435442935 0.088646863409 -2.467026358616
v -1.263753662546 0.088646863409 -2.467026358616
v -1.414115288118 0.134297628987 -2.549517832571
v -1.278073817363 0.134297628987 -2.549517832571
v -1.278073817363 0.363420106049 -2.750000000000
v -1.414115288118 0.363420106049 -2.750000000000
v -1.414115288118 0.238026396239 -2.430970669997
v -1.278073817363 0.238026396239 -2.430970669997
v -1.278073817363 0.467148873301 -2.631452837427
v -1.414115288118 0.467148873301 -2.631452837427
v -1.385474978486 0.453004041403 -2.723731026475
v -1.306714126995 0.453004041403 -2.723731026475
v -1.306714126995 0.653486208833 -2.494608549413
v -1.385474978486 0.653486208833 -2.494608549413
v -1.385474978486 0.377564937947 -2.657721810951
v -1.306714126995 0.377564937947 -2.657721810951
v -1.306714126995 0.578047105377 -2.428599333889
v -1.385474978486 0.578047105377 -2.428599333889
v -1.532256565353 0.343683715593 -2.490244251284
v -1.446335636455 0.343683715593 -2.490244251284
v -1.446335636455 0.415284489675 -2.490244251284
v -1.532256565353 0.415284489675 -2.490244251284
v -1.532256565353 0.343683715593 -2.117920226058
v -1.446335636455 0.343683715593 -2.117920226058
v -1.446335636455 0.415284489675 -2.117920226058
v -1.532256565353 0.415284489675 -2.117920226058
v 1.189978341799 2.128855639886 1.334169496206
v 0.599350962591 1.652208982982 1.334169496206
v 1.258078084145 0.835960158447 2.035857082209
v 1.848705463353 1.312606815352 2.035857082209
v 0.889945138313 2.500635913771 2.048312413997
v 0.299317759105 2.023989256866 2.048312413997
v 0.958044880659 1.207740432332 2.750000000000
v 1.548672259867 1.684387089237 2.750000000000
v 0.701687586003 1.625337571660 1.433478168406
v 1.303134088291 1.625337571660 1.433478168406
v 1.303134088291 2.241104228765 1.433478168406
v 0.701687586003 2.241104228765 1.433478168406
v 0.701687586003 1.625337571660 2.257687457390
v 1.303134088291 1.625337571660 2.257687457390
v 1.303134088291 2.241104228765 2.257687457390
v 0.701687586003 2.241104228765 2.257687457390
v 1.131292230495 1.016730991964 2.120845599593
v 1.675458113517 1.016730991964 2.120845599593
v 1.675458113517 1.503616255721 2.120845599593
v 1.131292230495 1.503616255721 2.120845599593
v 1.131292230495 1.016730991964 2.665011482616
v 1.675458113517 1.016730991964 2.665011482616
v 1.675458113517 1.503616255721 2.665011482616
v 1.131292230495 1.503616255721 2.665011482616
v 1.590938992608 1.392153804057 2.251344745549
v 1.249357337807 1.430107321257 2.251344745549
v 1.149116254093 0.527937567825 1.277574218035
v 1.490697908893 0.489984050625 1.277574218035
v 1.557393006205 1.090239926427 2.534512336660
v 1.215811351404 1.128193443627 2.534512336660
v 1.115570267689 0.226023690195 1.560741809145
v 1.457151922490 0.188070172995 1.560741809145
v 1.081171688637 0.150361625572 1.154235149487
v 1.525096487945 0.150361625572 1.154235149487
v 1.525096487945 0.565646115247 1.154235149487
v 1.081171688637 0.565646115247 1.154235149487
v 1.081171688637 0.150361625572 1.684080877693
v 1.525096487945 0.150361625572 1.684080877693
v 1.525096487945 0.565646115247 1.684080877693
v 1.081171688637 0.565646115247 1.684080877693
v 1.016730991964 0.000000000000 0.602909189056
v 1.618177494252 0.000000000000 0.602909189056
v 1.618177494252 0.257762786695 0.602909189056
v 1.016730991964 0.257762786695 0.602909189056
v 1.016730991964 0.000000000000 1.605320026203
v 1.618177494252 0.000000000000 1.605320026203
v 1.618177494252 0.257762786695 1.605320026203
v 1.016730991964 0.257762786695 1.605320026203
v 1.031051146780 0.018000000000 0.395266944218
v 1.217213159393 0.018000000000 0.395266944218
v 1.217213159393 0.200482167429 0.395266944218
v 1.031051146780 0.200482167429 0.395266944218
v 1.031051146780 0.018000000000 0.839191743526
v 1.217213159393 0.018000000000 0.839191743526
v 1.217213159393 0.200482167429 0.839191743526
v 1.031051146780 0.200482167429 0.839191743526
v 1.417695326822 0.018000000000 0.395266944218
v 1.603857339435 0.018000000000 0.395266944218
v 1.603857339435 0.200482167429 0.395266944218
v 1.417695326822 0.200482167429 0.395266944218
v 1.417695326822 0.018000000000 0.839191743526
v 1.603857339435 0.018000000000 0.839191743526
v 1.603857339435 0.200482167429 0.839191743526
v 1.417695326822 0.200482167429 0.839191743526
v 0.472565108941 1.682618190926 -0.506902809214
v 1.016730991964 1.682618190926 -0.506902809214
v 1.016730991964 2.269744538397 -0.506902809214
v 0.472565108941 2.269744538397 -0.506902809214
v 0.472565108941 1.682618190926 0.108863847891
v 1.016730991964 1.682618190926 0.108863847891
v 1.016730991964 2.269744538397 0.108863847891
v 0.472565108941 2.269744538397 0.108863847891
v 0.815083593861 2.145152204630 -0.344408616145
v 0.561717594124 1.983164106438 -0.344408616145
v 1.120203631963 1.109634662638 -1.089056666598
v 1.373569631700 1.271622760831 -1.089056666598
v 0.927578506780 1.969198622885 -0.053630345178
v 0.674212507043 1.807210524693 -0.053630345178
v 1.232698544882 0.933681080893 -0.798278395630
v 1.486064544619 1.095669179086 -0.798278395630
v 1.124132153086 0.945130217882 -1.115509388911
v 1.482136023496 0.945130217882 -1.115509388911
v 1.482136023496 1.260173623842 -1.115509388911
v 1.124132153086 1.260173623842 -1.115509388911
v 1.124132153086 0.945130217882 -0.771825673317
v 1.482136023496 0.945130217882 -0.771825673317
v 1.482136023496 1.260173623842 -0.771825673317
v 1.124132153086 1.260173623842 -0.771825673317
v 1.383039696292 1.231499630695 -1.027665463569
v 1.173997381494 1.182089629015 -1.027665463569
v 1.360159394107 0.394481114114 -2.058716610349
v 1.569201708905 0.443891115793 -2.058716610349
v 1.432270795089 1.023214212709 -0.859669598659
v 1.223228480290 0.973804211029 -0.859669598659
v 1.409390492904 0.186195696128 -1.890720745438
v 1.618432807702 0.235605697807 -1.890720745438
v 1.303134088291 0.150361625572 -2.196681077548
v 1.675458113517 0.150361625572 -2.196681077548
v 1.675458113517 0.479725186349 -2.196681077548
v 1.303134088291 0.479725186349 -2.196681077548
v 1.303134088291 0.150361625572 -1.752756278240
v 1.675458113517 0.150361625572 -1.752756278240
v 1.675458113517 0.479725186349 -1.752756278240
v 1.303134088291 0.479725186349 -1.752756278240
v 1.428435442935 0.391078322940 -2.062377267235
v 1.263753662546 0.391078322940 -2.062377267235
v 1.263753662546 0.283677161818 -2.513462143952
v 1.428435442935 0.283677161818 -2.513462143952
v 1.428435442935 0.196048024531 -2.015941481900
v 1.263753662546 0.196048024531 -2.015941481900
v 1.263753662546 0.088646863409 -2.467026358616
v 1.428435442935 0.088646863409 -2.467026358616
v 1.278073817363 0.134297628987 -2.549517832571
v 1.414115288118 0.134297628987 -2.549517832571
v 1.414115288118 0.363420106049 -2.750000000000
v 1.278073817363 0.363420106049 -2.750000000000
v 1.278073817363 0.238026396239 -2.430970669997
v 1.414115288118 0.238026396239 -2.430970669997
v 1.414115288118 0.467148873301 -2.631452837427
v 1.278073817363 0.467148873301 -2.631452837427
v 1.306714126995 0.453004041403 -2.723731026475
v 1.385474978486 0.453004041403 -2.723731026475
v 1.385474978486 0.653486208833 -2.494608549413
v 1.306714126995 0.653486208833 -2.494608549413
v 1.306714126995 0.377564937947 -2.657721810951
v 1.385474978486 0.377564937947 -2.657721810951
v 1.385474978486 0.578047105377 -2.428599333889
v 1.306714126995 0.578047105377 -2.428599333889
v 1.714838539262 0.391078322940 -2.062377267235
v 1.550156758874 0.391078322940 -2.062377267235
v 1.550156758874 0.283677161818 -2.513462143952
v 1.714838539262 0.283677161818 -2.513462143952
v 1.714838539262 0.196048024531 -2.015941481900
v 1.550156758874 0.196048024531 -2.015941481900
v 1.550156758874 0.088646863409 -2.467026358616
v 1.714838539262 0.088646863409 -2.467026358616
v 1.564476913690 0.134297628987 -2.549517832571
v 1.700518384446 0.134297628987 -2.549517832571
v 1.700518384446 0.363420106049 -2.750000000000
v 1.564476913690 0.363420106049 -2.750000000000
v 1.564476913690 0.238026396239 -2.430970669997
v 1.700518384446 0.238026396239 -2.430970669997
v 1.700518384446 0.467148873301 -2.631452837427
v 1.564476913690 0.467148873301 -2.631452837427
v 1.593117223323 0.453004041403 -2.723731026475
v 1.671878074813 0.453004041403 -2.723731026475
v 1.671878074813 0.653486208833 -2.494608549413
v 1.593117223323 0.653486208833 -2.494608549413
v 1.593117223323 0.377564937947 -2.657721810951
v 1.671878074813 0.377564937947 -2.657721810951
v 1.671878074813 0.578047105377 -2.428599333889
v 1.593117223323 0.578047105377 -2.428599333889
v 1.446335636455 0.343683715593 -2.490244251284
v 1.532256565353 0.343683715593 -2.490244251284
v 1.532256565353 0.415284489675 -2.490244251284
v 1.446335636455 0.415284489675 -2.490244251284
v 1.446335636455 0.343683715593 -2.117920226058
v 1.532256565353 0.343683715593 -2.117920226058
v 1.532256565353 0.415284489675 -2.117920226058
v 1.446335636455 0.415284489675 -2.117920226058
v -1.367574784965 0.093081006307 0.968073136874
v -1.267333701250 0.093081006307 0.968073136874
v -1.267333701250 0.193322090021 0.968073136874
v -1.367574784965 0.193322090021 0.968073136874
v -1.367574784965 0.093081006307 1.068314220589
v -1.267333701250 0.093081006307 1.068314220589
v -1.267333701250 0.193322090021 1.068314220589
v -1.367574784965 0.193322090021 1.068314220589
v -1.336786452110 0.109549184345 0.988837361358
v -1.217929167134 0.109549184345 0.988837361358
v -1.217929167134 0.228406469321 0.988837361358
v -1.336786452110 0.228406469321 0.988837361358
v -1.336786452110 0.109549184345 1.107694646334
v -1.217929167134 0.109549184345 1.107694646334
v -1.217929167134 0.228406469321 1.107694646334
v -1.336786452110 0.228406469321 1.107694646334
v -1.558032844023 0.160385733944 -2.200977123993
v -1.420559357786 0.160385733944 -2.200977123993
v -1.420559357786 0.297859220181 -2.200977123993
v -1.558032844023 0.297859220181 -2.200977123993
v -1.558032844023 0.160385733944 -2.063503637755
v -1.420559357786 0.160385733944 -2.063503637755
v -1.420559357786 0.297859220181 -2.063503637755
v -1.558032844023 0.297859220181 -2.063503637755
v -1.499320209276 0.204778213874 -2.152288597617
v -1.399079125561 0.204778213874 -2.152288597617
v -1.399079125561 0.305019297589 -2.152288597617
v -1.499320209276 0.305019297589 -2.152288597617
v -1.499320209276 0.204778213874 -2.052047513902
v -1.399079125561 0.204778213874 -2.052047513902
v -1.399079125561 0.305019297589 -2.052047513902
v -1.499320209276 0.305019297589 -2.052047513902
v 1.258025600620 0.083772905676 0.958765036243
v 1.376882885596 0.083772905676 0.958765036243
v 1.376882885596 0.202630190652 0.958765036243
v 1.258025600620 0.202630190652 0.958765036243
v 1.258025600620 0.083772905676 1.077622321219
v 1.376882885596 0.083772905676 1.077622321219
v 1.376882885596 0.202630190652 1.077622321219
v 1.258025600620 0.202630190652 1.077622321219
v 1.288813933475 0.100241083715 0.979529260727
v 1.426287419712 0.100241083715 0.979529260727
v 1.426287419712 0.237714569952 0.979529260727
v 1.288813933475 0.237714569952 0.979529260727
v 1.288813933475 0.100241083715 1.117002746964
v 1.426287419712 0.100241083715 1.117002746964
v 1.426287419712 0.237714569952 1.117002746964
v 1.288813933475 0.237714569952 1.117002746964
v 1.439175559047 0.179001935205 -2.182360922731
v 1.539416642762 0.179001935205 -2.182360922731
v 1.539416642762 0.279243018920 -2.182360922731
v 1.439175559047 0.279243018920 -2.182360922731
v 1.439175559047 0.179001935205 -2.082119839017
v 1.539416642762 0.179001935205 -2.082119839017
v 1.539416642762 0.279243018920 -2.082119839017
v 1.439175559047 0.279243018920 -2.082119839017
v 1.469963891902 0.195470113244 -2.161596698248
v 1.588821176878 0.195470113244 -2.161596698248
v 1.588821176878 0.314327398220 -2.161596698248
v 1.469963891902 0.314327398220 -2.161596698248
v 1.469963891902 0.195470113244 -2.042739413272
v 1.588821176878 0.195470113244 -2.042739413272
v 1.588821176878 0.314327398220 -2.042739413272
v 1.469963891902 0.314327398220 -2.042739413272
vt 0.003906250000 0.996093750000
vt 0.046866714449 0.996093750000
vt 0.046866714449 0.925611738013
vt 0.003906250000 0.925611738013
vt 0.003906250000 0.996093750000
vt 0.074388261987 0.996093750000
vt 0.074388261987 0.953133285551
vt 0.003906250000 0.953133285551
vt 0.003906250000 0.996093750000
vt 0.119362498207 0.996093750000
vt 0.119362498207 0.953133285551
vt 0.003906250000 0.953133285551
vt 0.003906250000 0.996093750000
vt 0.046866714449 0.996093750000
vt 0.046866714449 0.880637501793
vt 0.003906250000 0.880637501793
vt 0.003906250000 0.996093750000
vt 0.119362498207 0.996093750000
vt 0.119362498207 0.925611738013
vt 0.003906250000 0.925611738013
vt 0.003906250000 0.996093750000
vt 0.074388261987 0.996093750000
vt 0.074388261987 0.880637501793
vt 0.003906250000 0.880637501793
vt 0.144531250000 0.996093750000
vt 0.181450399136 0.996093750000
vt 0.181450399136 0.916885393672
vt 0.144531250000 0.916885393672
vt 0.144531250000 0.996093750000
vt 0.223739606328 0.996093750000
vt 0.223739606328 0.959174600864
vt 0.144531250000 0.959174600864
vt 0.144531250000 0.996093750000
vt 0.194204287019 0.996093750000
vt 0.194204287019 0.959174600864
vt 0.144531250000 0.959174600864
vt 0.144531250000 0.996093750000
vt 0.181450399136 0.996093750000
vt 0.181450399136 0.946420712981
vt 0.144531250000 0.946420712981
vt 0.144531250000 0.996093750000
vt 0.194204287019 0.996093750000
vt 0.194204287019 0.916885393672
vt 0.144531250000 0.916885393672
vt 0.144531250000 0.996093750000
vt 0.223739606328 0.996093750000
vt 0.223739606328 0.946420712981
vt 0.144531250000 0.946420712981
vt 0.238281250000 0.996093750000
vt 0.247678851598 0.996093750000
vt 0.247678851598 0.944608318387
vt 0.238281250000 0.944608318387
vt 0.238281250000 0.996093750000
vt 0.289766681613 0.996093750000
vt 0.289766681613 0.986696148402
vt 0.238281250000 0.986696148402
vt 0.238281250000 0.996093750000
vt 0.274542567024 0.996093750000
vt 0.274542567024 0.986696148402
vt 0.238281250000 0.986696148402
vt 0.238281250000 0.996093750000
vt 0.247678851598 0.996093750000
vt 0.247678851598 0.959832432976
vt 0.238281250000 0.959832432976
vt 0.238281250000 0.996093750000
vt 0.274542567024 0.996093750000
vt 0.274542567024 0.944608318387
vt 0.238281250000 0.944608318387
vt 0.238281250000 0.996093750000
vt 0.289766681613 0.996093750000
vt 0.289766681613 0.959832432976
vt 0.238281250000 0.959832432976
vt 0.144531250000 0.996093750000
vt 0.181450399136 0.996093750000
vt 0.181450399136 0.910844078359
vt 0.144531250000 0.910844078359
vt 0.144531250000 0.996093750000
vt 0.229780921641 0.996093750000
vt 0.229780921641 0.959174600864
vt 0.144531250000 0.959174600864
vt 0.144531250000 0.996093750000
vt 0.199574345076 0.996093750000
vt 0.199574345076 0.959174600864
vt 0.144531250000 0.959174600864
vt 0.144531250000 0.996093750000
vt 0.181450399136 0.996093750000
vt 0.181450399136 0.941050654925
vt 0.144531250000 0.941050654925
vt 0.144531250000 0.996093750000
vt 0.199574345076 0.996093750000
vt 0.199574345076 0.910844078359
vt 0.144531250000 0.910844078359
vt 0.144531250000 0.996093750000
vt 0.229780921641 0.996093750000
vt 0.229780921641 0.941050654925
vt 0.144531250000 0.941050654925
vt 0.238281250000 0.996093750000
vt 0.247678851598 0.996093750000
vt 0.247678851598 0.940681463433
vt 0.238281250000 0.940681463433
vt 0.238281250000 0.996093750000
vt 0.293693536567 0.996093750000
vt 0.293693536567 0.986696148402
vt 0.238281250000 0.986696148402
vt 0.238281250000 0.996093750000
vt 0.278462709405 0.996093750000
vt 0.278462709405 0.986696148402
vt 0.238281250000 0.986696148402
vt 0.238281250000 0.996093750000
vt 0.247678851598 0.996093750000
vt 0.247678851598 0.955912290595
vt 0.238281250000 0.955912290595
vt 0.238281250000 0.996093750000
vt 0.278462709405 0.996093750000
vt 0.278462709405 0.940681463433
vt 0.238281250000 0.940681463433
vt 0.238281250000 0.996093750000
vt 0.293693536567 0.996093750000
vt 0.293693536567 0.955912290595
vt 0.238281250000 0.955912290595
vt 0.144531250000 0.996093750000
vt 0.181450399136 0.996093750000
vt 0.181450399136 0.923597966242
vt 0.144531250000 0.923597966242
vt 0.144531250000 0.996093750000
vt 0.217027033758 0.996093750000
vt 0.217027033758 0.959174600864
vt 0.144531250000 0.959174600864
vt 0.144531250000 0.996093750000
vt 0.193533029762 0.996093750000
vt 0.193533029762 0.959174600864
vt 0.144531250000 0.959174600864
vt 0.144531250000 0.996093750000
vt 0.181450399136 0.996093750000
vt 0.181450399136 0.947091970238
vt 0.144531250000 0.947091970238
vt 0.144531250000 0.996093750000
vt 0.193533029762 0.996093750000
vt 0.193533029762 0.923597966242
vt 0.144531250000 0.923597966242
vt 0.144531250000 0.996093750000
vt 0.217027033758 0.996093750000
vt 0.217027033758 0.947091970238
vt 0.144531250000 0.947091970238
vt 0.238281250000 0.996093750000
vt 0.247678851598 0.996093750000
vt 0.247678851598 0.948971490557
vt 0.238281250000 0.948971490557
vt 0.238281250000 0.996093750000
vt 0.285403509443 0.996093750000
vt 0.285403509443 0.986696148402
vt 0.238281250000 0.986696148402
vt 0.238281250000 0.996093750000
vt 0.274052549226 0.996093750000
vt 0.274052549226 0.986696148402
vt 0.238281250000 0.986696148402
vt 0.238281250000 0.996093750000
vt 0.247678851598 0.996093750000
vt 0.247678851598 0.960322450774
vt 0.238281250000 0.960322450774
vt 0.238281250000 0.996093750000
vt 0.274052549226 0.996093750000
vt 0.274052549226 0.948971490557
vt 0.238281250000 0.948971490557
vt 0.238281250000 0.996093750000
vt 0.285403509443 0.996093750000
vt 0.285403509443 0.960322450774
vt 0.238281250000 0.960322450774
vt 0.367187500000 0.996093750000
vt 0.371550672171 0.996093750000
vt 0.371550672171 0.967229687948
vt 0.367187500000 0.967229687948
vt 0.367187500000 0.996093750000
vt 0.396051562052 0.996093750000
vt 0.396051562052 0.991730577829
vt 0.367187500000 0.991730577829
vt 0.367187500000 0.996093750000
vt 0.369536900400 0.996093750000
vt 0.369536900400 0.991730577829
vt 0.367187500000 0.991730577829
vt 0.367187500000 0.996093750000
vt 0.371550672171 0.996093750000
vt 0.371550672171 0.993744349600
vt 0.367187500000 0.993744349600
vt 0.367187500000 0.996093750000
vt 0.369536900400 0.996093750000
vt 0.369536900400 0.967229687948
vt 0.367187500000 0.967229687948
vt 0.367187500000 0.996093750000
vt 0.396051562052 0.996093750000
vt 0.396051562052 0.993744349600
vt 0.367187500000 0.993744349600
vt 0.128906250000 0.996093750000
vt 0.133269422171 0.996093750000
vt 0.133269422171 0.967229687948
vt 0.128906250000 0.967229687948
vt 0.367187500000 0.996093750000
vt 0.396051562052 0.996093750000
vt 0.396051562052 0.991730577829
vt 0.367187500000 0.991730577829
vt 0.367187500000 0.996093750000
vt 0.369536900400 0.996093750000
vt 0.369536900400 0.991730577829
vt 0.367187500000 0.991730577829
vt 0.367187500000 0.996093750000
vt 0.371550672171 0.996093750000
vt 0.371550672171 0.993744349600
vt 0.367187500000 0.993744349600
vt 0.367187500000 0.996093750000
vt 0.369536900400 0.996093750000
vt 0.369536900400 0.967229687948
vt 0.367187500000 0.967229687948
vt 0.367187500000 0.996093750000
vt 0.396051562052 0.996093750000
vt 0.396051562052 0.993744349600
vt 0.367187500000 0.993744349600
vt 0.367187500000 0.996093750000
vt 0.371550672171 0.996093750000
vt 0.371550672171 0.967229687948
vt 0.367187500000 0.967229687948
vt 0.367187500000 0.996093750000
vt 0.396051562052 0.996093750000
vt 0.396051562052 0.991730577829
vt 0.367187500000 0.991730577829
vt 0.367187500000 0.996093750000
vt 0.369536900400 0.996093750000
vt 0.369536900400 0.991730577829
vt 0.367187500000 0.991730577829
vt 0.367187500000 0.996093750000
vt 0.371550672171 0.996093750000
vt 0.371550672171 0.993744349600
vt 0.367187500000 0.993744349600
vt 0.367187500000 0.996093750000
vt 0.369536900400 0.996093750000
vt 0.369536900400 0.967229687948
vt 0.367187500000 0.967229687948
vt 0.367187500000 0.996093750000
vt 0.396051562052 0.996093750000
vt 0.396051562052 0.993744349600
vt 0.367187500000 0.993744349600
vt 0.367187500000 0.996093750000
vt 0.371550672171 0.996093750000
vt 0.371550672171 0.967229687948
vt 0.367187500000 0.967229687948
vt 0.367187500000 0.996093750000
vt 0.396051562052 0.996093750000
vt 0.396051562052 0.991730577829
vt 0.367187500000 0.991730577829
vt 0.367187500000 0.996093750000
vt 0.369536900400 0.996093750000
vt 0.369536900400 0.991730577829
vt 0.367187500000 0.991730577829
vt 0.367187500000 0.996093750000
vt 0.371550672171 0.996093750000
vt 0.371550672171 0.993744349600
vt 0.367187500000 0.993744349600
vt 0.367187500000 0.996093750000
vt 0.369536900400 0.996093750000
vt 0.369536900400 0.967229687948
vt 0.367187500000 0.967229687948
vt 0.367187500000 0.996093750000
vt 0.396051562052 0.996093750000
vt 0.396051562052 0.993744349600
vt 0.367187500000 0.993744349600
vt 0.128906250000 0.996093750000
vt 0.133269422171 0.996093750000
vt 0.133269422171 0.967229687948
vt 0.128906250000 0.967229687948
vt 0.367187500000 0.996093750000
vt 0.396051562052 0.996093750000
vt 0.396051562052 0.991730577829
vt 0.367187500000 0.991730577829
vt 0.367187500000 0.996093750000
vt 0.369536900400 0.996093750000
vt 0.369536900400 0.991730577829
vt 0.367187500000 0.991730577829
vt 0.367187500000 0.996093750000
vt 0.371550672171 0.996093750000
vt 0.371550672171 0.993744349600
vt 0.367187500000 0.993744349600
vt 0.367187500000 0.996093750000
vt 0.369536900400 0.996093750000
vt 0.369536900400 0.967229687948
vt 0.367187500000 0.967229687948
vt 0.367187500000 0.996093750000
vt 0.396051562052 0.996093750000
vt 0.396051562052 0.993744349600
vt 0.367187500000 0.993744349600
vt 0.367187500000 0.996093750000
vt 0.371550672171 0.996093750000
vt 0.371550672171 0.967229687948
vt 0.367187500000 0.967229687948
vt 0.367187500000 0.996093750000
vt 0.396051562052 0.996093750000
vt 0.396051562052 0.991730577829
vt 0.367187500000 0.991730577829
vt 0.367187500000 0.996093750000
vt 0.369536900400 0.996093750000
vt 0.369536900400 0.991730577829
vt 0.367187500000 0.991730577829
vt 0.367187500000 0.996093750000
vt 0.371550672171 0.996093750000
vt 0.371550672171 0.993744349600
vt 0.367187500000 0.993744349600
vt 0.367187500000 0.996093750000
vt 0.369536900400 0.996093750000
vt 0.369536900400 0.967229687948
vt 0.367187500000 0.967229687948
vt 0.367187500000 0.996093750000
vt 0.396051562052 0.996093750000
vt 0.396051562052 0.993744349600
vt 0.367187500000 0.993744349600
vt 0.003906250000 0.996093750000
vt 0.023074599968 0.996093750000
vt 0.023074599968 0.952462028294
vt 0.003906250000 0.952462028294
vt 0.003906250000 0.996093750000
vt 0.047537971706 0.996093750000
vt 0.047537971706 0.976925400032
vt 0.003906250000 0.976925400032
vt 0.003906250000 0.996093750000
vt 0.030756540281 0.996093750000
vt 0.030756540281 0.976925400032
vt 0.003906250000 0.976925400032
vt 0.003906250000 0.996093750000
vt 0.023074599968 0.996093750000
vt 0.023074599968 0.969243459719
vt 0.003906250000 0.969243459719
vt 0.003906250000 0.996093750000
vt 0.030756540281 0.996093750000
vt 0.030756540281 0.952462028294
vt 0.003906250000 0.952462028294
vt 0.003906250000 0.996093750000
vt 0.047537971706 0.996093750000
vt 0.047537971706 0.969243459719
vt 0.003906250000 0.969243459719
vt 0.144531250000 0.996093750000
vt 0.156613880626 0.996093750000
vt 0.156613880626 0.951690082448
vt 0.144531250000 0.951690082448
vt 0.144531250000 0.996093750000
vt 0.215013261987 0.996093750000
vt 0.215013261987 0.969243459719
vt 0.144531250000 0.969243459719
vt 0.144531250000 0.996093750000
vt 0.208962613512 0.996093750000
vt 0.208962613512 0.969243459719
vt 0.144531250000 0.984011119374
vt 0.144531250000 0.996093750000
vt 0.156613880626 0.996093750000
vt 0.171381540281 0.931662386488
vt 0.144531250000 0.931662386488
vt 0.153290234715 0.996093750000
vt 0.219392310141 0.996093750000
vt 0.205489159800 0.926996597929
vt 0.144531250000 0.952562544195
vt 0.157570422218 0.996093750000
vt 0.201974089769 0.996093750000
vt 0.215013261987 0.932995567840
vt 0.144531250000 0.932995567840
vt 0.238281250000 0.996093750000
vt 0.245665079827 0.996093750000
vt 0.245665079827 0.940379397668
vt 0.238281250000 0.940379397668
vt 0.238281250000 0.996093750000
vt 0.293995602332 0.996093750000
vt 0.293995602332 0.988709920173
vt 0.238281250000 0.988709920173
vt 0.238281250000 0.996093750000
vt 0.258355232225 0.996093750000
vt 0.258355232225 0.988709920173
vt 0.238281250000 0.988709920173
vt 0.238281250000 0.996093750000
vt 0.245665079827 0.996093750000
vt 0.245665079827 0.976019767775
vt 0.238281250000 0.976019767775
vt 0.238281250000 0.996093750000
vt 0.258355232225 0.996093750000
vt 0.258355232225 0.940379397668
vt 0.238281250000 0.940379397668
vt 0.238281250000 0.996093750000
vt 0.293995602332 0.996093750000
vt 0.293995602332 0.976019767775
vt 0.238281250000 0.976019767775
vt 0.003906250000 0.996093750000
vt 0.010618822570 0.996093750000
vt 0.010618822570 0.959174600864
vt 0.003906250000 0.959174600864
vt 0.003906250000 0.996093750000
vt 0.040825399136 0.996093750000
vt 0.040825399136 0.989381177430
vt 0.003906250000 0.989381177430
vt 0.003906250000 0.996093750000
vt 0.038140370108 0.996093750000
vt 0.038140370108 0.989381177430
vt 0.003906250000 0.989381177430
vt 0.003906250000 0.996093750000
vt 0.010618822570 0.996093750000
vt 0.010618822570 0.961859629892
vt 0.003906250000 0.961859629892
vt 0.003906250000 0.996093750000
vt 0.038140370108 0.996093750000
vt 0.038140370108 0.959174600864
vt 0.003906250000 0.959174600864
vt 0.003906250000 0.996093750000
vt 0.040825399136 0.996093750000
vt 0.040825399136 0.961859629892
vt 0.003906250000 0.961859629892
vt 0.144531250000 0.996093750000
vt 0.203685736266 0.996093750000
vt 0.203685736266 0.960517115378
vt 0.144531250000 0.960517115378
vt 0.144531250000 0.996093750000
vt 0.180107884622 0.996093750000
vt 0.180107884622 0.936939263734
vt 0.144531250000 0.936939263734
vt 0.144531250000 0.996093750000
vt 0.184806685421 0.996093750000
vt 0.184806685421 0.936939263734
vt 0.144531250000 0.936939263734
vt 0.144531250000 0.996093750000
vt 0.203685736266 0.996093750000
vt 0.203685736266 0.955818314579
vt 0.144531250000 0.955818314579
vt 0.144531250000 0.996093750000
vt 0.184806685421 0.996093750000
vt 0.184806685421 0.960517115378
vt 0.144531250000 0.960517115378
vt 0.144531250000 0.996093750000
vt 0.180107884622 0.996093750000
vt 0.180107884622 0.955818314579
vt 0.144531250000 0.955818314579
vt 0.238281250000 0.996093750000
vt 0.267145312052 0.996093750000
vt 0.267145312052 0.967900945205
vt 0.238281250000 0.967900945205
vt 0.238281250000 0.996093750000
vt 0.266474054795 0.996093750000
vt 0.266474054795 0.967229687948
vt 0.238281250000 0.967229687948
vt 0.238281250000 0.996093750000
vt 0.276916060421 0.996093750000
vt 0.276916060421 0.967229687948
vt 0.238281250000 0.967229687948
vt 0.238281250000 0.996093750000
vt 0.267145312052 0.996093750000
vt 0.267145312052 0.957458939579
vt 0.238281250000 0.957458939579
vt 0.238281250000 0.996093750000
vt 0.276916060421 0.996093750000
vt 0.276916060421 0.967900945205
vt 0.238281250000 0.967900945205
vt 0.238281250000 0.996093750000
vt 0.266474054795 0.996093750000
vt 0.266474054795 0.957458939579
vt 0.238281250000 0.957458939579
vt 0.003906250000 0.996093750000
vt 0.026728996739 0.996093750000
vt 0.026728996739 0.970585974233
vt 0.003906250000 0.970585974233
vt 0.003906250000 0.996093750000
vt 0.029414025767 0.996093750000
vt 0.029414025767 0.973271003261
vt 0.003906250000 0.973271003261
vt 0.003906250000 0.996093750000
vt 0.029414025767 0.996093750000
vt 0.029414025767 0.973271003261
vt 0.003906250000 0.973271003261
vt 0.003906250000 0.996093750000
vt 0.026728996739 0.996093750000
vt 0.026728996739 0.970585974233
vt 0.003906250000 0.970585974233
vt 0.003906250000 0.996093750000
vt 0.029414025767 0.996093750000
vt 0.029414025767 0.970585974233
vt 0.003906250000 0.970585974233
vt 0.003906250000 0.996093750000
vt 0.029414025767 0.996093750000
vt 0.029414025767 0.970585974233
vt 0.003906250000 0.970585974233
vt 0.144531250000 0.996093750000
vt 0.206932907419 0.996093750000
vt 0.206932907419 0.979983575832
vt 0.144531250000 0.979983575832
vt 0.144531250000 0.996093750000
vt 0.160641424168 0.996093750000
vt 0.160641424168 0.933692092581
vt 0.144531250000 0.933692092581
vt 0.144531250000 0.996093750000
vt 0.163997710454 0.996093750000
vt 0.163997710454 0.933692092581
vt 0.144531250000 0.933692092581
vt 0.144531250000 0.996093750000
vt 0.206932907419 0.996093750000
vt 0.206932907419 0.976627289546
vt 0.144531250000 0.976627289546
vt 0.144531250000 0.996093750000
vt 0.163997710454 0.996093750000
vt 0.163997710454 0.979983575832
vt 0.144531250000 0.979983575832
vt 0.144531250000 0.996093750000
vt 0.160641424168 0.996093750000
vt 0.160641424168 0.976627289546
vt 0.144531250000 0.976627289546
vt 0.003906250000 0.996093750000
vt 0.023372710454 0.996093750000
vt 0.023372710454 0.975284775032
vt 0.003906250000 0.975284775032
vt 0.003906250000 0.996093750000
vt 0.024715224968 0.996093750000
vt 0.024715224968 0.976627289546
vt 0.003906250000 0.976627289546
vt 0.003906250000 0.996093750000
vt 0.028742768510 0.996093750000
vt 0.028742768510 0.976627289546
vt 0.003906250000 0.976627289546
vt 0.003906250000 0.996093750000
vt 0.023372710454 0.996093750000
vt 0.023372710454 0.971257231490
vt 0.003906250000 0.971257231490
vt 0.003906250000 0.996093750000
vt 0.028742768510 0.996093750000
vt 0.028742768510 0.975284775032
vt 0.003906250000 0.975284775032
vt 0.003906250000 0.996093750000
vt 0.024715224968 0.996093750000
vt 0.024715224968 0.971257231490
vt 0.003906250000 0.971257231490
vt 0.308593750000 0.996093750000
vt 0.320676380626 0.996093750000
vt 0.320676380626 0.967900945205
vt 0.308593750000 0.967900945205
vt 0.308593750000 0.996093750000
vt 0.336786554795 0.996093750000
vt 0.336786554795 0.984011119374
vt 0.308593750000 0.984011119374
vt 0.308593750000 0.996093750000
vt 0.355581757991 0.996093750000
vt 0.355581757991 0.984011119374
vt 0.308593750000 0.984011119374
vt 0.308593750000 0.996093750000
vt 0.320676380626 0.996093750000
vt 0.320676380626 0.949105742009
vt 0.308593750000 0.949105742009
vt 0.308593750000 0.996093750000
vt 0.355581757991 0.996093750000
vt 0.355581757991 0.967900945205
vt 0.308593750000 0.967900945205
vt 0.308593750000 0.996093750000
vt 0.336786554795 0.996093750000
vt 0.336786554795 0.949105742009
vt 0.308593750000 0.949105742009
vt 0.308593750000 0.996093750000
vt 0.317147601598 0.996093750000
vt 0.317147601598 0.987367405659
vt 0.308593750000 0.987367405659
vt 0.308593750000 0.996093750000
vt 0.317320094341 0.996093750000
vt 0.317320094341 0.987539898402
vt 0.308593750000 0.987539898402
vt 0.308593750000 0.996093750000
vt 0.329402724968 0.996093750000
vt 0.329402724968 0.987539898402
vt 0.308593750000 0.987539898402
vt 0.308593750000 0.996093750000
vt 0.317147601598 0.996093750000
vt 0.317147601598 0.975284775032
vt 0.308593750000 0.975284775032
vt 0.308593750000 0.996093750000
vt 0.329402724968 0.996093750000
vt 0.329402724968 0.987367405659
vt 0.308593750000 0.987367405659
vt 0.308593750000 0.996093750000
vt 0.317320094341 0.996093750000
vt 0.317320094341 0.975284775032
vt 0.308593750000 0.975284775032
vt 0.308593750000 0.996093750000
vt 0.317147601598 0.996093750000
vt 0.317147601598 0.987367405659
vt 0.308593750000 0.987367405659
vt 0.308593750000 0.996093750000
vt 0.317320094341 0.996093750000
vt 0.317320094341 0.987539898402
vt 0.308593750000 0.987539898402
vt 0.308593750000 0.996093750000
vt 0.329402724968 0.996093750000
vt 0.329402724968 0.987539898402
vt 0.308593750000 0.987539898402
vt 0.308593750000 0.996093750000
vt 0.317147601598 0.996093750000
vt 0.317147601598 0.975284775032
vt 0.308593750000 0.975284775032
vt 0.308593750000 0.996093750000
vt 0.329402724968 0.996093750000
vt 0.329402724968 0.987367405659
vt 0.308593750000 0.987367405659
vt 0.308593750000 0.996093750000
vt 0.317320094341 0.996093750000
vt 0.317320094341 0.975284775032
vt 0.308593750000 0.975284775032
vt 0.144531250000 0.996093750000
vt 0.172052797538 0.996093750000
vt 0.172052797538 0.970585974233
vt 0.144531250000 0.970585974233
vt 0.144531250000 0.996093750000
vt 0.170039025767 0.996093750000
vt 0.170039025767 0.968572202462
vt 0.144531250000 0.968572202462
vt 0.144531250000 0.996093750000
vt 0.173395312052 0.996093750000
vt 0.173395312052 0.968572202462
vt 0.144531250000 0.968572202462
vt 0.144531250000 0.996093750000
vt 0.172052797538 0.996093750000
vt 0.172052797538 0.967229687948
vt 0.144531250000 0.967229687948
vt 0.144531250000 0.996093750000
vt 0.173395312052 0.996093750000
vt 0.173395312052 0.970585974233
vt 0.144531250000 0.970585974233
vt 0.144531250000 0.996093750000
vt 0.170039025767 0.996093750000
vt 0.170039025767 0.967229687948
vt 0.144531250000 0.967229687948
vt 0.144531250000 0.996093750000
vt 0.204367349307 0.996093750000
vt 0.204367349307 0.981997347603
vt 0.144531250000 0.981997347603
vt 0.144531250000 0.996093750000
vt 0.158627652397 0.996093750000
vt 0.158627652397 0.936257650693
vt 0.144531250000 0.936257650693
vt 0.144531250000 0.996093750000
vt 0.161312681425 0.996093750000
vt 0.161312681425 0.936257650693
vt 0.144531250000 0.936257650693
vt 0.144531250000 0.996093750000
vt 0.204367349307 0.996093750000
vt 0.204367349307 0.979312318575
vt 0.144531250000 0.979312318575
vt 0.144531250000 0.996093750000
vt 0.161312681425 0.996093750000
vt 0.161312681425 0.981997347603
vt 0.144531250000 0.981997347603
vt 0.144531250000 0.996093750000
vt 0.158627652397 0.996093750000
vt 0.158627652397 0.979312318575
vt 0.144531250000 0.979312318575
vt 0.003906250000 0.996093750000
vt 0.018673909654 0.996093750000
vt 0.018673909654 0.979312318575
vt 0.003906250000 0.979312318575
vt 0.003906250000 0.996093750000
vt 0.020687681425 0.996093750000
vt 0.020687681425 0.981326090346
vt 0.003906250000 0.981326090346
vt 0.003906250000 0.996093750000
vt 0.020016424168 0.996093750000
vt 0.020016424168 0.981326090346
vt 0.003906250000 0.981326090346
vt 0.003906250000 0.996093750000
vt 0.018673909654 0.996093750000
vt 0.018673909654 0.979983575832
vt 0.003906250000 0.979983575832
vt 0.003906250000 0.996093750000
vt 0.020016424168 0.996093750000
vt 0.020016424168 0.979312318575
vt 0.003906250000 0.979312318575
vt 0.003906250000 0.996093750000
vt 0.020687681425 0.996093750000
vt 0.020687681425 0.979983575832
vt 0.003906250000 0.979983575832
vt 0.238281250000 0.996093750000
vt 0.299722376814 0.996093750000
vt 0.299722376814 0.986024891145
vt 0.238281250000 0.986024891145
vt 0.238281250000 0.996093750000
vt 0.248350108855 0.996093750000
vt 0.248350108855 0.934652623186
vt 0.238281250000 0.934652623186
vt 0.238281250000 0.996093750000
vt 0.251035137883 0.996093750000
vt 0.251035137883 0.934652623186
vt 0.238281250000 0.934652623186
vt 0.238281250000 0.996093750000
vt 0.299722376814 0.996093750000
vt 0.299722376814 0.983339862117
vt 0.238281250000 0.983339862117
vt 0.238281250000 0.996093750000
vt 0.251035137883 0.996093750000
vt 0.251035137883 0.986024891145
vt 0.238281250000 0.986024891145
vt 0.238281250000 0.996093750000
vt 0.248350108855 0.996093750000
vt 0.248350108855 0.983339862117
vt 0.238281250000 0.983339862117
vt 0.003906250000 0.996093750000
vt 0.019345166911 0.996093750000
vt 0.019345166911 0.978641061318
vt 0.003906250000 0.978641061318
vt 0.003906250000 0.996093750000
vt 0.021358938682 0.996093750000
vt 0.021358938682 0.980654833089
vt 0.003906250000 0.980654833089
vt 0.003906250000 0.996093750000
vt 0.024715224968 0.996093750000
vt 0.024715224968 0.980654833089
vt 0.003906250000 0.980654833089
vt 0.003906250000 0.996093750000
vt 0.019345166911 0.996093750000
vt 0.019345166911 0.975284775032
vt 0.003906250000 0.975284775032
vt 0.003906250000 0.996093750000
vt 0.024715224968 0.996093750000
vt 0.024715224968 0.978641061318
vt 0.003906250000 0.978641061318
vt 0.003906250000 0.996093750000
vt 0.021358938682 0.996093750000
vt 0.021358938682 0.975284775032
vt 0.003906250000 0.975284775032
vt 0.308593750000 0.996093750000
vt 0.330329428984 0.996093750000
vt 0.330329428984 0.988374291544
vt 0.308593750000 0.988374291544
vt 0.308593750000 0.996093750000
vt 0.316313208456 0.996093750000
vt 0.316313208456 0.974358071016
vt 0.308593750000 0.974358071016
vt 0.308593750000 0.996093750000
vt 0.317991351598 0.996093750000
vt 0.317991351598 0.974358071016
vt 0.308593750000 0.974358071016
vt 0.308593750000 0.996093750000
vt 0.330329428984 0.996093750000
vt 0.330329428984 0.986696148402
vt 0.308593750000 0.986696148402
vt 0.308593750000 0.996093750000
vt 0.317991351598 0.996093750000
vt 0.317991351598 0.988374291544
vt 0.308593750000 0.988374291544
vt 0.308593750000 0.996093750000
vt 0.316313208456 0.996093750000
vt 0.316313208456 0.986696148402
vt 0.308593750000 0.986696148402
vt 0.308593750000 0.996093750000
vt 0.322864875040 0.996093750000
vt 0.322864875040 0.989716806058
vt 0.308593750000 0.989716806058
vt 0.308593750000 0.996093750000
vt 0.314970693942 0.996093750000
vt 0.314970693942 0.981822624960
vt 0.308593750000 0.981822624960
vt 0.308593750000 0.996093750000
vt 0.315977579827 0.996093750000
vt 0.315977579827 0.981822624960
vt 0.308593750000 0.981822624960
vt 0.308593750000 0.996093750000
vt 0.322864875040 0.996093750000
vt 0.322864875040 0.988709920173
vt 0.308593750000 0.988709920173
vt 0.308593750000 0.996093750000
vt 0.315977579827 0.996093750000
vt 0.315977579827 0.989716806058
vt 0.308593750000 0.989716806058
vt 0.308593750000 0.996093750000
vt 0.314970693942 0.996093750000
vt 0.314970693942 0.988709920173
vt 0.308593750000 0.988709920173
vt 0.308593750000 0.996093750000
vt 0.322864875040 0.996093750000
vt 0.322864875040 0.992401835086
vt 0.308593750000 0.992401835086
vt 0.308593750000 0.996093750000
vt 0.312285664914 0.996093750000
vt 0.312285664914 0.981822624960
vt 0.308593750000 0.981822624960
vt 0.308593750000 0.996093750000
vt 0.313292550799 0.996093750000
vt 0.313292550799 0.981822624960
vt 0.308593750000 0.981822624960
vt 0.308593750000 0.996093750000
vt 0.322864875040 0.996093750000
vt 0.322864875040 0.991394949201
vt 0.308593750000 0.991394949201
vt 0.308593750000 0.996093750000
vt 0.313292550799 0.996093750000
vt 0.313292550799 0.992401835086
vt 0.308593750000 0.992401835086
vt 0.308593750000 0.996093750000
vt 0.312285664914 0.996093750000
vt 0.312285664914 0.991394949201
vt 0.308593750000 0.991394949201
vt 0.308593750000 0.996093750000
vt 0.330329428984 0.996093750000
vt 0.330329428984 0.988374291544
vt 0.308593750000 0.988374291544
vt 0.308593750000 0.996093750000
vt 0.316313208456 0.996093750000
vt 0.316313208456 0.974358071016
vt 0.308593750000 0.974358071016
vt 0.308593750000 0.996093750000
vt 0.317991351598 0.996093750000
vt 0.317991351598 0.974358071016
vt 0.308593750000 0.974358071016
vt 0.308593750000 0.996093750000
vt 0.330329428984 0.996093750000
vt 0.330329428984 0.986696148402
vt 0.308593750000 0.986696148402
vt 0.308593750000 0.996093750000
vt 0.317991351598 0.996093750000
vt 0.317991351598 0.988374291544
vt 0.308593750000 0.988374291544
vt 0.308593750000 0.996093750000
vt 0.316313208456 0.996093750000
vt 0.316313208456 0.986696148402
vt 0.308593750000 0.986696148402
vt 0.308593750000 0.996093750000
vt 0.322864875040 0.996093750000
vt 0.322864875040 0.989716806058
vt 0.308593750000 0.989716806058
vt 0.308593750000 0.996093750000
vt 0.314970693942 0.996093750000
vt 0.314970693942 0.981822624960
vt 0.308593750000 0.981822624960
vt 0.308593750000 0.996093750000
vt 0.315977579827 0.996093750000
vt 0.315977579827 0.981822624960
vt 0.308593750000 0.981822624960
vt 0.308593750000 0.996093750000
vt 0.322864875040 0.996093750000
vt 0.322864875040 0.988709920173
vt 0.308593750000 0.988709920173
vt 0.308593750000 0.996093750000
vt 0.315977579827 0.996093750000
vt 0.315977579827 0.989716806058
vt 0.308593750000 0.989716806058
vt 0.308593750000 0.996093750000
vt 0.314970693942 0.996093750000
vt 0.314970693942 0.988709920173
vt 0.308593750000 0.988709920173
vt 0.308593750000 0.996093750000
vt 0.322864875040 0.996093750000
vt 0.322864875040 0.992401835086
vt 0.308593750000 0.992401835086
vt 0.308593750000 0.996093750000
vt 0.312285664914 0.996093750000
vt 0.312285664914 0.981822624960
vt 0.308593750000 0.981822624960
vt 0.308593750000 0.996093750000
vt 0.313292550799 0.996093750000
vt 0.313292550799 0.981822624960
vt 0.308593750000 0.981822624960
vt 0.308593750000 0.996093750000
vt 0.322864875040 0.996093750000
vt 0.322864875040 0.991394949201
vt 0.308593750000 0.991394949201
vt 0.308593750000 0.996093750000
vt 0.313292550799 0.996093750000
vt 0.313292550799 0.992401835086
vt 0.308593750000 0.992401835086
vt 0.308593750000 0.996093750000
vt 0.312285664914 0.996093750000
vt 0.312285664914 0.991394949201
vt 0.308593750000 0.991394949201
vt 0.128906250000 0.996093750000
vt 0.132262536285 0.996093750000
vt 0.132262536285 0.992066206458
vt 0.128906250000 0.992066206458
vt 0.367187500000 0.996093750000
vt 0.371215043542 0.996093750000
vt 0.371215043542 0.992737463715
vt 0.367187500000 0.992737463715
vt 0.367187500000 0.996093750000
vt 0.384640188682 0.996093750000
vt 0.384640188682 0.992737463715
vt 0.367187500000 0.992737463715
vt 0.367187500000 0.996093750000
vt 0.370543786285 0.996093750000
vt 0.370543786285 0.978641061318
vt 0.367187500000 0.978641061318
vt 0.367187500000 0.996093750000
vt 0.384640188682 0.996093750000
vt 0.384640188682 0.992066206458
vt 0.367187500000 0.992066206458
vt 0.367187500000 0.996093750000
vt 0.371215043542 0.996093750000
vt 0.371215043542 0.978641061318
vt 0.367187500000 0.978641061318
vt 0.144531250000 0.996093750000
vt 0.203685736266 0.996093750000
vt 0.203685736266 0.960517115378
vt 0.144531250000 0.960517115378
vt 0.144531250000 0.996093750000
vt 0.180107884622 0.996093750000
vt 0.180107884622 0.936939263734
vt 0.144531250000 0.936939263734
vt 0.144531250000 0.996093750000
vt 0.184806685421 0.996093750000
vt 0.184806685421 0.936939263734
vt 0.144531250000 0.936939263734
vt 0.144531250000 0.996093750000
vt 0.203685736266 0.996093750000
vt 0.203685736266 0.955818314579
vt 0.144531250000 0.955818314579
vt 0.144531250000 0.996093750000
vt 0.184806685421 0.996093750000
vt 0.184806685421 0.960517115378
vt 0.144531250000 0.960517115378
vt 0.144531250000 0.996093750000
vt 0.180107884622 0.996093750000
vt 0.180107884622 0.955818314579
vt 0.144531250000 0.955818314579
vt 0.238281250000 0.996093750000
vt 0.267145312052 0.996093750000
vt 0.267145312052 0.967900945205
vt 0.238281250000 0.967900945205
vt 0.238281250000 0.996093750000
vt 0.266474054795 0.996093750000
vt 0.266474054795 0.967229687948
vt 0.238281250000 0.967229687948
vt 0.238281250000 0.996093750000
vt 0.276916060421 0.996093750000
vt 0.276916060421 0.967229687948
vt 0.238281250000 0.967229687948
vt 0.238281250000 0.996093750000
vt 0.267145312052 0.996093750000
vt 0.267145312052 0.957458939579
vt 0.238281250000 0.957458939579
vt 0.238281250000 0.996093750000
vt 0.276916060421 0.996093750000
vt 0.276916060421 0.967900945205
vt 0.238281250000 0.967900945205
vt 0.238281250000 0.996093750000
vt 0.266474054795 0.996093750000
vt 0.266474054795 0.957458939579
vt 0.238281250000 0.957458939579
vt 0.003906250000 0.996093750000
vt 0.026728996739 0.996093750000
vt 0.026728996739 0.970585974233
vt 0.003906250000 0.970585974233
vt 0.003906250000 0.996093750000
vt 0.029414025767 0.996093750000
vt 0.029414025767 0.973271003261
vt 0.003906250000 0.973271003261
vt 0.003906250000 0.996093750000
vt 0.029414025767 0.996093750000
vt 0.029414025767 0.973271003261
vt 0.003906250000 0.973271003261
vt 0.003906250000 0.996093750000
vt 0.026728996739 0.996093750000
vt 0.026728996739 0.970585974233
vt 0.003906250000 0.970585974233
vt 0.003906250000 0.996093750000
vt 0.029414025767 0.996093750000
vt 0.029414025767 0.970585974233
vt 0.003906250000 0.970585974233
vt 0.003906250000 0.996093750000
vt 0.029414025767 0.996093750000
vt 0.029414025767 0.970585974233
vt 0.003906250000 0.970585974233
vt 0.144531250000 0.996093750000
vt 0.206932907419 0.996093750000
vt 0.206932907419 0.979983575832
vt 0.144531250000 0.979983575832
vt 0.144531250000 0.996093750000
vt 0.160641424168 0.996093750000
vt 0.160641424168 0.933692092581
vt 0.144531250000 0.933692092581
vt 0.144531250000 0.996093750000
vt 0.163997710454 0.996093750000
vt 0.163997710454 0.933692092581
vt 0.144531250000 0.933692092581
vt 0.144531250000 0.996093750000
vt 0.206932907419 0.996093750000
vt 0.206932907419 0.976627289546
vt 0.144531250000 0.976627289546
vt 0.144531250000 0.996093750000
vt 0.163997710454 0.996093750000
vt 0.163997710454 0.979983575832
vt 0.144531250000 0.979983575832
vt 0.144531250000 0.996093750000
vt 0.160641424168 0.996093750000
vt 0.160641424168 0.976627289546
vt 0.144531250000 0.976627289546
vt 0.003906250000 0.996093750000
vt 0.023372710454 0.996093750000
vt 0.023372710454 0.975284775032
vt 0.003906250000 0.975284775032
vt 0.003906250000 0.996093750000
vt 0.024715224968 0.996093750000
vt 0.024715224968 0.976627289546
vt 0.003906250000 0.976627289546
vt 0.003906250000 0.996093750000
vt 0.028742768510 0.996093750000
vt 0.028742768510 0.976627289546
vt 0.003906250000 0.976627289546
vt 0.003906250000 0.996093750000
vt 0.023372710454 0.996093750000
vt 0.023372710454 0.971257231490
vt 0.003906250000 0.971257231490
vt 0.003906250000 0.996093750000
vt 0.028742768510 0.996093750000
vt 0.028742768510 0.975284775032
vt 0.003906250000 0.975284775032
vt 0.003906250000 0.996093750000
vt 0.024715224968 0.996093750000
vt 0.024715224968 0.971257231490
vt 0.003906250000 0.971257231490
vt 0.308593750000 0.996093750000
vt 0.320676380626 0.996093750000
vt 0.320676380626 0.967900945205
vt 0.308593750000 0.967900945205
vt 0.308593750000 0.996093750000
vt 0.336786554795 0.996093750000
vt 0.336786554795 0.984011119374
vt 0.308593750000 0.984011119374
vt 0.308593750000 0.996093750000
vt 0.355581757991 0.996093750000
vt 0.355581757991 0.984011119374
vt 0.308593750000 0.984011119374
vt 0.308593750000 0.996093750000
vt 0.320676380626 0.996093750000
vt 0.320676380626 0.949105742009
vt 0.308593750000 0.949105742009
vt 0.308593750000 0.996093750000
vt 0.355581757991 0.996093750000
vt 0.355581757991 0.967900945205
vt 0.308593750000 0.967900945205
vt 0.308593750000 0.996093750000
vt 0.336786554795 0.996093750000
vt 0.336786554795 0.949105742009
vt 0.308593750000 0.949105742009
vt 0.308593750000 0.996093750000
vt 0.317147601598 0.996093750000
vt 0.317147601598 0.987367405659
vt 0.308593750000 0.987367405659
vt 0.308593750000 0.996093750000
vt 0.317320094341 0.996093750000
vt 0.317320094341 0.987539898402
vt 0.308593750000 0.987539898402
vt 0.308593750000 0.996093750000
vt 0.329402724968 0.996093750000
vt 0.329402724968 0.987539898402
vt 0.308593750000 0.987539898402
vt 0.308593750000 0.996093750000
vt 0.317147601598 0.996093750000
vt 0.317147601598 0.975284775032
vt 0.308593750000 0.975284775032
vt 0.308593750000 0.996093750000
vt 0.329402724968 0.996093750000
vt 0.329402724968 0.987367405659
vt 0.308593750000 0.987367405659
vt 0.308593750000 0.996093750000
vt 0.317320094341 0.996093750000
vt 0.317320094341 0.975284775032
vt 0.308593750000 0.975284775032
vt 0.308593750000 0.996093750000
vt 0.317147601598 0.996093750000
vt 0.317147601598 0.987367405659
vt 0.308593750000 0.987367405659
vt 0.308593750000 0.996093750000
vt 0.317320094341 0.996093750000
vt 0.317320094341 0.987539898402
vt 0.308593750000 0.987539898402
vt 0.308593750000 0.996093750000
vt 0.329402724968 0.996093750000
vt 0.329402724968 0.987539898402
vt 0.308593750000 0.987539898402
vt 0.308593750000 0.996093750000
vt 0.317147601598 0.996093750000
vt 0.317147601598 0.975284775032
vt 0.308593750000 0.975284775032
vt 0.308593750000 0.996093750000
vt 0.329402724968 0.996093750000
vt 0.329402724968 0.987367405659
vt 0.308593750000 0.987367405659
vt 0.308593750000 0.996093750000
vt 0.317320094341 0.996093750000
vt 0.317320094341 0.975284775032
vt 0.308593750000 0.975284775032
vt 0.144531250000 0.996093750000
vt 0.172052797538 0.996093750000
vt 0.172052797538 0.970585974233
vt 0.144531250000 0.970585974233
vt 0.144531250000 0.996093750000
vt 0.170039025767 0.996093750000
vt 0.170039025767 0.968572202462
vt 0.144531250000 0.968572202462
vt 0.144531250000 0.996093750000
vt 0.173395312052 0.996093750000
vt 0.173395312052 0.968572202462
vt 0.144531250000 0.968572202462
vt 0.144531250000 0.996093750000
vt 0.172052797538 0.996093750000
vt 0.172052797538 0.967229687948
vt 0.144531250000 0.967229687948
vt 0.144531250000 0.996093750000
vt 0.173395312052 0.996093750000
vt 0.173395312052 0.970585974233
vt 0.144531250000 0.970585974233
vt 0.144531250000 0.996093750000
vt 0.170039025767 0.996093750000
vt 0.170039025767 0.967229687948
vt 0.144531250000 0.967229687948
vt 0.144531250000 0.996093750000
vt 0.204367349307 0.996093750000
vt 0.204367349307 0.981997347603
vt 0.144531250000 0.981997347603
vt 0.144531250000 0.996093750000
vt 0.158627652397 0.996093750000
vt 0.158627652397 0.936257650693
vt 0.144531250000 0.936257650693
vt 0.144531250000 0.996093750000
vt 0.161312681425 0.996093750000
vt 0.161312681425 0.936257650693
vt 0.144531250000 0.936257650693
vt 0.144531250000 0.996093750000
vt 0.204367349307 0.996093750000
vt 0.204367349307 0.979312318575
vt 0.144531250000 0.979312318575
vt 0.144531250000 0.996093750000
vt 0.161312681425 0.996093750000
vt 0.161312681425 0.981997347603
vt 0.144531250000 0.981997347603
vt 0.144531250000 0.996093750000
vt 0.158627652397 0.996093750000
vt 0.158627652397 0.979312318575
vt 0.144531250000 0.979312318575
vt 0.003906250000 0.996093750000
vt 0.018673909654 0.996093750000
vt 0.018673909654 0.979312318575
vt 0.003906250000 0.979312318575
vt 0.003906250000 0.996093750000
vt 0.020687681425 0.996093750000
vt 0.020687681425 0.981326090346
vt 0.003906250000 0.981326090346
vt 0.003906250000 0.996093750000
vt 0.020016424168 0.996093750000
vt 0.020016424168 0.981326090346
vt 0.003906250000 0.981326090346
vt 0.003906250000 0.996093750000
vt 0.018673909654 0.996093750000
vt 0.018673909654 0.979983575832
vt 0.003906250000 0.979983575832
vt 0.003906250000 0.996093750000
vt 0.020016424168 0.996093750000
vt 0.020016424168 0.979312318575
vt 0.003906250000 0.979312318575
vt 0.003906250000 0.996093750000
vt 0.020687681425 0.996093750000
vt 0.020687681425 0.979983575832
vt 0.003906250000 0.979983575832
vt 0.238281250000 0.996093750000
vt 0.299722376814 0.996093750000
vt 0.299722376814 0.986024891145
vt 0.238281250000 0.986024891145
vt 0.238281250000 0.996093750000
vt 0.248350108855 0.996093750000
vt 0.248350108855 0.934652623186
vt 0.238281250000 0.934652623186
vt 0.238281250000 0.996093750000
vt 0.251035137883 0.996093750000
vt 0.251035137884 0.934652623186
vt 0.238281250000 0.934652623186
vt 0.238281250000 0.996093750000
vt 0.299722376814 0.996093750000
vt 0.299722376814 0.983339862117
vt 0.238281250000 0.983339862117
vt 0.238281250000 0.996093750000
vt 0.251035137883 0.996093750000
vt 0.251035137883 0.986024891145
vt 0.238281250000 0.986024891145
vt 0.238281250000 0.996093750000
vt 0.248350108855 0.996093750000
vt 0.248350108855 0.983339862117
vt 0.238281250000 0.983339862117
vt 0.003906250000 0.996093750000
vt 0.019345166911 0.996093750000
vt 0.019345166911 0.978641061318
vt 0.003906250000 0.978641061318
vt 0.003906250000 0.996093750000
vt 0.021358938682 0.996093750000
vt 0.021358938682 0.980654833089
vt 0.003906250000 0.980654833089
vt 0.003906250000 0.996093750000
vt 0.024715224968 0.996093750000
vt 0.024715224968 0.980654833089
vt 0.003906250000 0.980654833089
vt 0.003906250000 0.996093750000
vt 0.019345166911 0.996093750000
vt 0.019345166911 0.975284775032
vt 0.003906250000 0.975284775032
vt 0.003906250000 0.996093750000
vt 0.024715224968 0.996093750000
vt 0.024715224968 0.978641061318
vt 0.003906250000 0.978641061318
vt 0.003906250000 0.996093750000
vt 0.021358938682 0.996093750000
vt 0.021358938682 0.975284775032
vt 0.003906250000 0.975284775032
vt 0.308593750000 0.996093750000
vt 0.330329428984 0.996093750000
vt 0.330329428984 0.988374291544
vt 0.308593750000 0.988374291544
vt 0.308593750000 0.996093750000
vt 0.316313208456 0.996093750000
vt 0.316313208456 0.974358071016
vt 0.308593750000 0.974358071016
vt 0.308593750000 0.996093750000
vt 0.317991351598 0.996093750000
vt 0.317991351598 0.974358071016
vt 0.308593750000 0.974358071016
vt 0.308593750000 0.996093750000
vt 0.330329428984 0.996093750000
vt 0.330329428984 0.986696148402
vt 0.308593750000 0.986696148402
vt 0.308593750000 0.996093750000
vt 0.317991351598 0.996093750000
vt 0.317991351598 0.988374291544
vt 0.308593750000 0.988374291544
vt 0.308593750000 0.996093750000
vt 0.316313208456 0.996093750000
vt 0.316313208456 0.986696148402
vt 0.308593750000 0.986696148402
vt 0.308593750000 0.996093750000
vt 0.322864875040 0.996093750000
vt 0.322864875040 0.989716806058
vt 0.308593750000 0.989716806058
vt 0.308593750000 0.996093750000
vt 0.314970693942 0.996093750000
vt 0.314970693942 0.981822624960
vt 0.308593750000 0.981822624960
vt 0.308593750000 0.996093750000
vt 0.315977579827 0.996093750000
vt 0.315977579827 0.981822624960
vt 0.308593750000 0.981822624960
vt 0.308593750000 0.996093750000
vt 0.322864875040 0.996093750000
vt 0.322864875040 0.988709920173
vt 0.308593750000 0.988709920173
vt 0.308593750000 0.996093750000
vt 0.315977579827 0.996093750000
vt 0.315977579827 0.989716806058
vt 0.308593750000 0.989716806058
vt 0.308593750000 0.996093750000
vt 0.314970693942 0.996093750000
vt 0.314970693942 0.988709920173
vt 0.308593750000 0.988709920173
vt 0.308593750000 0.996093750000
vt 0.322864875040 0.996093750000
vt 0.322864875040 0.992401835086
vt 0.308593750000 0.992401835086
vt 0.308593750000 0.996093750000
vt 0.312285664914 0.996093750000
vt 0.312285664914 0.981822624960
vt 0.308593750000 0.981822624960
vt 0.308593750000 0.996093750000
vt 0.313292550799 0.996093750000
vt 0.313292550799 0.981822624960
vt 0.308593750000 0.981822624960
vt 0.308593750000 0.996093750000
vt 0.322864875040 0.996093750000
vt 0.322864875040 0.991394949201
vt 0.308593750000 0.991394949201
vt 0.308593750000 0.996093750000
vt 0.313292550799 0.996093750000
vt 0.313292550799 0.992401835086
vt 0.308593750000 0.992401835086
vt 0.308593750000 0.996093750000
vt 0.312285664914 0.996093750000
vt 0.312285664914 0.991394949201
vt 0.308593750000 0.991394949201
vt 0.308593750000 0.996093750000
vt 0.330329428984 0.996093750000
vt 0.330329428984 0.988374291544
vt 0.308593750000 0.988374291544
vt 0.308593750000 0.996093750000
vt 0.316313208456 0.996093750000
vt 0.316313208456 0.974358071016
vt 0.308593750000 0.974358071016
vt 0.308593750000 0.996093750000
vt 0.317991351598 0.996093750000
vt 0.317991351598 0.974358071016
vt 0.308593750000 0.974358071016
vt 0.308593750000 0.996093750000
vt 0.330329428984 0.996093750000
vt 0.330329428984 0.986696148402
vt 0.308593750000 0.986696148402
vt 0.308593750000 0.996093750000
vt 0.317991351598 0.996093750000
vt 0.317991351598 0.988374291544
vt 0.308593750000 0.988374291544
vt 0.308593750000 0.996093750000
vt 0.316313208456 0.996093750000
vt 0.316313208456 0.986696148402
vt 0.308593750000 0.986696148402
vt 0.308593750000 0.996093750000
vt 0.322864875040 0.996093750000
vt 0.322864875040 0.989716806058
vt 0.308593750000 0.989716806058
vt 0.308593750000 0.996093750000
vt 0.314970693942 0.996093750000
vt 0.314970693942 0.981822624960
vt 0.308593750000 0.981822624960
vt 0.308593750000 0.996093750000
vt 0.315977579827 0.996093750000
vt 0.315977579827 0.981822624960
vt 0.308593750000 0.981822624960
vt 0.308593750000 0.996093750000
vt 0.322864875040 0.996093750000
vt 0.322864875040 0.988709920173
vt 0.308593750000 0.988709920173
vt 0.308593750000 0.996093750000
vt 0.315977579827 0.996093750000
vt 0.315977579827 0.989716806058
vt 0.308593750000 0.989716806058
vt 0.308593750000 0.996093750000
vt 0.314970693942 0.996093750000
vt 0.314970693942 0.988709920173
vt 0.308593750000 0.988709920173
vt 0.308593750000 0.996093750000
vt 0.322864875040 0.996093750000
vt 0.322864875040 0.992401835086
vt 0.308593750000 0.992401835086
vt 0.308593750000 0.996093750000
vt 0.312285664914 0.996093750000
vt 0.312285664914 0.981822624960
vt 0.308593750000 0.981822624960
vt 0.308593750000 0.996093750000
vt 0.313292550799 0.996093750000
vt 0.313292550799 0.981822624960
vt 0.308593750000 0.981822624960
vt 0.308593750000 0.996093750000
vt 0.322864875040 0.996093750000
vt 0.322864875040 0.991394949201
vt 0.308593750000 0.991394949201
vt 0.308593750000 0.996093750000
vt 0.313292550799 0.996093750000
vt 0.313292550799 0.992401835086
vt 0.308593750000 0.992401835086
vt 0.308593750000 0.996093750000
vt 0.312285664914 0.996093750000
vt 0.312285664914 0.991394949201
vt 0.308593750000 0.991394949201
vt 0.128906250000 0.996093750000
vt 0.132262536285 0.996093750000
vt 0.132262536285 0.992066206458
vt 0.128906250000 0.992066206458
vt 0.367187500000 0.996093750000
vt 0.371215043542 0.996093750000
vt 0.371215043542 0.992737463715
vt 0.367187500000 0.992737463715
vt 0.367187500000 0.996093750000
vt 0.384640188682 0.996093750000
vt 0.384640188682 0.992737463715
vt 0.367187500000 0.992737463715
vt 0.367187500000 0.996093750000
vt 0.370543786285 0.996093750000
vt 0.370543786285 0.978641061318
vt 0.367187500000 0.978641061318
vt 0.367187500000 0.996093750000
vt 0.384640188682 0.996093750000
vt 0.384640188682 0.992066206458
vt 0.367187500000 0.992066206458
vt 0.367187500000 0.996093750000
vt 0.371215043542 0.996093750000
vt 0.371215043542 0.978641061318
vt 0.367187500000 0.978641061318
vt 0.367187500000 0.957031250000
vt 0.371886300799 0.957031250000
vt 0.371886300799 0.952332449201
vt 0.367187500000 0.952332449201
vt 0.367187500000 0.957031250000
vt 0.371886300799 0.957031250000
vt 0.371886300799 0.952332449201
vt 0.367187500000 0.952332449201
vt 0.367187500000 0.957031250000
vt 0.371886300799 0.957031250000
vt 0.371886300799 0.952332449201
vt 0.367187500000 0.952332449201
vt 0.367187500000 0.957031250000
vt 0.371886300799 0.957031250000
vt 0.371886300799 0.952332449201
vt 0.367187500000 0.952332449201
vt 0.367187500000 0.957031250000
vt 0.371886300799 0.957031250000
vt 0.371886300799 0.952332449201
vt 0.367187500000 0.952332449201
vt 0.367187500000 0.957031250000
vt 0.371886300799 0.957031250000
vt 0.371886300799 0.952332449201
vt 0.367187500000 0.952332449201
vt 0.367187500000 0.957031250000
vt 0.372758935233 0.957031250000
vt 0.372758935233 0.951459814767
vt 0.367187500000 0.951459814767
vt 0.367187500000 0.957031250000
vt 0.372758935233 0.957031250000
vt 0.372758935233 0.951459814767
vt 0.367187500000 0.951459814767
vt 0.367187500000 0.957031250000
vt 0.372758935233 0.957031250000
vt 0.372758935233 0.951459814767
vt 0.367187500000 0.951459814767
vt 0.367187500000 0.957031250000
vt 0.372758935233 0.957031250000
vt 0.372758935233 0.951459814767
vt 0.367187500000 0.951459814767
vt 0.367187500000 0.957031250000
vt 0.372758935233 0.957031250000
vt 0.372758935233 0.951459814767
vt 0.367187500000 0.951459814767
vt 0.367187500000 0.957031250000
vt 0.372758935233 0.957031250000
vt 0.372758935233 0.951459814767
vt 0.367187500000 0.951459814767
vt 0.367187500000 0.957031250000
vt 0.373631569667 0.957031250000
vt 0.373631569667 0.950587180333
vt 0.367187500000 0.950587180333
vt 0.367187500000 0.957031250000
vt 0.373631569667 0.957031250000
vt 0.373631569667 0.950587180333
vt 0.367187500000 0.950587180333
vt 0.367187500000 0.957031250000
vt 0.373631569667 0.957031250000
vt 0.373631569667 0.950587180333
vt 0.367187500000 0.950587180333
vt 0.367187500000 0.957031250000
vt 0.373631569667 0.957031250000
vt 0.373631569667 0.950587180333
vt 0.367187500000 0.950587180333
vt 0.367187500000 0.957031250000
vt 0.373631569667 0.957031250000
vt 0.373631569667 0.950587180333
vt 0.367187500000 0.950587180333
vt 0.367187500000 0.957031250000
vt 0.373631569667 0.957031250000
vt 0.373631569667 0.950587180333
vt 0.367187500000 0.950587180333
vt 0.367187500000 0.957031250000
vt 0.371886300799 0.957031250000
vt 0.371886300799 0.952332449201
vt 0.367187500000 0.952332449201
vt 0.367187500000 0.957031250000
vt 0.371886300799 0.957031250000
vt 0.371886300799 0.952332449201
vt 0.367187500000 0.952332449201
vt 0.367187500000 0.957031250000
vt 0.371886300799 0.957031250000
vt 0.371886300799 0.952332449201
vt 0.367187500000 0.952332449201
vt 0.367187500000 0.957031250000
vt 0.371886300799 0.957031250000
vt 0.371886300799 0.952332449201
vt 0.367187500000 0.952332449201
vt 0.367187500000 0.957031250000
vt 0.371886300799 0.957031250000
vt 0.371886300799 0.952332449201
vt 0.367187500000 0.952332449201
vt 0.367187500000 0.957031250000
vt 0.371886300799 0.957031250000
vt 0.371886300799 0.952332449201
vt 0.367187500000 0.952332449201
vt 0.367187500000 0.957031250000
vt 0.372758935233 0.957031250000
vt 0.372758935233 0.951459814767
vt 0.367187500000 0.951459814767
vt 0.367187500000 0.957031250000
vt 0.372758935233 0.957031250000
vt 0.372758935233 0.951459814767
vt 0.367187500000 0.951459814767
vt 0.367187500000 0.957031250000
vt 0.372758935233 0.957031250000
vt 0.372758935233 0.951459814767
vt 0.367187500000 0.951459814767
vt 0.367187500000 0.957031250000
vt 0.372758935233 0.957031250000
vt 0.372758935233 0.951459814767
vt 0.367187500000 0.951459814767
vt 0.367187500000 0.957031250000
vt 0.372758935233 0.957031250000
vt 0.372758935233 0.951459814767
vt 0.367187500000 0.951459814767
vt 0.367187500000 0.957031250000
vt 0.372758935233 0.957031250000
vt 0.372758935233 0.951459814767
vt 0.367187500000 0.951459814767
vt 0.367187500000 0.957031250000
vt 0.373631569667 0.957031250000
vt 0.373631569667 0.950587180333
vt 0.367187500000 0.950587180333
vt 0.367187500000 0.957031250000
vt 0.373631569667 0.957031250000
vt 0.373631569667 0.950587180333
vt 0.367187500000 0.950587180333
vt 0.367187500000 0.957031250000
vt 0.373631569667 0.957031250000
vt 0.373631569667 0.950587180333
vt 0.367187500000 0.950587180333
vt 0.367187500000 0.957031250000
vt 0.373631569667 0.957031250000
vt 0.373631569667 0.950587180333
vt 0.367187500000 0.950587180333
vt 0.367187500000 0.957031250000
vt 0.373631569667 0.957031250000
vt 0.373631569667 0.950587180333
vt 0.367187500000 0.950587180333
vt 0.367187500000 0.957031250000
vt 0.373631569667 0.957031250000
vt 0.373631569667 0.950587180333
vt 0.367187500000 0.950587180333
vt 0.367187500000 0.957031250000
vt 0.371886300799 0.957031250000
vt 0.371886300799 0.952332449201
vt 0.367187500000 0.952332449201
vt 0.367187500000 0.957031250000
vt 0.371886300799 0.957031250000
vt 0.371886300799 0.952332449201
vt 0.367187500000 0.952332449201
vt 0.367187500000 0.957031250000
vt 0.371886300799 0.957031250000
vt 0.371886300799 0.952332449201
vt 0.367187500000 0.952332449201
vt 0.367187500000 0.957031250000
vt 0.371886300799 0.957031250000
vt 0.371886300799 0.952332449201
vt 0.367187500000 0.952332449201
vt 0.367187500000 0.957031250000
vt 0.371886300799 0.957031250000
vt 0.371886300799 0.952332449201
vt 0.367187500000 0.952332449201
vt 0.367187500000 0.957031250000
vt 0.371886300799 0.957031250000
vt 0.371886300799 0.952332449201
vt 0.367187500000 0.952332449201
vt 0.367187500000 0.957031250000
vt 0.372758935233 0.957031250000
vt 0.372758935233 0.951459814767
vt 0.367187500000 0.951459814767
vt 0.367187500000 0.957031250000
vt 0.372758935233 0.957031250000
vt 0.372758935233 0.951459814767
vt 0.367187500000 0.951459814767
vt 0.367187500000 0.957031250000
vt 0.372758935233 0.957031250000
vt 0.372758935233 0.951459814767
vt 0.367187500000 0.951459814767
vt 0.367187500000 0.957031250000
vt 0.372758935233 0.957031250000
vt 0.372758935233 0.951459814767
vt 0.367187500000 0.951459814767
vt 0.367187500000 0.957031250000
vt 0.372758935233 0.957031250000
vt 0.372758935233 0.951459814767
vt 0.367187500000 0.951459814767
vt 0.367187500000 0.957031250000
vt 0.372758935233 0.957031250000
vt 0.372758935233 0.951459814767
vt 0.367187500000 0.951459814767
usemtl atlas
s off
g root
g body
g leap_body
f 1/1 4/2 3/3
f 1/1 3/3 2/4
f 5/5 6/6 7/7
f 5/5 7/7 8/8
f 1/9 5/10 8/11
f 1/9 8/11 4/12
f 2/13 3/14 7/15
f 2/13 7/15 6/16
f 4/17 8/18 7/19
f 4/17 7/19 3/20
f 1/21 2/22 6/23
f 1/21 6/23 5/24
f 9/25 12/26 11/27
f 9/25 11/27 10/28
f 13/29 14/30 15/31
f 13/29 15/31 16/32
f 9/33 13/34 16/35
f 9/33 16/35 12/36
f 10/37 11/38 15/39
f 10/37 15/39 14/40
f 12/41 16/42 15/43
f 12/41 15/43 11/44
f 9/45 10/46 14/47
f 9/45 14/47 13/48
f 17/49 20/50 19/51
f 17/49 19/51 18/52
f 21/53 22/54 23/55
f 21/53 23/55 24/56
f 17/57 21/58 24/59
f 17/57 24/59 20/60
f 18/61 19/62 23/63
f 18/61 23/63 22/64
f 20/65 24/66 23/67
f 20/65 23/67 19/68
f 17/69 18/70 22/71
f 17/69 22/71 21/72
f 25/73 28/74 27/75
f 25/73 27/75 26/76
f 29/77 30/78 31/79
f 29/77 31/79 32/80
f 25/81 29/82 32/83
f 25/81 32/83 28/84
f 26/85 27/86 31/87
f 26/85 31/87 30/88
f 28/89 32/90 31/91
f 28/89 31/91 27/92
f 25/93 26/94 30/95
f 25/93 30/95 29/96
f 33/97 36/98 35/99
f 33/97 35/99 34/100
f 37/101 38/102 39/103
f 37/101 39/103 40/104
f 33/105 37/106 40/107
f 33/105 40/107 36/108
f 34/109 35/110 39/111
f 34/109 39/111 38/112
f 36/113 40/114 39/115
f 36/113 39/115 35/116
f 33/117 34/118 38/119
f 33/117 38/119 37/120
f 41/121 44/122 43/123
f 41/121 43/123 42/124
f 45/125 46/126 47/127
f 45/125 47/127 48/128
f 41/129 45/130 48/131
f 41/129 48/131 44/132
f 42/133 43/134 47/135
f 42/133 47/135 46/136
f 44/137 48/138 47/139
f 44/137 47/139 43/140
f 41/141 42/142 46/143
f 41/141 46/143 45/144
f 49/145 52/146 51/147
f 49/145 51/147 50/148
f 53/149 54/150 55/151
f 53/149 55/151 56/152
f 49/153 53/154 56/155
f 49/153 56/155 52/156
f 50/157 51/158 55/159
f 50/157 55/159 54/160
f 52/161 56/162 55/163
f 52/161 55/163 51/164
f 49/165 50/166 54/167
f 49/165 54/167 53/168
f 57/169 60/170 59/171
f 57/169 59/171 58/172
f 61/173 62/174 63/175
f 61/173 63/175 64/176
f 57/177 61/178 64/179
f 57/177 64/179 60/180
f 58/181 59/182 63/183
f 58/181 63/183 62/184
f 60/185 64/186 63/187
f 60/185 63/187 59/188
f 57/189 58/190 62/191
f 57/189 62/191 61/192
f 69/197 70/198 71/199
f 69/197 71/199 72/200
f 65/201 69/202 72/203
f 65/201 72/203 68/204
f 66/205 67/206 71/207
f 66/205 71/207 70/208
f 68/209 72/210 71/211
f 68/209 71/211 67/212
f 65/213 66/214 70/215
f 65/213 70/215 69/216
f 73/217 76/218 75/219
f 73/217 75/219 74/220
f 77/221 78/222 79/223
f 77/221 79/223 80/224
f 73/225 77/226 80/227
f 73/225 80/227 76/228
f 74/229 75/230 79/231
f 74/229 79/231 78/232
f 76/233 80/234 79/235
f 76/233 79/235 75/236
f 73/237 74/238 78/239
f 73/237 78/239 77/240
f 81/241 84/242 83/243
f 81/241 83/243 82/244
f 85/245 86/246 87/247
f 85/245 87/247 88/248
f 81/249 85/250 88/251
f 81/249 88/251 84/252
f 82/253 83/254 87/255
f 82/253 87/255 86/256
f 84/257 88/258 87/259
f 84/257 87/259 83/260
f 81/261 82/262 86/263
f 81/261 86/263 85/264
f 93/269 94/270 95/271
f 93/269 95/271 96/272
f 89/273 93/274 96/275
f 89/273 96/275 92/276
f 90/277 91/278 95/279
f 90/277 95/279 94/280
f 92/281 96/282 95/283
f 92/281 95/283 91/284
f 89/285 90/286 94/287
f 89/285 94/287 93/288
f 97/289 100/290 99/291
f 97/289 99/291 98/292
f 101/293 102/294 103/295
f 101/293 103/295 104/296
f 97/297 101/298 104/299
f 97/297 104/299 100/300
f 98/301 99/302 103/303
f 98/301 103/303 102/304
f 100/305 104/306 103/307
f 100/305 103/307 99/308
f 97/309 98/310 102/311
f 97/309 102/311 101/312
g head
f 105/313 108/314 107/315
f 105/313 107/315 106/316
f 109/317 110/318 111/319
f 109/317 111/319 112/320
f 105/321 109/322 112/323
f 105/321 112/323 108/324
f 106/325 107/326 111/327
f 106/325 111/327 110/328
f 108/329 112/330 111/331
f 108/329 111/331 107/332
f 105/333 106/334 110/335
f 105/333 110/335 109/336
f 113/337 116/338 115/339
f 113/337 115/339 114/340
f 117/341 118/342 119/343
f 117/341 119/343 120/344
f 113/345 117/346 120/347
f 113/345 120/347 116/348
f 114/349 115/350 119/351
f 114/349 119/351 118/352
f 116/353 120/354 119/355
f 116/353 119/355 115/356
f 113/357 114/358 118/359
f 113/357 118/359 117/360
f 121/361 124/362 123/363
f 121/361 123/363 122/364
f 125/365 126/366 127/367
f 125/365 127/367 128/368
f 121/369 125/370 128/371
f 121/369 128/371 124/372
f 122/373 123/374 127/375
f 122/373 127/375 126/376
f 124/377 128/378 127/379
f 124/377 127/379 123/380
f 121/381 122/382 126/383
f 121/381 126/383 125/384
f 129/385 132/386 131/387
f 129/385 131/387 130/388
f 133/389 134/390 135/391
f 133/389 135/391 136/392
f 129/393 133/394 136/395
f 129/393 136/395 132/396
f 130/397 131/398 135/399
f 130/397 135/399 134/400
f 132/401 136/402 135/403
f 132/401 135/403 131/404
f 129/405 130/406 134/407
f 129/405 134/407 133/408
g hind_left
f 137/409 140/410 139/411
f 137/409 139/411 138/412
f 141/413 142/414 143/415
f 141/413 143/415 144/416
f 137/417 141/418 144/419
f 137/417 144/419 140/420
f 138/421 139/422 143/423
f 138/421 143/423 142/424
f 140/425 144/426 143/427
f 140/425 143/427 139/428
f 137/429 138/430 142/431
f 137/429 142/431 141/432
f 145/433 148/434 147/435
f 145/433 147/435 146/436
f 149/437 150/438 151/439
f 149/437 151/439 152/440
f 145/441 149/442 152/443
f 145/441 152/443 148/444
f 146/445 147/446 151/447
f 146/445 151/447 150/448
f 148/449 152/450 151/451
f 148/449 151/451 147/452
f 145/453 146/454 150/455
f 145/453 150/455 149/456
g hind_left_shin
f 153/457 156/458 155/459
f 153/457 155/459 154/460
f 157/461 158/462 159/463
f 157/461 159/463 160/464
f 153/465 157/466 160/467
f 153/465 160/467 156/468
f 154/469 155/470 159/471
f 154/469 159/471 158/472
f 156/473 160/474 159/475
f 156/473 159/475 155/476
f 153/477 154/478 158/479
f 153/477 158/479 157/480
f 161/481 164/482 163/483
f 161/481 163/483 162/484
f 165/485 166/486 167/487
f 165/485 167/487 168/488
f 161/489 165/490 168/491
f 161/489 168/491 164/492
f 162/493 163/494 167/495
f 162/493 167/495 166/496
f 164/497 168/498 167/499
f 164/497 167/499 163/500
f 161/501 162/502 166/503
f 161/501 166/503 165/504
g hind_left_foot
f 169/505 172/506 171/507
f 169/505 171/507 170/508
f 173/509 174/510 175/511
f 173/509 175/511 176/512
f 169/513 173/514 176/515
f 169/513 176/515 172/516
f 170/517 171/518 175/519
f 170/517 175/519 174/520
f 172/521 176/522 175/523
f 172/521 175/523 171/524
f 169/525 170/526 174/527
f 169/525 174/527 173/528
f 177/529 180/530 179/531
f 177/529 179/531 178/532
f 181/533 182/534 183/535
f 181/533 183/535 184/536
f 177/537 181/538 184/539
f 177/537 184/539 180/540
f 178/541 179/542 183/543
f 178/541 183/543 182/544
f 180/545 184/546 183/547
f 180/545 183/547 179/548
f 177/549 178/550 182/551
f 177/549 182/551 181/552
f 185/553 188/554 187/555
f 185/553 187/555 186/556
f 189/557 190/558 191/559
f 189/557 191/559 192/560
f 185/561 189/562 192/563
f 185/561 192/563 188/564
f 186/565 187/566 191/567
f 186/565 191/567 190/568
f 188/569 192/570 191/571
f 188/569 191/571 187/572
f 185/573 186/574 190/575
f 185/573 190/575 189/576
f 193/577 196/578 195/579
f 193/577 195/579 194/580
f 197/581 198/582 199/583
f 197/581 199/583 200/584
f 193/585 197/586 200/587
f 193/585 200/587 196/588
f 194/589 195/590 199/591
f 194/589 199/591 198/592
f 196/593 200/594 199/595
f 196/593 199/595 195/596
f 193/597 194/598 198/599
f 193/597 198/599 197/600
g fore_left
f 201/601 204/602 203/603
f 201/601 203/603 202/604
f 205/605 206/606 207/607
f 205/605 207/607 208/608
f 201/609 205/610 208/611
f 201/609 208/611 204/612
f 202/613 203/614 207/615
f 202/613 207/615 206/616
f 204/617 208/618 207/619
f 204/617 207/619 203/620
f 201/621 202/622 206/623
f 201/621 206/623 205/624
f 209/625 212/626 211/627
f 209/625 211/627 210/628
f 213/629 214/630 215/631
f 213/629 215/631 216/632
f 209/633 213/634 216/635
f 209/633 216/635 212/636
f 210/637 211/638 215/639
f 210/637 215/639 214/640
f 212/641 216/642 215/643
f 212/641 215/643 211/644
f 209/645 210/646 214/647
f 209/645 214/647 213/648
g fore_left_forearm
f 217/649 220/650 219/651
f 217/649 219/651 218/652
f 221/653 222/654 223/655
f 221/653 223/655 224/656
f 217/657 221/658 224/659
f 217/657 224/659 220/660
f 218/661 219/662 223/663
f 218/661 223/663 222/664
f 220/665 224/666 223/667
f 220/665 223/667 219/668
f 217/669 218/670 222/671
f 217/669 222/671 221/672
f 225/673 228/674 227/675
f 225/673 227/675 226/676
f 229/677 230/678 231/679
f 229/677 231/679 232/680
f 225/681 229/682 232/683
f 225/681 232/683 228/684
f 226/685 227/686 231/687
f 226/685 231/687 230/688
f 228/689 232/690 231/691
f 228/689 231/691 227/692
f 225/693 226/694 230/695
f 225/693 230/695 229/696
g fore_left_hook
f 233/697 236/698 235/699
f 233/697 235/699 234/700
f 237/701 238/702 239/703
f 237/701 239/703 240/704
f 233/705 237/706 240/707
f 233/705 240/707 236/708
f 234/709 235/710 239/711
f 234/709 239/711 238/712
f 236/713 240/714 239/715
f 236/713 239/715 235/716
f 233/717 234/718 238/719
f 233/717 238/719 237/720
f 241/721 244/722 243/723
f 241/721 243/723 242/724
f 245/725 246/726 247/727
f 245/725 247/727 248/728
f 241/729 245/730 248/731
f 241/729 248/731 244/732
f 242/733 243/734 247/735
f 242/733 247/735 246/736
f 244/737 248/738 247/739
f 244/737 247/739 243/740
f 241/741 242/742 246/743
f 241/741 246/743 245/744
f 249/745 252/746 251/747
f 249/745 251/747 250/748
f 253/749 254/750 255/751
f 253/749 255/751 256/752
f 249/753 253/754 256/755
f 249/753 256/755 252/756
f 250/757 251/758 255/759
f 250/757 255/759 254/760
f 252/761 256/762 255/763
f 252/761 255/763 251/764
f 249/765 250/766 254/767
f 249/765 254/767 253/768
f 257/769 260/770 259/771
f 257/769 259/771 258/772
f 261/773 262/774 263/775
f 261/773 263/775 264/776
f 257/777 261/778 264/779
f 257/777 264/779 260/780
f 258/781 259/782 263/783
f 258/781 263/783 262/784
f 260/785 264/786 263/787
f 260/785 263/787 259/788
f 257/789 258/790 262/791
f 257/789 262/791 261/792
f 265/793 268/794 267/795
f 265/793 267/795 266/796
f 269/797 270/798 271/799
f 269/797 271/799 272/800
f 265/801 269/802 272/803
f 265/801 272/803 268/804
f 266/805 267/806 271/807
f 266/805 271/807 270/808
f 268/809 272/810 271/811
f 268/809 271/811 267/812
f 265/813 266/814 270/815
f 265/813 270/815 269/816
f 273/817 276/818 275/819
f 273/817 275/819 274/820
f 277/821 278/822 279/823
f 277/821 279/823 280/824
f 273/825 277/826 280/827
f 273/825 280/827 276/828
f 274/829 275/830 279/831
f 274/829 279/831 278/832
f 276/833 280/834 279/835
f 276/833 279/835 275/836
f 273/837 274/838 278/839
f 273/837 278/839 277/840
f 281/841 284/842 283/843
f 281/841 283/843 282/844
f 285/845 286/846 287/847
f 285/845 287/847 288/848
f 281/849 285/850 288/851
f 281/849 288/851 284/852
f 282/853 283/854 287/855
f 282/853 287/855 286/856
f 284/857 288/858 287/859
f 284/857 287/859 283/860
f 281/861 282/862 286/863
f 281/861 286/863 285/864
f 293/869 294/870 295/871
f 293/869 295/871 296/872
f 289/873 293/874 296/875
f 289/873 296/875 292/876
f 290/877 291/878 295/879
f 290/877 295/879 294/880
f 292/881 296/882 295/883
f 292/881 295/883 291/884
f 289/885 290/886 294/887
f 289/885 294/887 293/888
g hind_right
f 297/889 300/890 299/891
f 297/889 299/891 298/892
f 301/893 302/894 303/895
f 301/893 303/895 304/896
f 297/897 301/898 304/899
f 297/897 304/899 300/900
f 298/901 299/902 303/903
f 298/901 303/903 302/904
f 300/905 304/906 303/907
f 300/905 303/907 299/908
f 297/909 298/910 302/911
f 297/909 302/911 301/912
f 305/913 308/914 307/915
f 305/913 307/915 306/916
f 309/917 310/918 311/919
f 309/917 311/919 312/920
f 305/921 309/922 312/923
f 305/921 312/923 308/924
f 306/925 307/926 311/927
f 306/925 311/927 310/928
f 308/929 312/930 311/931
f 308/929 311/931 307/932
f 305/933 306/934 310/935
f 305/933 310/935 309/936
g hind_right_shin
f 313/937 316/938 315/939
f 313/937 315/939 314/940
f 317/941 318/942 319/943
f 317/941 319/943 320/944
f 313/945 317/946 320/947
f 313/945 320/947 316/948
f 314/949 315/950 319/951
f 314/949 319/951 318/952
f 316/953 320/954 319/955
f 316/953 319/955 315/956
f 313/957 314/958 318/959
f 313/957 318/959 317/960
f 321/961 324/962 323/963
f 321/961 323/963 322/964
f 325/965 326/966 327/967
f 325/965 327/967 328/968
f 321/969 325/970 328/971
f 321/969 328/971 324/972
f 322/973 323/974 327/975
f 322/973 327/975 326/976
f 324/977 328/978 327/979
f 324/977 327/979 323/980
f 321/981 322/982 326/983
f 321/981 326/983 325/984
g hind_right_foot
f 329/985 332/986 331/987
f 329/985 331/987 330/988
f 333/989 334/990 335/991
f 333/989 335/991 336/992
f 329/993 333/994 336/995
f 329/993 336/995 332/996
f 330/997 331/998 335/999
f 330/997 335/999 334/1000
f 332/1001 336/1002 335/1003
f 332/1001 335/1003 331/1004
f 329/1005 330/1006 334/1007
f 329/1005 334/1007 333/1008
f 337/1009 340/1010 339/1011
f 337/1009 339/1011 338/1012
f 341/1013 342/1014 343/1015
f 341/1013 343/1015 344/1016
f 337/1017 341/1018 344/1019
f 337/1017 344/1019 340/1020
f 338/1021 339/1022 343/1023
f 338/1021 343/1023 342/1024
f 340/1025 344/1026 343/1027
f 340/1025 343/1027 339/1028
f 337/1029 338/1030 342/1031
f 337/1029 342/1031 341/1032
f 345/1033 348/1034 347/1035
f 345/1033 347/1035 346/1036
f 349/1037 350/1038 351/1039
f 349/1037 351/1039 352/1040
f 345/1041 349/1042 352/1043
f 345/1041 352/1043 348/1044
f 346/1045 347/1046 351/1047
f 346/1045 351/1047 350/1048
f 348/1049 352/1050 351/1051
f 348/1049 351/1051 347/1052
f 345/1053 346/1054 350/1055
f 345/1053 350/1055 349/1056
f 353/1057 356/1058 355/1059
f 353/1057 355/1059 354/1060
f 357/1061 358/1062 359/1063
f 357/1061 359/1063 360/1064
f 353/1065 357/1066 360/1067
f 353/1065 360/1067 356/1068
f 354/1069 355/1070 359/1071
f 354/1069 359/1071 358/1072
f 356/1073 360/1074 359/1075
f 356/1073 359/1075 355/1076
f 353/1077 354/1078 358/1079
f 353/1077 358/1079 357/1080
g fore_right
f 361/1081 364/1082 363/1083
f 361/1081 363/1083 362/1084
f 365/1085 366/1086 367/1087
f 365/1085 367/1087 368/1088
f 361/1089 365/1090 368/1091
f 361/1089 368/1091 364/1092
f 362/1093 363/1094 367/1095
f 362/1093 367/1095 366/1096
f 364/1097 368/1098 367/1099
f 364/1097 367/1099 363/1100
f 361/1101 362/1102 366/1103
f 361/1101 366/1103 365/1104
f 369/1105 372/1106 371/1107
f 369/1105 371/1107 370/1108
f 373/1109 374/1110 375/1111
f 373/1109 375/1111 376/1112
f 369/1113 373/1114 376/1115
f 369/1113 376/1115 372/1116
f 370/1117 371/1118 375/1119
f 370/1117 375/1119 374/1120
f 372/1121 376/1122 375/1123
f 372/1121 375/1123 371/1124
f 369/1125 370/1126 374/1127
f 369/1125 374/1127 373/1128
g fore_right_forearm
f 377/1129 380/1130 379/1131
f 377/1129 379/1131 378/1132
f 381/1133 382/1134 383/1135
f 381/1133 383/1135 384/1136
f 377/1137 381/1138 384/1139
f 377/1137 384/1139 380/1140
f 378/1141 379/1142 383/1143
f 378/1141 383/1143 382/1144
f 380/1145 384/1146 383/1147
f 380/1145 383/1147 379/1148
f 377/1149 378/1150 382/1151
f 377/1149 382/1151 381/1152
f 385/1153 388/1154 387/1155
f 385/1153 387/1155 386/1156
f 389/1157 390/1158 391/1159
f 389/1157 391/1159 392/1160
f 385/1161 389/1162 392/1163
f 385/1161 392/1163 388/1164
f 386/1165 387/1166 391/1167
f 386/1165 391/1167 390/1168
f 388/1169 392/1170 391/1171
f 388/1169 391/1171 387/1172
f 385/1173 386/1174 390/1175
f 385/1173 390/1175 389/1176
g fore_right_hook
f 393/1177 396/1178 395/1179
f 393/1177 395/1179 394/1180
f 397/1181 398/1182 399/1183
f 397/1181 399/1183 400/1184
f 393/1185 397/1186 400/1187
f 393/1185 400/1187 396/1188
f 394/1189 395/1190 399/1191
f 394/1189 399/1191 398/1192
f 396/1193 400/1194 399/1195
f 396/1193 399/1195 395/1196
f 393/1197 394/1198 398/1199
f 393/1197 398/1199 397/1200
f 401/1201 404/1202 403/1203
f 401/1201 403/1203 402/1204
f 405/1205 406/1206 407/1207
f 405/1205 407/1207 408/1208
f 401/1209 405/1210 408/1211
f 401/1209 408/1211 404/1212
f 402/1213 403/1214 407/1215
f 402/1213 407/1215 406/1216
f 404/1217 408/1218 407/1219
f 404/1217 407/1219 403/1220
f 401/1221 402/1222 406/1223
f 401/1221 406/1223 405/1224
f 409/1225 412/1226 411/1227
f 409/1225 411/1227 410/1228
f 413/1229 414/1230 415/1231
f 413/1229 415/1231 416/1232
f 409/1233 413/1234 416/1235
f 409/1233 416/1235 412/1236
f 410/1237 411/1238 415/1239
f 410/1237 415/1239 414/1240
f 412/1241 416/1242 415/1243
f 412/1241 415/1243 411/1244
f 409/1245 410/1246 414/1247
f 409/1245 414/1247 413/1248
f 417/1249 420/1250 419/1251
f 417/1249 419/1251 418/1252
f 421/1253 422/1254 423/1255
f 421/1253 423/1255 424/1256
f 417/1257 421/1258 424/1259
f 417/1257 424/1259 420/1260
f 418/1261 419/1262 423/1263
f 418/1261 423/1263 422/1264
f 420/1265 424/1266 423/1267
f 420/1265 423/1267 419/1268
f 417/1269 418/1270 422/1271
f 417/1269 422/1271 421/1272
f 425/1273 428/1274 427/1275
f 425/1273 427/1275 426/1276
f 429/1277 430/1278 431/1279
f 429/1277 431/1279 432/1280
f 425/1281 429/1282 432/1283
f 425/1281 432/1283 428/1284
f 426/1285 427/1286 431/1287
f 426/1285 431/1287 430/1288
f 428/1289 432/1290 431/1291
f 428/1289 431/1291 427/1292
f 425/1293 426/1294 430/1295
f 425/1293 430/1295 429/1296
f 433/1297 436/1298 435/1299
f 433/1297 435/1299 434/1300
f 437/1301 438/1302 439/1303
f 437/1301 439/1303 440/1304
f 433/1305 437/1306 440/1307
f 433/1305 440/1307 436/1308
f 434/1309 435/1310 439/1311
f 434/1309 439/1311 438/1312
f 436/1313 440/1314 439/1315
f 436/1313 439/1315 435/1316
f 433/1317 434/1318 438/1319
f 433/1317 438/1319 437/1320
f 441/1321 444/1322 443/1323
f 441/1321 443/1323 442/1324
f 445/1325 446/1326 447/1327
f 445/1325 447/1327 448/1328
f 441/1329 445/1330 448/1331
f 441/1329 448/1331 444/1332
f 442/1333 443/1334 447/1335
f 442/1333 447/1335 446/1336
f 444/1337 448/1338 447/1339
f 444/1337 447/1339 443/1340
f 441/1341 442/1342 446/1343
f 441/1341 446/1343 445/1344
f 453/1349 454/1350 455/1351
f 453/1349 455/1351 456/1352
f 449/1353 453/1354 456/1355
f 449/1353 456/1355 452/1356
f 450/1357 451/1358 455/1359
f 450/1357 455/1359 454/1360
f 452/1361 456/1362 455/1363
f 452/1361 455/1363 451/1364
f 449/1365 450/1366 454/1367
f 449/1365 454/1367 453/1368
g landing_dust_0
f 457/1369 460/1370 459/1371
f 457/1369 459/1371 458/1372
f 461/1373 462/1374 463/1375
f 461/1373 463/1375 464/1376
f 457/1377 461/1378 464/1379
f 457/1377 464/1379 460/1380
f 458/1381 459/1382 463/1383
f 458/1381 463/1383 462/1384
f 460/1385 464/1386 463/1387
f 460/1385 463/1387 459/1388
f 457/1389 458/1390 462/1391
f 457/1389 462/1391 461/1392
g landing_dust_1
f 465/1393 468/1394 467/1395
f 465/1393 467/1395 466/1396
f 469/1397 470/1398 471/1399
f 469/1397 471/1399 472/1400
f 465/1401 469/1402 472/1403
f 465/1401 472/1403 468/1404
f 466/1405 467/1406 471/1407
f 466/1405 471/1407 470/1408
f 468/1409 472/1410 471/1411
f 468/1409 471/1411 467/1412
f 465/1413 466/1414 470/1415
f 465/1413 470/1415 469/1416
g landing_dust_2
f 473/1417 476/1418 475/1419
f 473/1417 475/1419 474/1420
f 477/1421 478/1422 479/1423
f 477/1421 479/1423 480/1424
f 473/1425 477/1426 480/1427
f 473/1425 480/1427 476/1428
f 474/1429 475/1430 479/1431
f 474/1429 479/1431 478/1432
f 476/1433 480/1434 479/1435
f 476/1433 479/1435 475/1436
f 473/1437 474/1438 478/1439
f 473/1437 478/1439 477/1440
g landing_dust_3
f 481/1441 484/1442 483/1443
f 481/1441 483/1443 482/1444
f 485/1445 486/1446 487/1447
f 485/1445 487/1447 488/1448
f 481/1449 485/1450 488/1451
f 481/1449 488/1451 484/1452
f 482/1453 483/1454 487/1455
f 482/1453 487/1455 486/1456
f 484/1457 488/1458 487/1459
f 484/1457 487/1459 483/1460
f 481/1461 482/1462 486/1463
f 481/1461 486/1463 485/1464
g landing_dust_4
f 489/1465 492/1466 491/1467
f 489/1465 491/1467 490/1468
f 493/1469 494/1470 495/1471
f 493/1469 495/1471 496/1472
f 489/1473 493/1474 496/1475
f 489/1473 496/1475 492/1476
f 490/1477 491/1478 495/1479
f 490/1477 495/1479 494/1480
f 492/1481 496/1482 495/1483
f 492/1481 495/1483 491/1484
f 489/1485 490/1486 494/1487
f 489/1485 494/1487 493/1488
g landing_dust_5
f 497/1489 500/1490 499/1491
f 497/1489 499/1491 498/1492
f 501/1493 502/1494 503/1495
f 501/1493 503/1495 504/1496
f 497/1497 501/1498 504/1499
f 497/1497 504/1499 500/1500
f 498/1501 499/1502 503/1503
f 498/1501 503/1503 502/1504
f 500/1505 504/1506 503/1507
f 500/1505 503/1507 499/1508
f 497/1509 498/1510 502/1511
f 497/1509 502/1511 501/1512
g landing_dust_6
f 505/1513 508/1514 507/1515
f 505/1513 507/1515 506/1516
f 509/1517 510/1518 511/1519
f 509/1517 511/1519 512/1520
f 505/1521 509/1522 512/1523
f 505/1521 512/1523 508/1524
f 506/1525 507/1526 511/1527
f 506/1525 511/1527 510/1528
f 508/1529 512/1530 511/1531
f 508/1529 511/1531 507/1532
f 505/1533 506/1534 510/1535
f 505/1533 510/1535 509/1536
g landing_dust_7
f 513/1537 516/1538 515/1539
f 513/1537 515/1539 514/1540
f 517/1541 518/1542 519/1543
f 517/1541 519/1543 520/1544
f 513/1545 517/1546 520/1547
f 513/1545 520/1547 516/1548
f 514/1549 515/1550 519/1551
f 514/1549 519/1551 518/1552
f 516/1553 520/1554 519/1555
f 516/1553 519/1555 515/1556
f 513/1557 514/1558 518/1559
f 513/1557 518/1559 517/1560
g leap_body__glow
f 65/193 68/194 67/195
f 65/193 67/195 66/196
f 89/265 92/266 91/267
f 89/265 91/267 90/268
g fore_left_hook__glow
f 289/865 292/866 291/867
f 289/865 291/867 290/868
g fore_right_hook__glow
f 449/1345 452/1346 451/1347
f 449/1345 451/1347 450/1348
